<svg width="160" height="28" viewBox="0 0 160 28" fill="none" xmlns="http://www.w3.org/2000/svg">
<path d="M33.2818 9.39481V6.12976C33.2803 4.51188 32.6387 2.96024 31.4971 1.81336C30.3555 0.666492 28.8064 0.0174612 27.1879 0.0078125H6.18793C4.5641 0.00942517 3.00727 0.654917 1.85907 1.80266C0.710863 2.95041 0.0650899 4.50661 0.0634766 6.12976V21.8642C0.0650452 23.4827 0.706434 25.0349 1.84789 26.1828C2.98935 27.3305 4.53836 27.9809 6.15745 27.9922H27.1269C28.746 27.9809 30.2951 27.3305 31.4365 26.1828C32.578 25.0349 33.2193 23.4827 33.2208 21.8642V18.5747H31.1977V21.8642C31.1977 22.9519 30.7659 23.9954 29.9969 24.7652C29.2279 25.5349 28.1848 25.9681 27.0965 25.9698H6.18793C5.09908 25.9681 4.05531 25.5351 3.28537 24.7656C2.51544 23.9958 2.08218 22.9525 2.08057 21.8642V6.12976C2.08379 5.04243 2.51776 4.00063 3.28752 3.23232C4.05726 2.46402 5.10014 2.03181 6.18793 2.0302H27.1574C28.2446 2.03181 29.2869 2.46423 30.0557 3.2327C30.8243 4.00116 31.2569 5.04299 31.2587 6.12976V9.42526L33.2818 9.39481Z" fill="#192CD1"/>
<path d="M34.7991 12.1603H24.811C24.6494 12.1603 24.4945 12.2244 24.3801 12.3387C24.2658 12.4529 24.2016 12.6079 24.2016 12.7695V15.1451C24.2016 15.3067 24.2658 15.4616 24.3801 15.5758C24.4945 15.6901 24.6494 15.7543 24.811 15.7543H34.7991C34.9607 15.7543 35.1157 15.6901 35.23 15.5758C35.3442 15.4616 35.4084 15.3067 35.4084 15.1451V12.7695C35.4084 12.6079 35.3442 12.4529 35.23 12.3387C35.1157 12.2244 34.9607 12.1603 34.7991 12.1603ZM26.3284 15.1695C26.0873 15.1695 25.8517 15.098 25.6513 14.9642C25.451 14.8303 25.2947 14.64 25.2024 14.4174C25.1102 14.1948 25.086 13.9498 25.1332 13.7135C25.1801 13.4772 25.2963 13.2601 25.4667 13.0897C25.6371 12.9193 25.8542 12.8033 26.0908 12.7563C26.3271 12.7093 26.5722 12.7334 26.7948 12.8256C27.0175 12.9178 27.2078 13.074 27.3418 13.2743C27.4758 13.4747 27.5473 13.7102 27.5473 13.9512C27.5473 14.1138 27.5147 14.2747 27.4516 14.4245C27.3886 14.5744 27.296 14.7101 27.1795 14.8236C27.0631 14.9372 26.9251 15.0262 26.7737 15.0856C26.6223 15.145 26.4605 15.1736 26.298 15.1695H26.3284Z" fill="#192CD1"/>
<path d="M48.0587 20.5572V7.48029H50.1144L54.3007 17.4934L58.4683 7.48029H60.524V20.5572H58.4683V11.9077L55.1042 20.5572H53.4783L50.1144 11.8143V20.5572H48.0587Z" fill="#1E1E1E"/>
<path d="M66.8667 20.7812C65.5087 20.7812 64.4558 20.3517 63.7083 19.4922C62.9608 18.6329 62.587 17.537 62.587 16.2044C62.587 14.8843 62.9793 13.7945 63.7642 12.9352C64.5491 12.0634 65.602 11.6275 66.9226 11.6275C67.5082 11.6275 68.0441 11.752 68.53 12.0011C69.0159 12.2502 69.3897 12.5927 69.6513 13.0286V11.8517H71.6884V20.5572H69.6513V19.3803C69.4021 19.8037 69.0096 20.1462 68.4739 20.4077C67.9506 20.6568 67.4149 20.7812 66.8667 20.7812ZM67.1657 18.9692C68.0004 18.9692 68.6358 18.7077 69.0719 18.1846C69.5204 17.6615 69.7447 17.0015 69.7447 16.2044C69.7447 15.4073 69.5204 14.7473 69.0719 14.2242C68.6358 13.7011 68.0004 13.4396 67.1657 13.4396C66.3808 13.4396 65.7578 13.7011 65.2969 14.2242C64.8484 14.7348 64.6239 15.3949 64.6239 16.2044C64.6239 17.0139 64.8484 17.6802 65.2969 18.2033C65.7578 18.7139 66.3808 18.9692 67.1657 18.9692Z" fill="#1E1E1E"/>
<path d="M74.3008 20.5572V11.8517H76.3379V13.533C76.4874 12.9477 76.7802 12.5055 77.2163 12.2066C77.6524 11.8953 78.1319 11.7396 78.6552 11.7396C78.9916 11.7396 79.2595 11.7645 79.4589 11.8143V13.6824C79.2471 13.6575 78.9791 13.6451 78.6552 13.6451C77.9326 13.6451 77.3658 13.9128 76.9547 14.4484C76.5435 14.9714 76.3379 15.7249 76.3379 16.7088V20.5572H74.3008Z" fill="#1E1E1E"/>
<path d="M84.4056 20.7812C83.0476 20.7812 81.9947 20.3517 81.2472 19.4922C80.4997 18.6329 80.1259 17.537 80.1259 16.2044C80.1259 14.8843 80.5185 13.7945 81.3034 12.9352C82.0883 12.0634 83.1409 11.6275 84.4618 11.6275C85.0473 11.6275 85.5831 11.752 86.0689 12.0011C86.5548 12.2502 86.9286 12.5927 87.1902 13.0286V11.8517H89.2273V20.5572H87.1902V19.3803C86.9411 19.8037 86.5485 20.1462 86.0128 20.4077C85.4895 20.6568 84.9538 20.7812 84.4056 20.7812ZM84.7046 18.9692C85.5394 18.9692 86.1748 18.7077 86.6108 18.1846C87.0595 17.6615 87.2838 17.0015 87.2838 16.2044C87.2838 15.4073 87.0595 14.7473 86.6108 14.2242C86.1748 13.7011 85.5394 13.4396 84.7046 13.4396C83.9197 13.4396 83.2968 13.7011 82.8358 14.2242C82.3873 14.7348 82.163 15.3949 82.163 16.2044C82.163 17.0139 82.3873 17.6802 82.8358 18.2033C83.2968 18.7139 83.9197 18.9692 84.7046 18.9692Z" fill="#1E1E1E"/>
<path d="M94.8863 20.7812C93.7898 20.7812 92.899 20.501 92.2138 19.9405C91.5284 19.3803 91.1859 18.6952 91.1859 17.8857H93.223C93.223 18.2593 93.3849 18.5645 93.7089 18.8011C94.0453 19.0377 94.475 19.156 94.9985 19.156C95.3847 19.156 95.6898 19.0626 95.9141 18.8758C96.1383 18.689 96.2505 18.4399 96.2505 18.1286C96.2505 17.6304 96.0325 17.3253 95.5965 17.2132L93.3537 16.5967C92.0954 16.248 91.4661 15.4447 91.4661 14.1868C91.4661 13.4645 91.7778 12.8605 92.4007 12.3748C93.0236 11.8766 93.8271 11.6275 94.8116 11.6275C95.9204 11.6275 96.7676 11.8766 97.3532 12.3748C97.9512 12.8729 98.2502 13.5268 98.2502 14.3363H96.2505C96.2505 13.9751 96.1134 13.6949 95.8393 13.4956C95.5777 13.2839 95.2103 13.178 94.7366 13.178C94.3753 13.178 94.0763 13.2652 93.8396 13.4396C93.6029 13.6015 93.4846 13.8132 93.4846 14.0747C93.4846 14.548 93.7338 14.8594 94.2321 15.0088L96.3066 15.6066C96.9046 15.781 97.3905 16.0799 97.7643 16.5033C98.1381 16.9143 98.325 17.3938 98.325 17.9418C98.325 18.7886 98.0198 19.4736 97.4091 19.9967C96.8111 20.5198 95.9702 20.7812 94.8863 20.7812Z" fill="#1E1E1E"/>
<path d="M107.67 19.4922C106.847 20.3517 105.732 20.7812 104.325 20.7812C102.916 20.7812 101.795 20.3517 100.96 19.4922C100.138 18.6205 99.7271 17.5245 99.7271 16.2044C99.7271 14.8843 100.138 13.7945 100.96 12.9352C101.795 12.0634 102.916 11.6275 104.325 11.6275C105.732 11.6275 106.847 12.0634 107.67 12.9352C108.505 13.7945 108.922 14.8843 108.922 16.2044C108.922 17.5245 108.505 18.6205 107.67 19.4922ZM102.437 18.2033C102.898 18.7139 103.527 18.9692 104.325 18.9692C105.122 18.9692 105.745 18.7139 106.193 18.2033C106.654 17.6927 106.885 17.0264 106.885 16.2044C106.885 15.3824 106.654 14.7161 106.193 14.2055C105.745 13.6949 105.122 13.4396 104.325 13.4396C103.527 13.4396 102.898 13.6949 102.437 14.2055C101.988 14.7161 101.764 15.3824 101.764 16.2044C101.764 17.0264 101.988 17.6927 102.437 18.2033Z" fill="#1E1E1E"/>
<path d="M115.047 9.18027C114.86 9.18027 114.692 9.19273 114.543 9.21764C114.406 9.24254 114.25 9.29859 114.075 9.38576C113.913 9.46049 113.789 9.59748 113.702 9.79675C113.614 9.99601 113.571 10.2451 113.571 10.544V11.8517H115.851V13.5517H113.571V20.5572H111.534V13.5517H109.758V11.8517H111.534V10.5814C111.534 9.9213 111.64 9.36709 111.852 8.91873C112.063 8.45792 112.337 8.1279 112.674 7.92864C113.023 7.71691 113.34 7.5737 113.627 7.49896C113.914 7.41179 114.2 7.3682 114.487 7.3682C115.06 7.3682 115.514 7.42425 115.851 7.53634V9.255C115.789 9.255 115.664 9.24254 115.477 9.21764C115.303 9.19273 115.159 9.18027 115.047 9.18027Z" fill="#1E1E1E"/>
<path d="M121.663 18.8384C122.074 18.8384 122.417 18.8135 122.691 18.7637V20.5572C122.267 20.6319 121.762 20.6693 121.177 20.6693C120.84 20.6693 120.548 20.6444 120.299 20.5945C120.049 20.5447 119.757 20.4326 119.42 20.2582C119.084 20.0715 118.822 19.7539 118.635 19.3055C118.448 18.8571 118.355 18.2905 118.355 17.6055V13.5517H116.879V11.8517H118.355V9.21764H120.392V11.8517H122.392V13.5517H120.392V17.1384C120.392 17.8359 120.492 18.2967 120.691 18.5209C120.89 18.7326 121.214 18.8384 121.663 18.8384Z" fill="#1E1E1E"/>
<path d="M134.151 7.48029C135.459 7.48029 136.531 7.90995 137.365 8.76928C138.213 9.62861 138.636 10.7246 138.636 12.0572C138.636 13.3898 138.213 14.4857 137.365 15.3451C136.531 16.2044 135.459 16.6341 134.151 16.6341H131.478V20.5572H129.329V7.48029H134.151ZM134.02 14.7099C134.73 14.7099 135.316 14.4608 135.777 13.9627C136.25 13.452 136.487 12.8169 136.487 12.0572C136.487 11.2975 136.25 10.6685 135.777 10.1704C135.316 9.65976 134.73 9.40445 134.02 9.40445H131.478V14.7099H134.02Z" fill="#1E1E1E"/>
<path d="M143.757 20.7812C142.399 20.7812 141.346 20.3517 140.598 19.4922C139.851 18.6329 139.477 17.537 139.477 16.2044C139.477 14.8843 139.87 13.7945 140.655 12.9352C141.439 12.0634 142.492 11.6275 143.813 11.6275C144.399 11.6275 144.934 11.752 145.42 12.0011C145.906 12.2502 146.28 12.5927 146.541 13.0286V11.8517H148.579V20.5572H146.541V19.3803C146.292 19.8037 145.9 20.1462 145.364 20.4077C144.841 20.6568 144.305 20.7812 143.757 20.7812ZM144.056 18.9692C144.891 18.9692 145.526 18.7077 145.962 18.1846C146.411 17.6615 146.635 17.0015 146.635 16.2044C146.635 15.4073 146.411 14.7473 145.962 14.2242C145.526 13.7011 144.891 13.4396 144.056 13.4396C143.271 13.4396 142.648 13.7011 142.187 14.2242C141.738 14.7348 141.514 15.3949 141.514 16.2044C141.514 17.0139 141.738 17.6802 142.187 18.2033C142.648 18.7139 143.271 18.9692 144.056 18.9692Z" fill="#1E1E1E"/>
<path d="M157.116 11.8517H159.153V20.5945C159.153 21.9271 158.773 22.9608 158.013 23.6956C157.277 24.368 156.293 24.7044 155.06 24.7044C153.777 24.7044 152.78 24.4054 152.07 23.8076C151.447 23.2596 151.123 22.5061 151.098 21.5472H153.154C153.203 22.0453 153.365 22.4128 153.64 22.6495C153.926 22.8985 154.387 23.023 155.022 23.023C155.67 23.023 156.181 22.8112 156.555 22.3878C156.929 21.9769 157.116 21.3292 157.116 20.445V19.3429C156.555 20.3019 155.62 20.7812 154.312 20.7812C153.278 20.7812 152.481 20.4512 151.92 19.7912C151.372 19.1187 151.098 18.2406 151.098 17.1571V11.8517H153.135V16.7275C153.135 18.2344 153.764 18.9879 155.022 18.9879C155.708 18.9879 156.225 18.745 156.574 18.2593C156.935 17.7736 157.116 17.1384 157.116 16.3539V11.8517Z" fill="#1E1E1E"/>
</svg> 