<svg width="167" height="35" viewBox="0 0 167 35" fill="none" xmlns="http://www.w3.org/2000/svg">
<path d="M46.698 11.7979V7.83101C46.6959 5.86534 45.8065 3.98016 44.2238 2.58675C42.6412 1.19334 40.4936 0.404789 38.2498 0.393066H9.13702C6.88586 0.395026 4.72758 1.17927 3.13577 2.57374C1.54398 3.96821 0.648721 5.85894 0.646484 7.83101V26.9478C0.648659 28.9142 1.53784 30.8 3.12028 32.1947C4.70273 33.5892 6.85018 34.3793 9.09477 34.3931H38.1653C40.4099 34.3793 42.5575 33.5892 44.1399 32.1947C45.7223 30.8 46.6114 28.9142 46.6135 26.9478V22.9512H43.8088V26.9478C43.8088 28.2693 43.2101 29.5371 42.144 30.4724C41.0779 31.4076 39.6319 31.9339 38.1231 31.936H9.13702C7.62752 31.9339 6.1805 31.4078 5.11311 30.4728C4.04573 29.5376 3.44509 28.27 3.44285 26.9478V7.83101C3.44732 6.50995 4.04894 5.24419 5.11609 4.31073C6.18321 3.37727 7.62899 2.85215 9.13702 2.8502H38.2076C39.7148 2.85215 41.1598 3.37752 42.2256 4.31119C43.2912 5.24484 43.8909 6.51062 43.8933 7.83101V11.8349L46.698 11.7979Z" fill="#192CD1"/>
<path d="M48.8018 15.1579H34.9549C34.7309 15.1579 34.5162 15.2359 34.3575 15.3746C34.1992 15.5134 34.1102 15.7017 34.1102 15.898V18.7844C34.1102 18.9806 34.1992 19.1689 34.3575 19.3077C34.5162 19.4465 34.7309 19.5244 34.9549 19.5244H48.8018C49.0258 19.5244 49.2407 19.4465 49.3991 19.3077C49.5575 19.1689 49.6465 18.9806 49.6465 18.7844V15.898C49.6465 15.7017 49.5575 15.5134 49.3991 15.3746C49.2407 15.2359 49.0258 15.1579 48.8018 15.1579ZM37.0586 18.814C36.7243 18.814 36.3978 18.7271 36.1198 18.5645C35.8421 18.4019 35.6256 18.1707 35.4975 17.9002C35.3697 17.6297 35.3362 17.3321 35.4016 17.045C35.4667 16.7579 35.6277 16.4941 35.8639 16.2871C36.1002 16.0801 36.4012 15.9391 36.7291 15.882C37.0568 15.8249 37.3966 15.8542 37.7051 15.9662C38.0139 16.0783 38.2778 16.268 38.4635 16.5114C38.6492 16.7549 38.7484 17.041 38.7484 17.3338C38.7484 17.5313 38.7032 17.7268 38.6158 17.9089C38.5283 18.0909 38.4 18.2558 38.2384 18.3938C38.0771 18.5317 37.8858 18.6399 37.6759 18.7121C37.466 18.7842 37.2417 18.8189 37.0164 18.814H37.0586Z" fill="#192CD1"/>
<path d="M61.6465 21.4506V9.71527H63.5779L67.5111 18.7012L71.4267 9.71527H73.3581V21.4506H71.4267V13.6885L68.266 21.4506H66.7384L63.5779 13.6047V21.4506H61.6465Z" fill="#192CD1"/>
<path d="M79.3158 21.6537C78.0399 21.6537 77.0507 21.2682 76.3484 20.4969C75.6461 19.7258 75.2949 18.7423 75.2949 17.5464C75.2949 16.3617 75.6636 15.3837 76.401 14.6126C77.1384 13.8302 78.1276 13.439 79.3684 13.439C79.9186 13.439 80.4221 13.5508 80.8786 13.7743C81.3351 13.9979 81.6863 14.3052 81.9321 14.6964V13.6402H83.846V21.4526H81.9321V20.3965C81.698 20.7764 81.3292 21.0838 80.8258 21.3184C80.3342 21.5421 79.8309 21.6537 79.3158 21.6537ZM79.5968 20.0276C80.381 20.0276 80.978 19.7929 81.3877 19.3235C81.8091 18.854 82.0198 18.2617 82.0198 17.5464C82.0198 16.8311 81.8091 16.2387 81.3877 15.7693C80.978 15.2999 80.381 15.0652 79.5968 15.0652C78.8593 15.0652 78.274 15.2999 77.8409 15.7693C77.4196 16.2276 77.2087 16.8199 77.2087 17.5464C77.2087 18.2729 77.4196 18.8708 77.8409 19.3402C78.274 19.7985 78.8593 20.0276 79.5968 20.0276Z" fill="#192CD1"/>
<path d="M86.2998 21.4497V13.6373H88.2137V15.1462C88.3542 14.6209 88.6294 14.2241 89.0391 13.9559C89.4488 13.6765 89.8993 13.5367 90.3909 13.5367C90.707 13.5367 90.9588 13.5591 91.146 13.6038V15.2803C90.947 15.2579 90.6953 15.2468 90.3909 15.2468C89.712 15.2468 89.1795 15.4871 88.7932 15.9676C88.407 16.437 88.2137 17.1132 88.2137 17.9962V21.4497H86.2998Z" fill="#192CD1"/>
<path d="M95.7934 21.6537C94.5175 21.6537 93.5283 21.2682 92.826 20.4969C92.1236 19.7258 91.7725 18.7423 91.7725 17.5464C91.7725 16.3617 92.1413 15.3837 92.8787 14.6126C93.6162 13.8302 94.6052 13.439 95.8461 13.439C96.3963 13.439 96.8996 13.5508 97.3561 13.7743C97.8127 13.9979 98.1638 14.3052 98.4096 14.6964V13.6402H100.324V21.4526H98.4096V20.3965C98.1755 20.7764 97.8067 21.0838 97.3034 21.3184C96.8118 21.5421 96.3084 21.6537 95.7934 21.6537ZM96.0743 20.0276C96.8586 20.0276 97.4555 19.7929 97.8652 19.3235C98.2868 18.854 98.4975 18.2617 98.4975 17.5464C98.4975 16.8311 98.2868 16.2387 97.8652 15.7693C97.4555 15.2999 96.8586 15.0652 96.0743 15.0652C95.3369 15.0652 94.7516 15.2999 94.3185 15.7693C93.8971 16.2276 93.6864 16.8199 93.6864 17.5464C93.6864 18.2729 93.8971 18.8708 94.3185 19.3402C94.7516 19.7985 95.3369 20.0276 96.0743 20.0276Z" fill="#192CD1"/>
<path d="M105.644 21.6537C104.613 21.6537 103.777 21.4022 103.133 20.8993C102.489 20.3965 102.167 19.7817 102.167 19.0552H104.081C104.081 19.3905 104.233 19.6643 104.537 19.8767C104.853 20.089 105.257 20.1952 105.749 20.1952C106.112 20.1952 106.399 20.1114 106.609 19.9437C106.82 19.7761 106.925 19.5526 106.925 19.2732C106.925 18.8261 106.721 18.5523 106.311 18.4517L104.204 17.8984C103.021 17.5855 102.43 16.8646 102.43 15.7358C102.43 15.0876 102.723 14.5455 103.308 14.1096C103.894 13.6626 104.649 13.439 105.573 13.439C106.615 13.439 107.411 13.6626 107.961 14.1096C108.523 14.5567 108.804 15.1434 108.804 15.8699H106.925C106.925 15.5458 106.797 15.2943 106.539 15.1155C106.293 14.9255 105.948 14.8305 105.503 14.8305C105.164 14.8305 104.883 14.9087 104.66 15.0652C104.438 15.2105 104.327 15.4005 104.327 15.6352C104.327 16.0599 104.561 16.3393 105.029 16.4734L106.978 17.0099C107.54 17.1664 107.996 17.4346 108.348 17.8146C108.699 18.1835 108.874 18.6137 108.874 19.1055C108.874 19.8655 108.588 20.4802 108.014 20.9497C107.452 21.4191 106.662 21.6537 105.644 21.6537Z" fill="#192CD1"/>
<path d="M117.655 20.4969C116.882 21.2682 115.835 21.6537 114.512 21.6537C113.189 21.6537 112.135 21.2682 111.351 20.4969C110.579 19.7146 110.192 18.7311 110.192 17.5464C110.192 16.3617 110.579 15.3837 111.351 14.6126C112.135 13.8302 113.189 13.439 114.512 13.439C115.835 13.439 116.882 13.8302 117.655 14.6126C118.439 15.3837 118.831 16.3617 118.831 17.5464C118.831 18.7311 118.439 19.7146 117.655 20.4969ZM112.738 19.3402C113.172 19.7985 113.763 20.0276 114.512 20.0276C115.261 20.0276 115.846 19.7985 116.268 19.3402C116.701 18.882 116.917 18.284 116.917 17.5464C116.917 16.8087 116.701 16.2108 116.268 15.7526C115.846 15.2943 115.261 15.0652 114.512 15.0652C113.763 15.0652 113.172 15.2943 112.738 15.7526C112.317 16.2108 112.106 16.8087 112.106 17.5464C112.106 18.284 112.317 18.882 112.738 19.3402Z" fill="#192CD1"/>
<path d="M124.583 11.2391C124.408 11.2391 124.25 11.2503 124.109 11.2727C123.981 11.295 123.834 11.3453 123.67 11.4236C123.518 11.4906 123.401 11.6136 123.319 11.7924C123.237 11.9712 123.196 12.1947 123.196 12.463V13.6365H125.338V15.1621H123.196V21.4489H121.282V15.1621H119.614V13.6365H121.282V12.4965C121.282 11.9042 121.382 11.4068 121.581 11.0044C121.78 10.5909 122.037 10.2947 122.354 10.1159C122.681 9.92591 122.98 9.79739 123.249 9.73032C123.518 9.65209 123.788 9.61298 124.057 9.61298C124.595 9.61298 125.022 9.66327 125.338 9.76386V11.3062C125.28 11.3062 125.163 11.295 124.987 11.2727C124.823 11.2503 124.689 11.2391 124.583 11.2391Z" fill="#192CD1"/>
<path d="M130.802 19.9064C131.188 19.9064 131.51 19.884 131.767 19.8393V21.4488C131.369 21.5158 130.895 21.5494 130.345 21.5494C130.029 21.5494 129.754 21.527 129.52 21.4823C129.286 21.4376 129.011 21.3369 128.695 21.1804C128.378 21.0129 128.133 20.7279 127.957 20.3255C127.782 19.9231 127.694 19.4146 127.694 18.7999V15.1619H126.307V13.6363H127.694V11.2725H129.608V13.6363H131.486V15.1619H129.608V18.3808C129.608 19.0066 129.701 19.4202 129.889 19.6213C130.076 19.8113 130.38 19.9064 130.802 19.9064Z" fill="#192CD1"/>
<path d="M142.533 9.71527C143.762 9.71527 144.769 10.1008 145.553 10.872C146.349 11.6432 146.747 12.6267 146.747 13.8226C146.747 15.0185 146.349 16.002 145.553 16.7732C144.769 17.5444 143.762 17.93 142.533 17.93H140.022V21.4506H138.003V9.71527H142.533ZM142.41 16.2032C143.078 16.2032 143.628 15.9797 144.061 15.5326C144.506 15.0744 144.728 14.5044 144.728 13.8226C144.728 13.1409 144.506 12.5764 144.061 12.1294C143.628 11.6712 143.078 11.442 142.41 11.442H140.022V16.2032H142.41Z" fill="#192CD1"/>
<path d="M151.558 21.6537C150.282 21.6537 149.293 21.2682 148.591 20.4969C147.888 19.7258 147.537 18.7423 147.537 17.5464C147.537 16.3617 147.906 15.3837 148.643 14.6126C149.381 13.8302 150.37 13.439 151.611 13.439C152.161 13.439 152.664 13.5508 153.121 13.7743C153.577 13.9979 153.928 14.3052 154.174 14.6964V13.6402H156.088V21.4526H154.174V20.3965C153.94 20.7764 153.572 21.0838 153.068 21.3184C152.577 21.5421 152.073 21.6537 151.558 21.6537ZM151.839 20.0276C152.623 20.0276 153.22 19.7929 153.63 19.3235C154.051 18.854 154.262 18.2617 154.262 17.5464C154.262 16.8311 154.051 16.2387 153.63 15.7693C153.22 15.2999 152.623 15.0652 151.839 15.0652C151.102 15.0652 150.516 15.2999 150.083 15.7693C149.662 16.2276 149.451 16.8199 149.451 17.5464C149.451 18.2729 149.662 18.8708 150.083 19.3402C150.516 19.7985 151.102 20.0276 151.839 20.0276Z" fill="#192CD1"/>
<path d="M164.108 13.639H166.022V21.4849C166.022 22.6807 165.665 23.6084 164.951 24.2679C164.26 24.8713 163.335 25.1732 162.177 25.1732C160.971 25.1732 160.034 24.9048 159.367 24.3683C158.782 23.8766 158.478 23.2004 158.454 22.3398H160.386C160.433 22.7869 160.585 23.1166 160.842 23.3291C161.111 23.5525 161.545 23.6643 162.142 23.6643C162.75 23.6643 163.23 23.4742 163.581 23.0943C163.932 22.7255 164.108 22.1442 164.108 21.3508V20.3617C163.581 21.2223 162.703 21.6525 161.474 21.6525C160.503 21.6525 159.753 21.3563 159.227 20.764C158.712 20.1605 158.454 19.3725 158.454 18.4002V13.639H160.368V18.0146C160.368 19.3669 160.959 20.0431 162.142 20.0431C162.785 20.0431 163.271 19.8252 163.599 19.3893C163.938 18.9534 164.108 18.3834 164.108 17.6793V13.639Z" fill="#192CD1"/>
</svg>
