<svg width="620" height="621" viewBox="0 0 620 621" fill="none" xmlns="http://www.w3.org/2000/svg">
<rect y="0.5" width="620" height="620" rx="8" fill="#E7EBFF"/>
<rect x="100" y="121" width="420" height="379" rx="8" fill="#FBFBFB"/>
<path d="M129.632 186V169.2H133.28L138.632 179.856L143.912 169.2H147.56V186H144.488V174.408L139.808 183.6H137.384L132.704 174.408V186H129.632ZM154.491 186.288C153.467 186.288 152.627 186.128 151.971 185.808C151.315 185.472 150.827 185.032 150.507 184.488C150.187 183.944 150.027 183.344 150.027 182.688C150.027 181.584 150.459 180.688 151.323 180C152.187 179.312 153.483 178.968 155.211 178.968H158.235V178.68C158.235 177.864 158.003 177.264 157.539 176.88C157.075 176.496 156.499 176.304 155.811 176.304C155.187 176.304 154.643 176.456 154.179 176.76C153.715 177.048 153.427 177.48 153.315 178.056H150.315C150.395 177.192 150.683 176.44 151.179 175.8C151.691 175.16 152.347 174.672 153.147 174.336C153.947 173.984 154.843 173.808 155.836 173.808C157.532 173.808 158.868 174.232 159.843 175.08C160.82 175.928 161.308 177.128 161.308 178.68V186H158.691L158.403 184.08C158.051 184.72 157.555 185.248 156.915 185.664C156.291 186.08 155.483 186.288 154.491 186.288ZM155.187 183.888C156.067 183.888 156.747 183.6 157.227 183.024C157.723 182.448 158.035 181.736 158.164 180.888H155.547C154.731 180.888 154.147 181.04 153.795 181.344C153.443 181.632 153.267 181.992 153.267 182.424C153.267 182.888 153.443 183.248 153.795 183.504C154.147 183.76 154.611 183.888 155.187 183.888ZM163.879 186V174.096H166.615L166.903 176.328C167.335 175.56 167.919 174.952 168.655 174.504C169.407 174.04 170.287 173.808 171.295 173.808V177.048H170.431C169.759 177.048 169.159 177.152 168.631 177.36C168.103 177.568 167.687 177.928 167.383 178.44C167.095 178.952 166.951 179.664 166.951 180.576V186H163.879ZM177.139 186.288C176.115 186.288 175.275 186.128 174.619 185.808C173.963 185.472 173.475 185.032 173.155 184.488C172.835 183.944 172.675 183.344 172.675 182.688C172.675 181.584 173.107 180.688 173.971 180C174.835 179.312 176.131 178.968 177.859 178.968H180.883V178.68C180.883 177.864 180.651 177.264 180.187 176.88C179.723 176.496 179.147 176.304 178.459 176.304C177.835 176.304 177.291 176.456 176.827 176.76C176.363 177.048 176.075 177.48 175.963 178.056H172.963C173.043 177.192 173.331 176.44 173.827 175.8C174.339 175.16 174.995 174.672 175.795 174.336C176.595 173.984 177.491 173.808 178.483 173.808C180.179 173.808 181.515 174.232 182.491 175.08C183.467 175.928 183.955 177.128 183.955 178.68V186H181.339L181.051 184.08C180.699 184.72 180.203 185.248 179.563 185.664C178.939 186.08 178.131 186.288 177.139 186.288ZM177.835 183.888C178.715 183.888 179.395 183.6 179.875 183.024C180.371 182.448 180.683 181.736 180.811 180.888H178.195C177.379 180.888 176.795 181.04 176.443 181.344C176.091 181.632 175.915 181.992 175.915 182.424C175.915 182.888 176.091 183.248 176.443 183.504C176.795 183.76 177.259 183.888 177.835 183.888ZM191.446 186.288C190.39 186.288 189.462 186.12 188.662 185.784C187.862 185.432 187.222 184.952 186.742 184.344C186.262 183.736 185.974 183.032 185.878 182.232H188.974C189.07 182.696 189.326 183.096 189.742 183.432C190.174 183.752 190.726 183.912 191.398 183.912C192.07 183.912 192.558 183.776 192.862 183.504C193.182 183.232 193.342 182.92 193.342 182.568C193.342 182.056 193.118 181.712 192.67 181.536C192.222 181.344 191.598 181.16 190.798 180.984C190.286 180.872 189.766 180.736 189.238 180.576C188.71 180.416 188.222 180.216 187.774 179.976C187.342 179.72 186.99 179.4 186.718 179.016C186.446 178.616 186.31 178.128 186.31 177.552C186.31 176.496 186.726 175.608 187.558 174.888C188.406 174.168 189.59 173.808 191.11 173.808C192.518 173.808 193.638 174.136 194.47 174.792C195.318 175.448 195.822 176.352 195.982 177.504H193.078C192.902 176.624 192.238 176.184 191.086 176.184C190.51 176.184 190.062 176.296 189.742 176.52C189.438 176.744 189.286 177.024 189.286 177.36C189.286 177.712 189.518 177.992 189.982 178.2C190.446 178.408 191.062 178.6 191.83 178.776C192.662 178.968 193.422 179.184 194.11 179.424C194.814 179.648 195.374 179.992 195.79 180.456C196.206 180.904 196.414 181.552 196.414 182.4C196.43 183.136 196.238 183.8 195.838 184.392C195.438 184.984 194.862 185.448 194.11 185.784C193.358 186.12 192.47 186.288 191.446 186.288ZM204.488 186.288C203.336 186.288 202.296 186.024 201.368 185.496C200.456 184.968 199.728 184.24 199.184 183.312C198.656 182.368 198.392 181.28 198.392 180.048C198.392 178.816 198.664 177.736 199.208 176.808C199.752 175.864 200.48 175.128 201.392 174.6C202.32 174.072 203.36 173.808 204.512 173.808C205.648 173.808 206.672 174.072 207.584 174.6C208.512 175.128 209.24 175.864 209.768 176.808C210.312 177.736 210.584 178.816 210.584 180.048C210.584 181.28 210.312 182.368 209.768 183.312C209.24 184.24 208.512 184.968 207.584 185.496C206.656 186.024 205.624 186.288 204.488 186.288ZM204.488 183.624C205.288 183.624 205.984 183.328 206.576 182.736C207.168 182.128 207.464 181.232 207.464 180.048C207.464 178.864 207.168 177.976 206.576 177.384C205.984 176.776 205.296 176.472 204.512 176.472C203.696 176.472 202.992 176.776 202.4 177.384C201.824 177.976 201.536 178.864 201.536 180.048C201.536 181.232 201.824 182.128 202.4 182.736C202.992 183.328 203.688 183.624 204.488 183.624ZM213.522 186V176.664H211.89V174.096H213.522V172.704C213.522 171.264 213.882 170.24 214.602 169.632C215.338 169.024 216.33 168.72 217.578 168.72H218.898V171.336H218.058C217.53 171.336 217.154 171.44 216.93 171.648C216.706 171.856 216.594 172.208 216.594 172.704V174.096H219.162V176.664H216.594V186H213.522ZM226.539 186C225.291 186 224.291 185.696 223.539 185.088C222.787 184.48 222.411 183.4 222.411 181.848V176.664H220.371V174.096H222.411L222.771 170.904H225.483V174.096H228.699V176.664H225.483V181.872C225.483 182.448 225.603 182.848 225.843 183.072C226.099 183.28 226.531 183.384 227.139 183.384H228.627V186H226.539ZM240.32 186V171.672H235.424V169.2H248.312V171.672H243.392V186H240.32ZM248.983 186V174.096H251.719L252.007 176.328C252.439 175.56 253.023 174.952 253.759 174.504C254.511 174.04 255.391 173.808 256.399 173.808V177.048H255.535C254.863 177.048 254.263 177.152 253.735 177.36C253.207 177.568 252.791 177.928 252.487 178.44C252.199 178.952 252.055 179.664 252.055 180.576V186H248.983ZM262.243 186.288C261.219 186.288 260.379 186.128 259.723 185.808C259.067 185.472 258.579 185.032 258.259 184.488C257.939 183.944 257.779 183.344 257.779 182.688C257.779 181.584 258.211 180.688 259.075 180C259.939 179.312 261.235 178.968 262.963 178.968H265.987V178.68C265.987 177.864 265.755 177.264 265.291 176.88C264.827 176.496 264.251 176.304 263.563 176.304C262.939 176.304 262.395 176.456 261.931 176.76C261.467 177.048 261.179 177.48 261.067 178.056H258.067C258.147 177.192 258.435 176.44 258.931 175.8C259.443 175.16 260.099 174.672 260.899 174.336C261.699 173.984 262.595 173.808 263.587 173.808C265.283 173.808 266.619 174.232 267.595 175.08C268.571 175.928 269.059 177.128 269.059 178.68V186H266.443L266.155 184.08C265.803 184.72 265.307 185.248 264.667 185.664C264.043 186.08 263.235 186.288 262.243 186.288ZM262.939 183.888C263.819 183.888 264.499 183.6 264.979 183.024C265.475 182.448 265.787 181.736 265.915 180.888H263.299C262.483 180.888 261.899 181.04 261.547 181.344C261.195 181.632 261.019 181.992 261.019 182.424C261.019 182.888 261.195 183.248 261.547 183.504C261.899 183.76 262.363 183.888 262.939 183.888ZM271.631 186V174.096H274.343L274.583 176.112C274.951 175.408 275.479 174.848 276.167 174.432C276.871 174.016 277.695 173.808 278.639 173.808C280.111 173.808 281.255 174.272 282.071 175.2C282.887 176.128 283.295 177.488 283.295 179.28V186H280.223V179.568C280.223 178.544 280.015 177.76 279.599 177.216C279.183 176.672 278.535 176.4 277.655 176.4C276.791 176.4 276.079 176.704 275.519 177.312C274.975 177.92 274.703 178.768 274.703 179.856V186H271.631ZM290.792 186.288C289.736 186.288 288.808 186.12 288.008 185.784C287.208 185.432 286.568 184.952 286.088 184.344C285.608 183.736 285.32 183.032 285.224 182.232H288.32C288.416 182.696 288.672 183.096 289.088 183.432C289.52 183.752 290.072 183.912 290.744 183.912C291.416 183.912 291.904 183.776 292.208 183.504C292.528 183.232 292.688 182.92 292.688 182.568C292.688 182.056 292.464 181.712 292.016 181.536C291.568 181.344 290.944 181.16 290.144 180.984C289.632 180.872 289.112 180.736 288.584 180.576C288.056 180.416 287.568 180.216 287.12 179.976C286.688 179.72 286.336 179.4 286.064 179.016C285.792 178.616 285.656 178.128 285.656 177.552C285.656 176.496 286.072 175.608 286.904 174.888C287.752 174.168 288.936 173.808 290.456 173.808C291.864 173.808 292.984 174.136 293.816 174.792C294.664 175.448 295.168 176.352 295.328 177.504H292.424C292.248 176.624 291.584 176.184 290.432 176.184C289.856 176.184 289.408 176.296 289.088 176.52C288.784 176.744 288.632 177.024 288.632 177.36C288.632 177.712 288.864 177.992 289.328 178.2C289.792 178.408 290.408 178.6 291.176 178.776C292.008 178.968 292.768 179.184 293.456 179.424C294.16 179.648 294.72 179.992 295.136 180.456C295.552 180.904 295.76 181.552 295.76 182.4C295.776 183.136 295.584 183.8 295.184 184.392C294.784 184.984 294.208 185.448 293.456 185.784C292.704 186.12 291.816 186.288 290.792 186.288ZM298.674 186V176.664H297.042V174.096H298.674V172.704C298.674 171.264 299.034 170.24 299.754 169.632C300.49 169.024 301.482 168.72 302.73 168.72H304.05V171.336H303.21C302.682 171.336 302.306 171.44 302.082 171.648C301.858 171.856 301.746 172.208 301.746 172.704V174.096H304.314V176.664H301.746V186H298.674ZM311.702 186.288C310.502 186.288 309.438 186.032 308.51 185.52C307.582 185.008 306.854 184.288 306.326 183.36C305.798 182.432 305.534 181.36 305.534 180.144C305.534 178.912 305.79 177.816 306.302 176.856C306.83 175.896 307.55 175.152 308.462 174.624C309.39 174.08 310.478 173.808 311.726 173.808C312.894 173.808 313.926 174.064 314.822 174.576C315.718 175.088 316.414 175.792 316.91 176.688C317.422 177.568 317.678 178.552 317.678 179.64C317.678 179.816 317.67 180 317.654 180.192C317.654 180.384 317.646 180.584 317.63 180.792H308.582C308.646 181.72 308.966 182.448 309.542 182.976C310.134 183.504 310.846 183.768 311.678 183.768C312.302 183.768 312.822 183.632 313.238 183.36C313.67 183.072 313.99 182.704 314.198 182.256H317.318C317.094 183.008 316.718 183.696 316.19 184.32C315.678 184.928 315.038 185.408 314.27 185.76C313.518 186.112 312.662 186.288 311.702 186.288ZM311.726 176.304C310.974 176.304 310.31 176.52 309.734 176.952C309.158 177.368 308.79 178.008 308.63 178.872H314.558C314.51 178.088 314.222 177.464 313.694 177C313.166 176.536 312.51 176.304 311.726 176.304ZM319.902 186V174.096H322.638L322.926 176.328C323.358 175.56 323.942 174.952 324.678 174.504C325.43 174.04 326.31 173.808 327.318 173.808V177.048H326.454C325.782 177.048 325.182 177.152 324.654 177.36C324.126 177.568 323.71 177.928 323.406 178.44C323.118 178.952 322.974 179.664 322.974 180.576V186H319.902Z" fill="#1E1E1E"/>
<path d="M128.71 218V211H133.16V211.86H129.77V214.04H132.86V214.88H129.77V217.14H133.16V218H128.71ZM134.233 218V213.04H135.173L135.263 213.74C135.423 213.487 135.633 213.287 135.893 213.14C136.16 212.993 136.466 212.92 136.813 212.92C137.6 212.92 138.146 213.23 138.453 213.85C138.633 213.563 138.873 213.337 139.173 213.17C139.48 213.003 139.81 212.92 140.163 212.92C140.783 212.92 141.27 213.107 141.623 213.48C141.976 213.853 142.153 214.41 142.153 215.15V218H141.093V215.26C141.093 214.3 140.726 213.82 139.993 213.82C139.62 213.82 139.313 213.96 139.073 214.24C138.84 214.52 138.723 214.92 138.723 215.44V218H137.663V215.26C137.663 214.3 137.293 213.82 136.553 213.82C136.186 213.82 135.883 213.96 135.643 214.24C135.41 214.52 135.293 214.92 135.293 215.44V218H134.233ZM144.923 218.12C144.503 218.12 144.156 218.05 143.883 217.91C143.61 217.77 143.406 217.587 143.273 217.36C143.14 217.127 143.073 216.873 143.073 216.6C143.073 216.12 143.26 215.74 143.633 215.46C144.006 215.18 144.54 215.04 145.233 215.04H146.533V214.95C146.533 214.563 146.426 214.273 146.213 214.08C146.006 213.887 145.736 213.79 145.403 213.79C145.11 213.79 144.853 213.863 144.633 214.01C144.42 214.15 144.29 214.36 144.243 214.64H143.183C143.216 214.28 143.336 213.973 143.543 213.72C143.756 213.46 144.023 213.263 144.343 213.13C144.67 212.99 145.026 212.92 145.413 212.92C146.106 212.92 146.643 213.103 147.023 213.47C147.403 213.83 147.593 214.323 147.593 214.95V218H146.673L146.583 217.15C146.443 217.423 146.24 217.653 145.973 217.84C145.706 218.027 145.356 218.12 144.923 218.12ZM145.133 217.26C145.42 217.26 145.66 217.193 145.853 217.06C146.053 216.92 146.206 216.737 146.313 216.51C146.426 216.283 146.496 216.033 146.523 215.76H145.343C144.923 215.76 144.623 215.833 144.443 215.98C144.27 216.127 144.183 216.31 144.183 216.53C144.183 216.757 144.266 216.937 144.433 217.07C144.606 217.197 144.84 217.26 145.133 217.26ZM149.279 212.1C149.079 212.1 148.912 212.04 148.779 211.92C148.652 211.793 148.589 211.637 148.589 211.45C148.589 211.263 148.652 211.11 148.779 210.99C148.912 210.863 149.079 210.8 149.279 210.8C149.479 210.8 149.642 210.863 149.769 210.99C149.902 211.11 149.969 211.263 149.969 211.45C149.969 211.637 149.902 211.793 149.769 211.92C149.642 212.04 149.479 212.1 149.279 212.1ZM148.749 218V213.04H149.809V218H148.749ZM151.058 218V210.8H152.118V218H151.058ZM155.27 218L157.85 211H159.01L161.57 218H160.45L159.85 216.29H156.99L156.39 218H155.27ZM157.29 215.45H159.55L158.42 212.26L157.29 215.45ZM164.362 218.12C163.882 218.12 163.459 218.007 163.092 217.78C162.726 217.553 162.439 217.243 162.232 216.85C162.026 216.457 161.922 216.01 161.922 215.51C161.922 215.01 162.026 214.567 162.232 214.18C162.439 213.787 162.726 213.48 163.092 213.26C163.466 213.033 163.892 212.92 164.372 212.92C164.766 212.92 165.109 212.997 165.402 213.15C165.702 213.303 165.936 213.52 166.102 213.8V210.8H167.162V218H166.212L166.102 217.23C165.942 217.463 165.722 217.67 165.442 217.85C165.162 218.03 164.802 218.12 164.362 218.12ZM164.552 217.2C165.006 217.2 165.376 217.043 165.662 216.73C165.956 216.417 166.102 216.013 166.102 215.52C166.102 215.02 165.956 214.617 165.662 214.31C165.376 213.997 165.006 213.84 164.552 213.84C164.099 213.84 163.726 213.997 163.432 214.31C163.139 214.617 162.992 215.02 162.992 215.52C162.992 215.847 163.059 216.137 163.192 216.39C163.326 216.643 163.509 216.843 163.742 216.99C163.982 217.13 164.252 217.2 164.552 217.2ZM170.609 218.12C170.129 218.12 169.706 218.007 169.339 217.78C168.972 217.553 168.686 217.243 168.479 216.85C168.272 216.457 168.169 216.01 168.169 215.51C168.169 215.01 168.272 214.567 168.479 214.18C168.686 213.787 168.972 213.48 169.339 213.26C169.712 213.033 170.139 212.92 170.619 212.92C171.012 212.92 171.356 212.997 171.649 213.15C171.949 213.303 172.182 213.52 172.349 213.8V210.8H173.409V218H172.459L172.349 217.23C172.189 217.463 171.969 217.67 171.689 217.85C171.409 218.03 171.049 218.12 170.609 218.12ZM170.799 217.2C171.252 217.2 171.622 217.043 171.909 216.73C172.202 216.417 172.349 216.013 172.349 215.52C172.349 215.02 172.202 214.617 171.909 214.31C171.622 213.997 171.252 213.84 170.799 213.84C170.346 213.84 169.972 213.997 169.679 214.31C169.386 214.617 169.239 215.02 169.239 215.52C169.239 215.847 169.306 216.137 169.439 216.39C169.572 216.643 169.756 216.843 169.989 216.99C170.229 217.13 170.499 217.2 170.799 217.2ZM174.595 218V213.04H175.545L175.635 213.98C175.809 213.653 176.049 213.397 176.355 213.21C176.669 213.017 177.045 212.92 177.485 212.92V214.03H177.195C176.902 214.03 176.639 214.08 176.405 214.18C176.179 214.273 175.995 214.437 175.855 214.67C175.722 214.897 175.655 215.213 175.655 215.62V218H174.595ZM180.428 218.12C179.941 218.12 179.508 218.013 179.128 217.8C178.754 217.58 178.461 217.277 178.248 216.89C178.034 216.503 177.928 216.053 177.928 215.54C177.928 215.02 178.031 214.563 178.238 214.17C178.451 213.777 178.744 213.47 179.118 213.25C179.498 213.03 179.938 212.92 180.438 212.92C180.924 212.92 181.348 213.03 181.708 213.25C182.068 213.463 182.348 213.75 182.548 214.11C182.748 214.47 182.848 214.867 182.848 215.3C182.848 215.367 182.844 215.44 182.838 215.52C182.838 215.593 182.834 215.677 182.828 215.77H178.968C179.001 216.25 179.158 216.617 179.438 216.87C179.724 217.117 180.054 217.24 180.428 217.24C180.728 217.24 180.978 217.173 181.178 217.04C181.384 216.9 181.538 216.713 181.638 216.48H182.698C182.564 216.947 182.298 217.337 181.898 217.65C181.504 217.963 181.014 218.12 180.428 218.12ZM180.428 213.79C180.074 213.79 179.761 213.897 179.488 214.11C179.214 214.317 179.048 214.63 178.988 215.05H181.788C181.768 214.663 181.631 214.357 181.378 214.13C181.124 213.903 180.808 213.79 180.428 213.79ZM185.777 218.12C185.151 218.12 184.634 217.967 184.227 217.66C183.821 217.353 183.587 216.947 183.527 216.44H184.597C184.651 216.667 184.777 216.863 184.977 217.03C185.177 217.19 185.441 217.27 185.767 217.27C186.087 217.27 186.321 217.203 186.467 217.07C186.614 216.937 186.687 216.783 186.687 216.61C186.687 216.357 186.584 216.187 186.377 216.1C186.177 216.007 185.897 215.923 185.537 215.85C185.257 215.79 184.977 215.71 184.697 215.61C184.424 215.51 184.194 215.37 184.007 215.19C183.827 215.003 183.737 214.753 183.737 214.44C183.737 214.007 183.904 213.647 184.237 213.36C184.571 213.067 185.037 212.92 185.637 212.92C186.191 212.92 186.637 213.053 186.977 213.32C187.324 213.587 187.527 213.963 187.587 214.45H186.567C186.534 214.237 186.434 214.07 186.267 213.95C186.107 213.83 185.891 213.77 185.617 213.77C185.351 213.77 185.144 213.827 184.997 213.94C184.851 214.047 184.777 214.187 184.777 214.36C184.777 214.533 184.877 214.67 185.077 214.77C185.284 214.87 185.554 214.96 185.887 215.04C186.221 215.113 186.527 215.2 186.807 215.3C187.094 215.393 187.324 215.533 187.497 215.72C187.671 215.907 187.757 216.18 187.757 216.54C187.764 216.993 187.587 217.37 187.227 217.67C186.874 217.97 186.391 218.12 185.777 218.12ZM190.745 218.12C190.118 218.12 189.601 217.967 189.195 217.66C188.788 217.353 188.555 216.947 188.495 216.44H189.565C189.618 216.667 189.745 216.863 189.945 217.03C190.145 217.19 190.408 217.27 190.735 217.27C191.055 217.27 191.288 217.203 191.435 217.07C191.581 216.937 191.655 216.783 191.655 216.61C191.655 216.357 191.551 216.187 191.345 216.1C191.145 216.007 190.865 215.923 190.505 215.85C190.225 215.79 189.945 215.71 189.665 215.61C189.391 215.51 189.161 215.37 188.975 215.19C188.795 215.003 188.705 214.753 188.705 214.44C188.705 214.007 188.871 213.647 189.205 213.36C189.538 213.067 190.005 212.92 190.605 212.92C191.158 212.92 191.605 213.053 191.945 213.32C192.291 213.587 192.495 213.963 192.555 214.45H191.535C191.501 214.237 191.401 214.07 191.235 213.95C191.075 213.83 190.858 213.77 190.585 213.77C190.318 213.77 190.111 213.827 189.965 213.94C189.818 214.047 189.745 214.187 189.745 214.36C189.745 214.533 189.845 214.67 190.045 214.77C190.251 214.87 190.521 214.96 190.855 215.04C191.188 215.113 191.495 215.2 191.775 215.3C192.061 215.393 192.291 215.533 192.465 215.72C192.638 215.907 192.725 216.18 192.725 216.54C192.731 216.993 192.555 217.37 192.195 217.67C191.841 217.97 191.358 218.12 190.745 218.12Z" fill="#525252"/>
<path d="M144.67 249V241.8H145.73V249H144.67ZM149.242 249.12C148.769 249.12 148.342 249.013 147.962 248.8C147.589 248.58 147.292 248.277 147.072 247.89C146.852 247.497 146.742 247.04 146.742 246.52C146.742 246 146.852 245.547 147.072 245.16C147.299 244.767 147.602 244.463 147.982 244.25C148.362 244.03 148.786 243.92 149.252 243.92C149.726 243.92 150.149 244.03 150.522 244.25C150.902 244.463 151.202 244.767 151.422 245.16C151.649 245.547 151.762 246 151.762 246.52C151.762 247.04 151.649 247.497 151.422 247.89C151.202 248.277 150.902 248.58 150.522 248.8C150.142 249.013 149.716 249.12 149.242 249.12ZM149.242 248.21C149.496 248.21 149.729 248.147 149.942 248.02C150.162 247.893 150.339 247.707 150.472 247.46C150.606 247.207 150.672 246.893 150.672 246.52C150.672 246.147 150.606 245.837 150.472 245.59C150.346 245.337 150.172 245.147 149.952 245.02C149.739 244.893 149.506 244.83 149.252 244.83C148.999 244.83 148.762 244.893 148.542 245.02C148.329 245.147 148.156 245.337 148.022 245.59C147.889 245.837 147.822 246.147 147.822 246.52C147.822 246.893 147.889 247.207 148.022 247.46C148.156 247.707 148.329 247.893 148.542 248.02C148.756 248.147 148.989 248.21 149.242 248.21ZM154.589 249.12C153.989 249.12 153.515 248.933 153.169 248.56C152.829 248.187 152.659 247.63 152.659 246.89V244.04H153.719V246.78C153.719 247.74 154.112 248.22 154.899 248.22C155.292 248.22 155.615 248.08 155.869 247.8C156.122 247.52 156.249 247.12 156.249 246.6V244.04H157.309V249H156.369L156.289 248.13C156.135 248.437 155.909 248.68 155.609 248.86C155.315 249.033 154.975 249.12 154.589 249.12ZM159.107 243.1C158.907 243.1 158.74 243.04 158.607 242.92C158.48 242.793 158.417 242.637 158.417 242.45C158.417 242.263 158.48 242.11 158.607 241.99C158.74 241.863 158.907 241.8 159.107 241.8C159.307 241.8 159.47 241.863 159.597 241.99C159.73 242.11 159.797 242.263 159.797 242.45C159.797 242.637 159.73 242.793 159.597 242.92C159.47 243.04 159.307 243.1 159.107 243.1ZM158.577 249V244.04H159.637V249H158.577ZM162.866 249.12C162.24 249.12 161.723 248.967 161.316 248.66C160.91 248.353 160.676 247.947 160.616 247.44H161.686C161.74 247.667 161.866 247.863 162.066 248.03C162.266 248.19 162.53 248.27 162.856 248.27C163.176 248.27 163.41 248.203 163.556 248.07C163.703 247.937 163.776 247.783 163.776 247.61C163.776 247.357 163.673 247.187 163.466 247.1C163.266 247.007 162.986 246.923 162.626 246.85C162.346 246.79 162.066 246.71 161.786 246.61C161.513 246.51 161.283 246.37 161.096 246.19C160.916 246.003 160.826 245.753 160.826 245.44C160.826 245.007 160.993 244.647 161.326 244.36C161.66 244.067 162.126 243.92 162.726 243.92C163.28 243.92 163.726 244.053 164.066 244.32C164.413 244.587 164.616 244.963 164.676 245.45H163.656C163.623 245.237 163.523 245.07 163.356 244.95C163.196 244.83 162.98 244.77 162.706 244.77C162.44 244.77 162.233 244.827 162.086 244.94C161.94 245.047 161.866 245.187 161.866 245.36C161.866 245.533 161.966 245.67 162.166 245.77C162.373 245.87 162.643 245.96 162.976 246.04C163.31 246.113 163.616 246.2 163.896 246.3C164.183 246.393 164.413 246.533 164.586 246.72C164.76 246.907 164.846 247.18 164.846 247.54C164.853 247.993 164.676 248.37 164.316 248.67C163.963 248.97 163.48 249.12 162.866 249.12ZM169.554 251.06C168.827 251.06 168.19 250.92 167.644 250.64C167.104 250.36 166.68 249.963 166.374 249.45C166.074 248.943 165.924 248.343 165.924 247.65C165.924 246.923 166.05 246.25 166.304 245.63C166.557 245.01 166.914 244.467 167.374 244C167.834 243.533 168.374 243.173 168.994 242.92C169.614 242.66 170.294 242.53 171.034 242.53C171.794 242.53 172.45 242.673 173.004 242.96C173.557 243.247 173.984 243.647 174.284 244.16C174.59 244.673 174.744 245.263 174.744 245.93C174.744 246.323 174.694 246.707 174.594 247.08C174.494 247.453 174.347 247.79 174.154 248.09C173.967 248.383 173.734 248.62 173.454 248.8C173.18 248.973 172.864 249.06 172.504 249.06C172.164 249.06 171.897 248.98 171.704 248.82C171.517 248.653 171.404 248.43 171.364 248.15C171.164 248.437 170.907 248.66 170.594 248.82C170.287 248.98 169.957 249.06 169.604 249.06C169.104 249.06 168.71 248.91 168.424 248.61C168.144 248.303 168.004 247.89 168.004 247.37C168.004 247.003 168.06 246.653 168.174 246.32C168.287 245.98 168.45 245.68 168.664 245.42C168.877 245.153 169.127 244.943 169.414 244.79C169.707 244.637 170.03 244.56 170.384 244.56C171.03 244.56 171.454 244.817 171.654 245.33L171.774 244.67H172.654L172.174 247.43C172.127 247.703 172.137 247.927 172.204 248.1C172.27 248.267 172.42 248.35 172.654 248.35C172.86 248.35 173.04 248.277 173.194 248.13C173.354 247.983 173.484 247.793 173.584 247.56C173.69 247.327 173.77 247.073 173.824 246.8C173.877 246.52 173.904 246.247 173.904 245.98C173.904 245.133 173.64 244.47 173.114 243.99C172.587 243.503 171.854 243.26 170.914 243.26C170.32 243.26 169.77 243.373 169.264 243.6C168.757 243.82 168.317 244.127 167.944 244.52C167.57 244.907 167.28 245.36 167.074 245.88C166.867 246.4 166.764 246.96 166.764 247.56C166.764 248.433 167.027 249.11 167.554 249.59C168.08 250.077 168.8 250.32 169.714 250.32C170.007 250.32 170.297 250.29 170.584 250.23C170.877 250.17 171.15 250.083 171.404 249.97L171.574 250.67C170.96 250.93 170.287 251.06 169.554 251.06ZM169.934 248.27C170.194 248.27 170.434 248.2 170.654 248.06C170.874 247.913 171.054 247.717 171.194 247.47C171.334 247.217 171.417 246.93 171.444 246.61C171.477 246.263 171.41 245.967 171.244 245.72C171.077 245.473 170.814 245.35 170.454 245.35C170.147 245.35 169.88 245.44 169.654 245.62C169.427 245.8 169.254 246.03 169.134 246.31C169.014 246.59 168.954 246.887 168.954 247.2C168.954 247.52 169.034 247.78 169.194 247.98C169.36 248.173 169.607 248.27 169.934 248.27ZM178.036 247.48C177.776 247.48 177.536 247.45 177.316 247.39L176.886 247.81C176.96 247.857 177.05 247.897 177.156 247.93C177.263 247.963 177.413 247.993 177.606 248.02C177.8 248.047 178.063 248.073 178.396 248.1C179.056 248.16 179.533 248.32 179.826 248.58C180.12 248.833 180.266 249.173 180.266 249.6C180.266 249.893 180.186 250.17 180.026 250.43C179.873 250.697 179.63 250.91 179.296 251.07C178.97 251.237 178.55 251.32 178.036 251.32C177.343 251.32 176.78 251.187 176.346 250.92C175.92 250.66 175.706 250.263 175.706 249.73C175.706 249.523 175.76 249.317 175.866 249.11C175.98 248.91 176.156 248.72 176.396 248.54C176.256 248.48 176.133 248.417 176.026 248.35C175.926 248.277 175.836 248.203 175.756 248.13V247.89L176.616 247.01C176.23 246.677 176.036 246.24 176.036 245.7C176.036 245.373 176.113 245.077 176.266 244.81C176.426 244.537 176.656 244.32 176.956 244.16C177.256 244 177.616 243.92 178.036 243.92C178.316 243.92 178.576 243.96 178.816 244.04H180.666V244.74L179.786 244.79C179.946 245.063 180.026 245.367 180.026 245.7C180.026 246.033 179.946 246.333 179.786 246.6C179.633 246.867 179.406 247.08 179.106 247.24C178.813 247.4 178.456 247.48 178.036 247.48ZM178.036 246.65C178.343 246.65 178.59 246.57 178.776 246.41C178.97 246.243 179.066 246.01 179.066 245.71C179.066 245.403 178.97 245.17 178.776 245.01C178.59 244.85 178.343 244.77 178.036 244.77C177.723 244.77 177.47 244.85 177.276 245.01C177.09 245.17 176.996 245.403 176.996 245.71C176.996 246.01 177.09 246.243 177.276 246.41C177.47 246.57 177.723 246.65 178.036 246.65ZM176.706 249.63C176.706 249.917 176.833 250.13 177.086 250.27C177.34 250.417 177.656 250.49 178.036 250.49C178.403 250.49 178.7 250.41 178.926 250.25C179.153 250.097 179.266 249.89 179.266 249.63C179.266 249.437 179.19 249.27 179.036 249.13C178.883 248.997 178.593 248.913 178.166 248.88C177.846 248.86 177.563 248.83 177.316 248.79C177.083 248.917 176.923 249.053 176.836 249.2C176.75 249.347 176.706 249.49 176.706 249.63ZM181.462 249V244.04H182.402L182.492 244.74C182.652 244.487 182.862 244.287 183.122 244.14C183.388 243.993 183.695 243.92 184.042 243.92C184.828 243.92 185.375 244.23 185.682 244.85C185.862 244.563 186.102 244.337 186.402 244.17C186.708 244.003 187.038 243.92 187.392 243.92C188.012 243.92 188.498 244.107 188.852 244.48C189.205 244.853 189.382 245.41 189.382 246.15V249H188.322V246.26C188.322 245.3 187.955 244.82 187.222 244.82C186.848 244.82 186.542 244.96 186.302 245.24C186.068 245.52 185.952 245.92 185.952 246.44V249H184.892V246.26C184.892 245.3 184.522 244.82 183.782 244.82C183.415 244.82 183.112 244.96 182.872 245.24C182.638 245.52 182.522 245.92 182.522 246.44V249H181.462ZM192.152 249.12C191.732 249.12 191.385 249.05 191.112 248.91C190.839 248.77 190.635 248.587 190.502 248.36C190.369 248.127 190.302 247.873 190.302 247.6C190.302 247.12 190.489 246.74 190.862 246.46C191.235 246.18 191.769 246.04 192.462 246.04H193.762V245.95C193.762 245.563 193.655 245.273 193.442 245.08C193.235 244.887 192.965 244.79 192.632 244.79C192.339 244.79 192.082 244.863 191.862 245.01C191.649 245.15 191.519 245.36 191.472 245.64H190.412C190.445 245.28 190.565 244.973 190.772 244.72C190.985 244.46 191.252 244.263 191.572 244.13C191.899 243.99 192.255 243.92 192.642 243.92C193.335 243.92 193.872 244.103 194.252 244.47C194.632 244.83 194.822 245.323 194.822 245.95V249H193.902L193.812 248.15C193.672 248.423 193.469 248.653 193.202 248.84C192.935 249.027 192.585 249.12 192.152 249.12ZM192.362 248.26C192.649 248.26 192.889 248.193 193.082 248.06C193.282 247.92 193.435 247.737 193.542 247.51C193.655 247.283 193.725 247.033 193.752 246.76H192.572C192.152 246.76 191.852 246.833 191.672 246.98C191.499 247.127 191.412 247.31 191.412 247.53C191.412 247.757 191.495 247.937 191.662 248.07C191.835 248.197 192.069 248.26 192.362 248.26ZM196.508 243.1C196.308 243.1 196.141 243.04 196.008 242.92C195.881 242.793 195.818 242.637 195.818 242.45C195.818 242.263 195.881 242.11 196.008 241.99C196.141 241.863 196.308 241.8 196.508 241.8C196.708 241.8 196.871 241.863 196.998 241.99C197.131 242.11 197.198 242.263 197.198 242.45C197.198 242.637 197.131 242.793 196.998 242.92C196.871 243.04 196.708 243.1 196.508 243.1ZM195.978 249V244.04H197.038V249H195.978ZM198.287 249V241.8H199.347V249H198.287ZM200.96 249.06C200.76 249.06 200.593 248.997 200.46 248.87C200.333 248.737 200.27 248.58 200.27 248.4C200.27 248.213 200.333 248.057 200.46 247.93C200.593 247.797 200.76 247.73 200.96 247.73C201.16 247.73 201.323 247.797 201.45 247.93C201.576 248.057 201.64 248.213 201.64 248.4C201.64 248.58 201.576 248.737 201.45 248.87C201.323 248.997 201.16 249.06 200.96 249.06ZM204.908 249.12C204.421 249.12 203.984 249.01 203.598 248.79C203.218 248.57 202.918 248.267 202.698 247.88C202.484 247.487 202.378 247.033 202.378 246.52C202.378 246.007 202.484 245.557 202.698 245.17C202.918 244.777 203.218 244.47 203.598 244.25C203.984 244.03 204.421 243.92 204.908 243.92C205.521 243.92 206.034 244.08 206.448 244.4C206.868 244.72 207.138 245.153 207.258 245.7H206.148C206.081 245.427 205.934 245.213 205.708 245.06C205.481 244.907 205.214 244.83 204.908 244.83C204.648 244.83 204.408 244.897 204.188 245.03C203.968 245.157 203.791 245.347 203.658 245.6C203.524 245.847 203.458 246.153 203.458 246.52C203.458 246.887 203.524 247.197 203.658 247.45C203.791 247.697 203.968 247.887 204.188 248.02C204.408 248.153 204.648 248.22 204.908 248.22C205.214 248.22 205.481 248.143 205.708 247.99C205.934 247.837 206.081 247.62 206.148 247.34H207.258C207.144 247.873 206.878 248.303 206.458 248.63C206.038 248.957 205.521 249.12 204.908 249.12ZM210.577 249.12C210.104 249.12 209.677 249.013 209.297 248.8C208.924 248.58 208.627 248.277 208.407 247.89C208.187 247.497 208.077 247.04 208.077 246.52C208.077 246 208.187 245.547 208.407 245.16C208.634 244.767 208.937 244.463 209.317 244.25C209.697 244.03 210.12 243.92 210.587 243.92C211.06 243.92 211.484 244.03 211.857 244.25C212.237 244.463 212.537 244.767 212.757 245.16C212.984 245.547 213.097 246 213.097 246.52C213.097 247.04 212.984 247.497 212.757 247.89C212.537 248.277 212.237 248.58 211.857 248.8C211.477 249.013 211.05 249.12 210.577 249.12ZM210.577 248.21C210.83 248.21 211.064 248.147 211.277 248.02C211.497 247.893 211.674 247.707 211.807 247.46C211.94 247.207 212.007 246.893 212.007 246.52C212.007 246.147 211.94 245.837 211.807 245.59C211.68 245.337 211.507 245.147 211.287 245.02C211.074 244.893 210.84 244.83 210.587 244.83C210.334 244.83 210.097 244.893 209.877 245.02C209.664 245.147 209.49 245.337 209.357 245.59C209.224 245.837 209.157 246.147 209.157 246.52C209.157 246.893 209.224 247.207 209.357 247.46C209.49 247.707 209.664 247.893 209.877 248.02C210.09 248.147 210.324 248.21 210.577 248.21ZM214.093 249V244.04H215.033L215.123 244.74C215.283 244.487 215.493 244.287 215.753 244.14C216.02 243.993 216.327 243.92 216.673 243.92C217.46 243.92 218.007 244.23 218.313 244.85C218.493 244.563 218.733 244.337 219.033 244.17C219.34 244.003 219.67 243.92 220.023 243.92C220.643 243.92 221.13 244.107 221.483 244.48C221.837 244.853 222.013 245.41 222.013 246.15V249H220.953V246.26C220.953 245.3 220.587 244.82 219.853 244.82C219.48 244.82 219.173 244.96 218.933 245.24C218.7 245.52 218.583 245.92 218.583 246.44V249H217.523V246.26C217.523 245.3 217.153 244.82 216.413 244.82C216.047 244.82 215.743 244.96 215.503 245.24C215.27 245.52 215.153 245.92 215.153 246.44V249H214.093Z" fill="#1E1E1E"/>
<rect x="127.5" y="227.5" width="365" height="37" rx="4.5" stroke="#E7E7E7"/>
<path d="M128.71 287V280H131.35C132.077 280 132.627 280.17 133 280.51C133.373 280.85 133.56 281.277 133.56 281.79C133.56 282.237 133.44 282.593 133.2 282.86C132.96 283.12 132.67 283.297 132.33 283.39C132.597 283.443 132.833 283.55 133.04 283.71C133.253 283.87 133.42 284.07 133.54 284.31C133.66 284.55 133.72 284.81 133.72 285.09C133.72 285.45 133.63 285.777 133.45 286.07C133.277 286.357 133.02 286.583 132.68 286.75C132.34 286.917 131.923 287 131.43 287H128.71ZM129.77 283H131.22C131.627 283 131.937 282.907 132.15 282.72C132.363 282.527 132.47 282.263 132.47 281.93C132.47 281.603 132.363 281.343 132.15 281.15C131.943 280.957 131.627 280.86 131.2 280.86H129.77V283ZM129.77 286.13H131.29C131.717 286.13 132.047 286.03 132.28 285.83C132.52 285.63 132.64 285.35 132.64 284.99C132.64 284.63 132.517 284.347 132.27 284.14C132.023 283.927 131.69 283.82 131.27 283.82H129.77V286.13ZM136.522 287.12C135.922 287.12 135.449 286.933 135.102 286.56C134.762 286.187 134.592 285.63 134.592 284.89V282.04H135.652V284.78C135.652 285.74 136.045 286.22 136.832 286.22C137.225 286.22 137.549 286.08 137.802 285.8C138.055 285.52 138.182 285.12 138.182 284.6V282.04H139.242V287H138.302L138.222 286.13C138.069 286.437 137.842 286.68 137.542 286.86C137.249 287.033 136.909 287.12 136.522 287.12ZM142.42 287.12C141.794 287.12 141.277 286.967 140.87 286.66C140.464 286.353 140.23 285.947 140.17 285.44H141.24C141.294 285.667 141.42 285.863 141.62 286.03C141.82 286.19 142.084 286.27 142.41 286.27C142.73 286.27 142.964 286.203 143.11 286.07C143.257 285.937 143.33 285.783 143.33 285.61C143.33 285.357 143.227 285.187 143.02 285.1C142.82 285.007 142.54 284.923 142.18 284.85C141.9 284.79 141.62 284.71 141.34 284.61C141.067 284.51 140.837 284.37 140.65 284.19C140.47 284.003 140.38 283.753 140.38 283.44C140.38 283.007 140.547 282.647 140.88 282.36C141.214 282.067 141.68 281.92 142.28 281.92C142.834 281.92 143.28 282.053 143.62 282.32C143.967 282.587 144.17 282.963 144.23 283.45H143.21C143.177 283.237 143.077 283.07 142.91 282.95C142.75 282.83 142.534 282.77 142.26 282.77C141.994 282.77 141.787 282.827 141.64 282.94C141.494 283.047 141.42 283.187 141.42 283.36C141.42 283.533 141.52 283.67 141.72 283.77C141.927 283.87 142.197 283.96 142.53 284.04C142.864 284.113 143.17 284.2 143.45 284.3C143.737 284.393 143.967 284.533 144.14 284.72C144.314 284.907 144.4 285.18 144.4 285.54C144.407 285.993 144.23 286.37 143.87 286.67C143.517 286.97 143.034 287.12 142.42 287.12ZM146.007 281.1C145.807 281.1 145.641 281.04 145.507 280.92C145.381 280.793 145.317 280.637 145.317 280.45C145.317 280.263 145.381 280.11 145.507 279.99C145.641 279.863 145.807 279.8 146.007 279.8C146.207 279.8 146.371 279.863 146.497 279.99C146.631 280.11 146.697 280.263 146.697 280.45C146.697 280.637 146.631 280.793 146.497 280.92C146.371 281.04 146.207 281.1 146.007 281.1ZM145.477 287V282.04H146.537V287H145.477ZM147.787 287V282.04H148.727L148.807 282.91C148.96 282.603 149.183 282.363 149.477 282.19C149.777 282.01 150.12 281.92 150.507 281.92C151.107 281.92 151.577 282.107 151.917 282.48C152.263 282.853 152.437 283.41 152.437 284.15V287H151.387V284.26C151.387 283.3 150.993 282.82 150.207 282.82C149.813 282.82 149.487 282.96 149.227 283.24C148.973 283.52 148.847 283.92 148.847 284.44V287H147.787ZM155.855 287.12C155.369 287.12 154.935 287.013 154.555 286.8C154.182 286.58 153.889 286.277 153.675 285.89C153.462 285.503 153.355 285.053 153.355 284.54C153.355 284.02 153.459 283.563 153.665 283.17C153.879 282.777 154.172 282.47 154.545 282.25C154.925 282.03 155.365 281.92 155.865 281.92C156.352 281.92 156.775 282.03 157.135 282.25C157.495 282.463 157.775 282.75 157.975 283.11C158.175 283.47 158.275 283.867 158.275 284.3C158.275 284.367 158.272 284.44 158.265 284.52C158.265 284.593 158.262 284.677 158.255 284.77H154.395C154.429 285.25 154.585 285.617 154.865 285.87C155.152 286.117 155.482 286.24 155.855 286.24C156.155 286.24 156.405 286.173 156.605 286.04C156.812 285.9 156.965 285.713 157.065 285.48H158.125C157.992 285.947 157.725 286.337 157.325 286.65C156.932 286.963 156.442 287.12 155.855 287.12ZM155.855 282.79C155.502 282.79 155.189 282.897 154.915 283.11C154.642 283.317 154.475 283.63 154.415 284.05H157.215C157.195 283.663 157.059 283.357 156.805 283.13C156.552 282.903 156.235 282.79 155.855 282.79ZM161.205 287.12C160.578 287.12 160.062 286.967 159.655 286.66C159.248 286.353 159.015 285.947 158.955 285.44H160.025C160.078 285.667 160.205 285.863 160.405 286.03C160.605 286.19 160.868 286.27 161.195 286.27C161.515 286.27 161.748 286.203 161.895 286.07C162.042 285.937 162.115 285.783 162.115 285.61C162.115 285.357 162.012 285.187 161.805 285.1C161.605 285.007 161.325 284.923 160.965 284.85C160.685 284.79 160.405 284.71 160.125 284.61C159.852 284.51 159.622 284.37 159.435 284.19C159.255 284.003 159.165 283.753 159.165 283.44C159.165 283.007 159.332 282.647 159.665 282.36C159.998 282.067 160.465 281.92 161.065 281.92C161.618 281.92 162.065 282.053 162.405 282.32C162.752 282.587 162.955 282.963 163.015 283.45H161.995C161.962 283.237 161.862 283.07 161.695 282.95C161.535 282.83 161.318 282.77 161.045 282.77C160.778 282.77 160.572 282.827 160.425 282.94C160.278 283.047 160.205 283.187 160.205 283.36C160.205 283.533 160.305 283.67 160.505 283.77C160.712 283.87 160.982 283.96 161.315 284.04C161.648 284.113 161.955 284.2 162.235 284.3C162.522 284.393 162.752 284.533 162.925 284.72C163.098 284.907 163.185 285.18 163.185 285.54C163.192 285.993 163.015 286.37 162.655 286.67C162.302 286.97 161.818 287.12 161.205 287.12ZM166.172 287.12C165.546 287.12 165.029 286.967 164.622 286.66C164.216 286.353 163.982 285.947 163.922 285.44H164.992C165.046 285.667 165.172 285.863 165.372 286.03C165.572 286.19 165.836 286.27 166.162 286.27C166.482 286.27 166.716 286.203 166.862 286.07C167.009 285.937 167.082 285.783 167.082 285.61C167.082 285.357 166.979 285.187 166.772 285.1C166.572 285.007 166.292 284.923 165.932 284.85C165.652 284.79 165.372 284.71 165.092 284.61C164.819 284.51 164.589 284.37 164.402 284.19C164.222 284.003 164.132 283.753 164.132 283.44C164.132 283.007 164.299 282.647 164.632 282.36C164.966 282.067 165.432 281.92 166.032 281.92C166.586 281.92 167.032 282.053 167.372 282.32C167.719 282.587 167.922 282.963 167.982 283.45H166.962C166.929 283.237 166.829 283.07 166.662 282.95C166.502 282.83 166.286 282.77 166.012 282.77C165.746 282.77 165.539 282.827 165.392 282.94C165.246 283.047 165.172 283.187 165.172 283.36C165.172 283.533 165.272 283.67 165.472 283.77C165.679 283.87 165.949 283.96 166.282 284.04C166.616 284.113 166.922 284.2 167.202 284.3C167.489 284.393 167.719 284.533 167.892 284.72C168.066 284.907 168.152 285.18 168.152 285.54C168.159 285.993 167.982 286.37 167.622 286.67C167.269 286.97 166.786 287.12 166.172 287.12ZM171.569 287V280H172.629L176.139 285.27V280H177.199V287H176.139L172.629 281.73V287H171.569ZM180.11 287.12C179.69 287.12 179.343 287.05 179.07 286.91C178.796 286.77 178.593 286.587 178.46 286.36C178.326 286.127 178.26 285.873 178.26 285.6C178.26 285.12 178.446 284.74 178.82 284.46C179.193 284.18 179.726 284.04 180.42 284.04H181.72V283.95C181.72 283.563 181.613 283.273 181.4 283.08C181.193 282.887 180.923 282.79 180.59 282.79C180.296 282.79 180.04 282.863 179.82 283.01C179.606 283.15 179.476 283.36 179.43 283.64H178.37C178.403 283.28 178.523 282.973 178.73 282.72C178.943 282.46 179.21 282.263 179.53 282.13C179.856 281.99 180.213 281.92 180.6 281.92C181.293 281.92 181.83 282.103 182.21 282.47C182.59 282.83 182.78 283.323 182.78 283.95V287H181.86L181.77 286.15C181.63 286.423 181.426 286.653 181.16 286.84C180.893 287.027 180.543 287.12 180.11 287.12ZM180.32 286.26C180.606 286.26 180.846 286.193 181.04 286.06C181.24 285.92 181.393 285.737 181.5 285.51C181.613 285.283 181.683 285.033 181.71 284.76H180.53C180.11 284.76 179.81 284.833 179.63 284.98C179.456 285.127 179.37 285.31 179.37 285.53C179.37 285.757 179.453 285.937 179.62 286.07C179.793 286.197 180.026 286.26 180.32 286.26ZM183.866 287V282.04H184.806L184.896 282.74C185.056 282.487 185.266 282.287 185.526 282.14C185.792 281.993 186.099 281.92 186.446 281.92C187.232 281.92 187.779 282.23 188.086 282.85C188.266 282.563 188.506 282.337 188.806 282.17C189.112 282.003 189.442 281.92 189.796 281.92C190.416 281.92 190.902 282.107 191.256 282.48C191.609 282.853 191.786 283.41 191.786 284.15V287H190.726V284.26C190.726 283.3 190.359 282.82 189.626 282.82C189.252 282.82 188.946 282.96 188.706 283.24C188.472 283.52 188.356 283.92 188.356 284.44V287H187.296V284.26C187.296 283.3 186.926 282.82 186.186 282.82C185.819 282.82 185.516 282.96 185.276 283.24C185.042 283.52 184.926 283.92 184.926 284.44V287H183.866ZM195.196 287.12C194.709 287.12 194.276 287.013 193.896 286.8C193.523 286.58 193.229 286.277 193.016 285.89C192.803 285.503 192.696 285.053 192.696 284.54C192.696 284.02 192.799 283.563 193.006 283.17C193.219 282.777 193.513 282.47 193.886 282.25C194.266 282.03 194.706 281.92 195.206 281.92C195.693 281.92 196.116 282.03 196.476 282.25C196.836 282.463 197.116 282.75 197.316 283.11C197.516 283.47 197.616 283.867 197.616 284.3C197.616 284.367 197.613 284.44 197.606 284.52C197.606 284.593 197.603 284.677 197.596 284.77H193.736C193.769 285.25 193.926 285.617 194.206 285.87C194.493 286.117 194.823 286.24 195.196 286.24C195.496 286.24 195.746 286.173 195.946 286.04C196.153 285.9 196.306 285.713 196.406 285.48H197.466C197.333 285.947 197.066 286.337 196.666 286.65C196.273 286.963 195.783 287.12 195.196 287.12ZM195.196 282.79C194.843 282.79 194.529 282.897 194.256 283.11C193.983 283.317 193.816 283.63 193.756 284.05H196.556C196.536 283.663 196.399 283.357 196.146 283.13C195.893 282.903 195.576 282.79 195.196 282.79Z" fill="#525252"/>
<path d="M144.71 318V311H145.77V317.16H148.95V318H144.71ZM152.006 318.12C151.533 318.12 151.106 318.013 150.726 317.8C150.353 317.58 150.056 317.277 149.836 316.89C149.616 316.497 149.506 316.04 149.506 315.52C149.506 315 149.616 314.547 149.836 314.16C150.063 313.767 150.366 313.463 150.746 313.25C151.126 313.03 151.549 312.92 152.016 312.92C152.489 312.92 152.913 313.03 153.286 313.25C153.666 313.463 153.966 313.767 154.186 314.16C154.413 314.547 154.526 315 154.526 315.52C154.526 316.04 154.413 316.497 154.186 316.89C153.966 317.277 153.666 317.58 153.286 317.8C152.906 318.013 152.479 318.12 152.006 318.12ZM152.006 317.21C152.259 317.21 152.493 317.147 152.706 317.02C152.926 316.893 153.103 316.707 153.236 316.46C153.369 316.207 153.436 315.893 153.436 315.52C153.436 315.147 153.369 314.837 153.236 314.59C153.109 314.337 152.936 314.147 152.716 314.02C152.503 313.893 152.269 313.83 152.016 313.83C151.763 313.83 151.526 313.893 151.306 314.02C151.093 314.147 150.919 314.337 150.786 314.59C150.653 314.837 150.586 315.147 150.586 315.52C150.586 315.893 150.653 316.207 150.786 316.46C150.919 316.707 151.093 316.893 151.306 317.02C151.519 317.147 151.753 317.21 152.006 317.21ZM157.352 318.12C156.752 318.12 156.279 317.933 155.932 317.56C155.592 317.187 155.422 316.63 155.422 315.89V313.04H156.482V315.78C156.482 316.74 156.876 317.22 157.662 317.22C158.056 317.22 158.379 317.08 158.632 316.8C158.886 316.52 159.012 316.12 159.012 315.6V313.04H160.072V318H159.132L159.052 317.13C158.899 317.437 158.672 317.68 158.372 317.86C158.079 318.033 157.739 318.12 157.352 318.12ZM161.871 312.1C161.671 312.1 161.504 312.04 161.371 311.92C161.244 311.793 161.181 311.637 161.181 311.45C161.181 311.263 161.244 311.11 161.371 310.99C161.504 310.863 161.671 310.8 161.871 310.8C162.071 310.8 162.234 310.863 162.361 310.99C162.494 311.11 162.561 311.263 162.561 311.45C162.561 311.637 162.494 311.793 162.361 311.92C162.234 312.04 162.071 312.1 161.871 312.1ZM161.341 318V313.04H162.401V318H161.341ZM165.63 318.12C165.003 318.12 164.487 317.967 164.08 317.66C163.673 317.353 163.44 316.947 163.38 316.44H164.45C164.503 316.667 164.63 316.863 164.83 317.03C165.03 317.19 165.293 317.27 165.62 317.27C165.94 317.27 166.173 317.203 166.32 317.07C166.467 316.937 166.54 316.783 166.54 316.61C166.54 316.357 166.437 316.187 166.23 316.1C166.03 316.007 165.75 315.923 165.39 315.85C165.11 315.79 164.83 315.71 164.55 315.61C164.277 315.51 164.047 315.37 163.86 315.19C163.68 315.003 163.59 314.753 163.59 314.44C163.59 314.007 163.757 313.647 164.09 313.36C164.423 313.067 164.89 312.92 165.49 312.92C166.043 312.92 166.49 313.053 166.83 313.32C167.177 313.587 167.38 313.963 167.44 314.45H166.42C166.387 314.237 166.287 314.07 166.12 313.95C165.96 313.83 165.743 313.77 165.47 313.77C165.203 313.77 164.997 313.827 164.85 313.94C164.703 314.047 164.63 314.187 164.63 314.36C164.63 314.533 164.73 314.67 164.93 314.77C165.137 314.87 165.407 314.96 165.74 315.04C166.073 315.113 166.38 315.2 166.66 315.3C166.947 315.393 167.177 315.533 167.35 315.72C167.523 315.907 167.61 316.18 167.61 316.54C167.617 316.993 167.44 317.37 167.08 317.67C166.727 317.97 166.243 318.12 165.63 318.12ZM171.027 318V311H175.477V311.86H172.087V314.04H175.177V314.88H172.087V317.14H175.477V318H171.027ZM176.55 318V313.04H177.49L177.57 313.91C177.723 313.603 177.946 313.363 178.24 313.19C178.54 313.01 178.883 312.92 179.27 312.92C179.87 312.92 180.34 313.107 180.68 313.48C181.026 313.853 181.2 314.41 181.2 315.15V318H180.15V315.26C180.15 314.3 179.756 313.82 178.97 313.82C178.576 313.82 178.25 313.96 177.99 314.24C177.736 314.52 177.61 314.92 177.61 315.44V318H176.55ZM184.378 318C183.891 318 183.505 317.883 183.218 317.65C182.931 317.41 182.788 316.987 182.788 316.38V313.93H181.938V313.04H182.788L182.918 311.78H183.848V313.04H185.248V313.93H183.848V316.38C183.848 316.653 183.905 316.843 184.018 316.95C184.138 317.05 184.341 317.1 184.628 317.1H185.198V318H184.378ZM188.384 318.12C187.897 318.12 187.464 318.013 187.084 317.8C186.711 317.58 186.417 317.277 186.204 316.89C185.991 316.503 185.884 316.053 185.884 315.54C185.884 315.02 185.987 314.563 186.194 314.17C186.407 313.777 186.701 313.47 187.074 313.25C187.454 313.03 187.894 312.92 188.394 312.92C188.881 312.92 189.304 313.03 189.664 313.25C190.024 313.463 190.304 313.75 190.504 314.11C190.704 314.47 190.804 314.867 190.804 315.3C190.804 315.367 190.801 315.44 190.794 315.52C190.794 315.593 190.791 315.677 190.784 315.77H186.924C186.957 316.25 187.114 316.617 187.394 316.87C187.681 317.117 188.011 317.24 188.384 317.24C188.684 317.24 188.934 317.173 189.134 317.04C189.341 316.9 189.494 316.713 189.594 316.48H190.654C190.521 316.947 190.254 317.337 189.854 317.65C189.461 317.963 188.971 318.12 188.384 318.12ZM188.384 313.79C188.031 313.79 187.717 313.897 187.444 314.11C187.171 314.317 187.004 314.63 186.944 315.05H189.744C189.724 314.663 189.587 314.357 189.334 314.13C189.081 313.903 188.764 313.79 188.384 313.79ZM191.754 318V313.04H192.704L192.794 313.98C192.967 313.653 193.207 313.397 193.514 313.21C193.827 313.017 194.204 312.92 194.644 312.92V314.03H194.354C194.061 314.03 193.797 314.08 193.564 314.18C193.337 314.273 193.154 314.437 193.014 314.67C192.881 314.897 192.814 315.213 192.814 315.62V318H191.754ZM195.403 320.2V313.04H196.353L196.463 313.81C196.623 313.577 196.843 313.37 197.123 313.19C197.403 313.01 197.763 312.92 198.203 312.92C198.683 312.92 199.106 313.033 199.473 313.26C199.839 313.487 200.126 313.797 200.333 314.19C200.546 314.583 200.653 315.03 200.653 315.53C200.653 316.03 200.546 316.477 200.333 316.87C200.126 317.257 199.839 317.563 199.473 317.79C199.106 318.01 198.679 318.12 198.193 318.12C197.806 318.12 197.463 318.043 197.163 317.89C196.869 317.737 196.636 317.52 196.463 317.24V320.2H195.403ZM198.013 317.2C198.466 317.2 198.839 317.047 199.133 316.74C199.426 316.427 199.573 316.02 199.573 315.52C199.573 315.193 199.506 314.903 199.373 314.65C199.239 314.397 199.056 314.2 198.823 314.06C198.589 313.913 198.319 313.84 198.013 313.84C197.559 313.84 197.186 313.997 196.893 314.31C196.606 314.623 196.463 315.027 196.463 315.52C196.463 316.02 196.606 316.427 196.893 316.74C197.186 317.047 197.559 317.2 198.013 317.2ZM201.649 318V313.04H202.599L202.689 313.98C202.863 313.653 203.103 313.397 203.409 313.21C203.723 313.017 204.099 312.92 204.539 312.92V314.03H204.249C203.956 314.03 203.693 314.08 203.459 314.18C203.233 314.273 203.049 314.437 202.909 314.67C202.776 314.897 202.709 315.213 202.709 315.62V318H201.649ZM205.898 312.1C205.698 312.1 205.531 312.04 205.398 311.92C205.271 311.793 205.208 311.637 205.208 311.45C205.208 311.263 205.271 311.11 205.398 310.99C205.531 310.863 205.698 310.8 205.898 310.8C206.098 310.8 206.261 310.863 206.388 310.99C206.521 311.11 206.588 311.263 206.588 311.45C206.588 311.637 206.521 311.793 206.388 311.92C206.261 312.04 206.098 312.1 205.898 312.1ZM205.368 318V313.04H206.428V318H205.368ZM210.027 318.12C209.541 318.12 209.104 318.01 208.717 317.79C208.337 317.57 208.037 317.267 207.817 316.88C207.604 316.487 207.497 316.033 207.497 315.52C207.497 315.007 207.604 314.557 207.817 314.17C208.037 313.777 208.337 313.47 208.717 313.25C209.104 313.03 209.541 312.92 210.027 312.92C210.641 312.92 211.154 313.08 211.567 313.4C211.987 313.72 212.257 314.153 212.377 314.7H211.267C211.201 314.427 211.054 314.213 210.827 314.06C210.601 313.907 210.334 313.83 210.027 313.83C209.767 313.83 209.527 313.897 209.307 314.03C209.087 314.157 208.911 314.347 208.777 314.6C208.644 314.847 208.577 315.153 208.577 315.52C208.577 315.887 208.644 316.197 208.777 316.45C208.911 316.697 209.087 316.887 209.307 317.02C209.527 317.153 209.767 317.22 210.027 317.22C210.334 317.22 210.601 317.143 210.827 316.99C211.054 316.837 211.201 316.62 211.267 316.34H212.377C212.264 316.873 211.997 317.303 211.577 317.63C211.157 317.957 210.641 318.12 210.027 318.12ZM215.697 318.12C215.21 318.12 214.777 318.013 214.397 317.8C214.024 317.58 213.73 317.277 213.517 316.89C213.304 316.503 213.197 316.053 213.197 315.54C213.197 315.02 213.3 314.563 213.507 314.17C213.72 313.777 214.014 313.47 214.387 313.25C214.767 313.03 215.207 312.92 215.707 312.92C216.194 312.92 216.617 313.03 216.977 313.25C217.337 313.463 217.617 313.75 217.817 314.11C218.017 314.47 218.117 314.867 218.117 315.3C218.117 315.367 218.114 315.44 218.107 315.52C218.107 315.593 218.104 315.677 218.097 315.77H214.237C214.27 316.25 214.427 316.617 214.707 316.87C214.994 317.117 215.324 317.24 215.697 317.24C215.997 317.24 216.247 317.173 216.447 317.04C216.654 316.9 216.807 316.713 216.907 316.48H217.967C217.834 316.947 217.567 317.337 217.167 317.65C216.774 317.963 216.284 318.12 215.697 318.12ZM215.697 313.79C215.344 313.79 215.03 313.897 214.757 314.11C214.484 314.317 214.317 314.63 214.257 315.05H217.057C217.037 314.663 216.9 314.357 216.647 314.13C216.394 313.903 216.077 313.79 215.697 313.79Z" fill="#525252"/>
<rect x="127.5" y="296.5" width="365" height="37" rx="4.5" stroke="#E7E7E7"/>
<path d="M128.26 356L130.84 349H132L134.56 356H133.44L132.84 354.29H129.98L129.38 356H128.26ZM130.28 353.45H132.54L131.41 350.26L130.28 353.45ZM135.346 356V351.04H136.286L136.376 351.74C136.536 351.487 136.746 351.287 137.006 351.14C137.273 350.993 137.58 350.92 137.926 350.92C138.713 350.92 139.26 351.23 139.566 351.85C139.746 351.563 139.986 351.337 140.286 351.17C140.593 351.003 140.923 350.92 141.276 350.92C141.896 350.92 142.383 351.107 142.736 351.48C143.09 351.853 143.266 352.41 143.266 353.15V356H142.206V353.26C142.206 352.3 141.84 351.82 141.106 351.82C140.733 351.82 140.426 351.96 140.186 352.24C139.953 352.52 139.836 352.92 139.836 353.44V356H138.776V353.26C138.776 352.3 138.406 351.82 137.666 351.82C137.3 351.82 136.996 351.96 136.756 352.24C136.523 352.52 136.406 352.92 136.406 353.44V356H135.346ZM146.676 356.12C146.203 356.12 145.776 356.013 145.396 355.8C145.023 355.58 144.726 355.277 144.506 354.89C144.286 354.497 144.176 354.04 144.176 353.52C144.176 353 144.286 352.547 144.506 352.16C144.733 351.767 145.036 351.463 145.416 351.25C145.796 351.03 146.22 350.92 146.686 350.92C147.16 350.92 147.583 351.03 147.956 351.25C148.336 351.463 148.636 351.767 148.856 352.16C149.083 352.547 149.196 353 149.196 353.52C149.196 354.04 149.083 354.497 148.856 354.89C148.636 355.277 148.336 355.58 147.956 355.8C147.576 356.013 147.15 356.12 146.676 356.12ZM146.676 355.21C146.93 355.21 147.163 355.147 147.376 355.02C147.596 354.893 147.773 354.707 147.906 354.46C148.04 354.207 148.106 353.893 148.106 353.52C148.106 353.147 148.04 352.837 147.906 352.59C147.78 352.337 147.606 352.147 147.386 352.02C147.173 351.893 146.94 351.83 146.686 351.83C146.433 351.83 146.196 351.893 145.976 352.02C145.763 352.147 145.59 352.337 145.456 352.59C145.323 352.837 145.256 353.147 145.256 353.52C145.256 353.893 145.323 354.207 145.456 354.46C145.59 354.707 145.763 354.893 145.976 355.02C146.19 355.147 146.423 355.21 146.676 355.21ZM152.023 356.12C151.423 356.12 150.949 355.933 150.603 355.56C150.263 355.187 150.093 354.63 150.093 353.89V351.04H151.153V353.78C151.153 354.74 151.546 355.22 152.333 355.22C152.726 355.22 153.049 355.08 153.303 354.8C153.556 354.52 153.683 354.12 153.683 353.6V351.04H154.743V356H153.803L153.723 355.13C153.569 355.437 153.343 355.68 153.043 355.86C152.749 356.033 152.409 356.12 152.023 356.12ZM155.941 356V351.04H156.881L156.961 351.91C157.114 351.603 157.338 351.363 157.631 351.19C157.931 351.01 158.274 350.92 158.661 350.92C159.261 350.92 159.731 351.107 160.071 351.48C160.418 351.853 160.591 352.41 160.591 353.15V356H159.541V353.26C159.541 352.3 159.148 351.82 158.361 351.82C157.968 351.82 157.641 351.96 157.381 352.24C157.128 352.52 157.001 352.92 157.001 353.44V356H155.941ZM163.77 356C163.283 356 162.896 355.883 162.61 355.65C162.323 355.41 162.18 354.987 162.18 354.38V351.93H161.33V351.04H162.18L162.31 349.78H163.24V351.04H164.64V351.93H163.24V354.38C163.24 354.653 163.296 354.843 163.41 354.95C163.53 355.05 163.733 355.1 164.02 355.1H164.59V356H163.77Z" fill="#525252"/>
<path d="M147.9 387V385.6H144.39V384.76L147.73 380H148.95V384.68H149.93V385.6H148.95V387H147.9ZM145.54 384.68H147.96V381.17L145.54 384.68ZM150.65 387V386.24C151.104 385.88 151.537 385.517 151.95 385.15C152.364 384.783 152.73 384.423 153.05 384.07C153.377 383.71 153.634 383.36 153.82 383.02C154.007 382.673 154.1 382.34 154.1 382.02C154.1 381.807 154.064 381.607 153.99 381.42C153.917 381.227 153.797 381.073 153.63 380.96C153.464 380.84 153.24 380.78 152.96 380.78C152.54 380.78 152.224 380.913 152.01 381.18C151.804 381.447 151.704 381.767 151.71 382.14H150.68C150.687 381.647 150.79 381.233 150.99 380.9C151.197 380.567 151.47 380.313 151.81 380.14C152.157 379.967 152.547 379.88 152.98 379.88C153.64 379.88 154.167 380.067 154.56 380.44C154.96 380.807 155.16 381.32 155.16 381.98C155.16 382.373 155.064 382.763 154.87 383.15C154.684 383.537 154.437 383.91 154.13 384.27C153.83 384.623 153.507 384.957 153.16 385.27C152.814 385.583 152.484 385.867 152.17 386.12H155.37V387H150.65ZM155.733 388.18L156.313 385.82H157.363L156.443 388.18H155.733ZM158.114 387V386.24C158.567 385.88 159.001 385.517 159.414 385.15C159.827 384.783 160.194 384.423 160.514 384.07C160.841 383.71 161.097 383.36 161.284 383.02C161.471 382.673 161.564 382.34 161.564 382.02C161.564 381.807 161.527 381.607 161.454 381.42C161.381 381.227 161.261 381.073 161.094 380.96C160.927 380.84 160.704 380.78 160.424 380.78C160.004 380.78 159.687 380.913 159.474 381.18C159.267 381.447 159.167 381.767 159.174 382.14H158.144C158.151 381.647 158.254 381.233 158.454 380.9C158.661 380.567 158.934 380.313 159.274 380.14C159.621 379.967 160.011 379.88 160.444 379.88C161.104 379.88 161.631 380.067 162.024 380.44C162.424 380.807 162.624 381.32 162.624 381.98C162.624 382.373 162.527 382.763 162.334 383.15C162.147 383.537 161.901 383.91 161.594 384.27C161.294 384.623 160.971 384.957 160.624 385.27C160.277 385.583 159.947 385.867 159.634 386.12H162.834V387H158.114ZM166.267 387.12C165.773 387.12 165.347 387.033 164.987 386.86C164.627 386.68 164.34 386.437 164.127 386.13C163.92 385.817 163.793 385.463 163.747 385.07H164.787C164.853 385.403 165.02 385.68 165.287 385.9C165.553 386.113 165.883 386.22 166.277 386.22C166.57 386.22 166.823 386.15 167.037 386.01C167.25 385.863 167.417 385.67 167.537 385.43C167.657 385.19 167.717 384.92 167.717 384.62C167.717 384.147 167.583 383.77 167.317 383.49C167.05 383.203 166.713 383.06 166.307 383.06C165.96 383.06 165.663 383.143 165.417 383.31C165.17 383.47 164.99 383.673 164.877 383.92H163.867L164.467 380H168.247V380.93H165.267L164.907 382.8C165.06 382.627 165.27 382.483 165.537 382.37C165.81 382.25 166.117 382.19 166.457 382.19C166.93 382.19 167.337 382.3 167.677 382.52C168.017 382.733 168.277 383.023 168.457 383.39C168.643 383.757 168.737 384.163 168.737 384.61C168.737 385.077 168.637 385.5 168.437 385.88C168.237 386.26 167.95 386.563 167.577 386.79C167.21 387.01 166.773 387.12 166.267 387.12ZM172.639 387.12C172.006 387.12 171.459 386.97 170.999 386.67C170.546 386.363 170.196 385.94 169.949 385.4C169.709 384.853 169.589 384.22 169.589 383.5C169.589 382.78 169.709 382.15 169.949 381.61C170.196 381.063 170.546 380.64 170.999 380.34C171.459 380.033 172.006 379.88 172.639 379.88C173.272 379.88 173.816 380.033 174.269 380.34C174.722 380.64 175.069 381.063 175.309 381.61C175.556 382.15 175.679 382.78 175.679 383.5C175.679 384.22 175.556 384.853 175.309 385.4C175.069 385.94 174.722 386.363 174.269 386.67C173.816 386.97 173.272 387.12 172.639 387.12ZM172.639 386.17C173.019 386.17 173.356 386.063 173.649 385.85C173.949 385.637 174.182 385.33 174.349 384.93C174.516 384.53 174.599 384.053 174.599 383.5C174.599 382.947 174.516 382.47 174.349 382.07C174.182 381.67 173.949 381.363 173.649 381.15C173.356 380.937 173.019 380.83 172.639 380.83C172.252 380.83 171.912 380.937 171.619 381.15C171.326 381.363 171.096 381.67 170.929 382.07C170.762 382.47 170.679 382.947 170.679 383.5C170.679 384.053 170.762 384.53 170.929 384.93C171.096 385.33 171.326 385.637 171.619 385.85C171.912 386.063 172.252 386.17 172.639 386.17ZM176.69 387.06C176.49 387.06 176.323 386.997 176.19 386.87C176.063 386.737 176 386.58 176 386.4C176 386.213 176.063 386.057 176.19 385.93C176.323 385.797 176.49 385.73 176.69 385.73C176.89 385.73 177.053 385.797 177.18 385.93C177.307 386.057 177.37 386.213 177.37 386.4C177.37 386.58 177.307 386.737 177.18 386.87C177.053 386.997 176.89 387.06 176.69 387.06ZM180.728 387.12C180.094 387.12 179.548 386.97 179.088 386.67C178.634 386.363 178.284 385.94 178.038 385.4C177.798 384.853 177.678 384.22 177.678 383.5C177.678 382.78 177.798 382.15 178.038 381.61C178.284 381.063 178.634 380.64 179.088 380.34C179.548 380.033 180.094 379.88 180.728 379.88C181.361 379.88 181.904 380.033 182.358 380.34C182.811 380.64 183.158 381.063 183.398 381.61C183.644 382.15 183.768 382.78 183.768 383.5C183.768 384.22 183.644 384.853 183.398 385.4C183.158 385.94 182.811 386.363 182.358 386.67C181.904 386.97 181.361 387.12 180.728 387.12ZM180.728 386.17C181.108 386.17 181.444 386.063 181.738 385.85C182.038 385.637 182.271 385.33 182.438 384.93C182.604 384.53 182.688 384.053 182.688 383.5C182.688 382.947 182.604 382.47 182.438 382.07C182.271 381.67 182.038 381.363 181.738 381.15C181.444 380.937 181.108 380.83 180.728 380.83C180.341 380.83 180.001 380.937 179.708 381.15C179.414 381.363 179.184 381.67 179.018 382.07C178.851 382.47 178.768 382.947 178.768 383.5C178.768 384.053 178.851 384.53 179.018 384.93C179.184 385.33 179.414 385.637 179.708 385.85C180.001 386.063 180.341 386.17 180.728 386.17ZM187.599 387.12C186.966 387.12 186.419 386.97 185.959 386.67C185.506 386.363 185.156 385.94 184.909 385.4C184.669 384.853 184.549 384.22 184.549 383.5C184.549 382.78 184.669 382.15 184.909 381.61C185.156 381.063 185.506 380.64 185.959 380.34C186.419 380.033 186.966 379.88 187.599 379.88C188.232 379.88 188.776 380.033 189.229 380.34C189.682 380.64 190.029 381.063 190.269 381.61C190.516 382.15 190.639 382.78 190.639 383.5C190.639 384.22 190.516 384.853 190.269 385.4C190.029 385.94 189.682 386.363 189.229 386.67C188.776 386.97 188.232 387.12 187.599 387.12ZM187.599 386.17C187.979 386.17 188.316 386.063 188.609 385.85C188.909 385.637 189.142 385.33 189.309 384.93C189.476 384.53 189.559 384.053 189.559 383.5C189.559 382.947 189.476 382.47 189.309 382.07C189.142 381.67 188.909 381.363 188.609 381.15C188.316 380.937 187.979 380.83 187.599 380.83C187.212 380.83 186.872 380.937 186.579 381.15C186.286 381.363 186.056 381.67 185.889 382.07C185.722 382.47 185.639 382.947 185.639 383.5C185.639 384.053 185.722 384.53 185.889 384.93C186.056 385.33 186.286 385.637 186.579 385.85C186.872 386.063 187.212 386.17 187.599 386.17Z" fill="#1E1E1E"/>
<rect x="127.5" y="365.5" width="365" height="37" rx="4.5" stroke="#E7E7E7"/>
<rect x="128" y="415" width="364" height="45" rx="22.5" fill="#192CD1"/>
<path d="M283.494 442.5V432.7H286.924C287.689 432.7 288.324 432.831 288.828 433.092C289.332 433.344 289.705 433.694 289.948 434.142C290.2 434.581 290.326 435.08 290.326 435.64C290.326 436.172 290.205 436.662 289.962 437.11C289.729 437.549 289.36 437.899 288.856 438.16C288.352 438.421 287.708 438.552 286.924 438.552H284.978V442.5H283.494ZM284.978 437.334H286.854C287.554 437.334 288.053 437.185 288.352 436.886C288.66 436.578 288.814 436.163 288.814 435.64C288.814 435.099 288.66 434.679 288.352 434.38C288.053 434.072 287.554 433.918 286.854 433.918H284.978V437.334ZM291.527 442.5V435.556H292.857L292.983 436.872C293.225 436.415 293.561 436.055 293.991 435.794C294.429 435.523 294.957 435.388 295.573 435.388V436.942H295.167C294.756 436.942 294.387 437.012 294.061 437.152C293.743 437.283 293.487 437.511 293.291 437.838C293.104 438.155 293.011 438.599 293.011 439.168V442.5H291.527ZM299.692 442.668C299.029 442.668 298.432 442.519 297.9 442.22C297.377 441.912 296.962 441.487 296.654 440.946C296.346 440.395 296.192 439.756 296.192 439.028C296.192 438.3 296.346 437.665 296.654 437.124C296.971 436.573 297.396 436.149 297.928 435.85C298.46 435.542 299.052 435.388 299.706 435.388C300.368 435.388 300.961 435.542 301.484 435.85C302.016 436.149 302.436 436.573 302.744 437.124C303.061 437.665 303.22 438.3 303.22 439.028C303.22 439.756 303.061 440.395 302.744 440.946C302.436 441.487 302.016 441.912 301.484 442.22C300.952 442.519 300.354 442.668 299.692 442.668ZM299.692 441.394C300.046 441.394 300.373 441.305 300.672 441.128C300.98 440.951 301.227 440.689 301.414 440.344C301.6 439.989 301.694 439.551 301.694 439.028C301.694 438.505 301.6 438.071 301.414 437.726C301.236 437.371 300.994 437.105 300.686 436.928C300.387 436.751 300.06 436.662 299.706 436.662C299.351 436.662 299.02 436.751 298.712 436.928C298.413 437.105 298.17 437.371 297.984 437.726C297.797 438.071 297.704 438.505 297.704 439.028C297.704 439.551 297.797 439.989 297.984 440.344C298.17 440.689 298.413 440.951 298.712 441.128C299.01 441.305 299.337 441.394 299.692 441.394ZM307.905 442.668C307.223 442.668 306.612 442.514 306.071 442.206C305.539 441.898 305.119 441.473 304.811 440.932C304.512 440.381 304.363 439.747 304.363 439.028C304.363 438.309 304.512 437.679 304.811 437.138C305.119 436.587 305.539 436.158 306.071 435.85C306.612 435.542 307.223 435.388 307.905 435.388C308.763 435.388 309.482 435.612 310.061 436.06C310.649 436.508 311.027 437.115 311.195 437.88H309.641C309.547 437.497 309.342 437.199 309.025 436.984C308.707 436.769 308.334 436.662 307.905 436.662C307.541 436.662 307.205 436.755 306.897 436.942C306.589 437.119 306.341 437.385 306.155 437.74C305.968 438.085 305.875 438.515 305.875 439.028C305.875 439.541 305.968 439.975 306.155 440.33C306.341 440.675 306.589 440.941 306.897 441.128C307.205 441.315 307.541 441.408 307.905 441.408C308.334 441.408 308.707 441.301 309.025 441.086C309.342 440.871 309.547 440.568 309.641 440.176H311.195C311.036 440.923 310.663 441.525 310.075 441.982C309.487 442.439 308.763 442.668 307.905 442.668ZM315.842 442.668C315.161 442.668 314.554 442.519 314.022 442.22C313.499 441.912 313.089 441.487 312.79 440.946C312.491 440.405 312.342 439.775 312.342 439.056C312.342 438.328 312.487 437.689 312.776 437.138C313.075 436.587 313.485 436.158 314.008 435.85C314.54 435.542 315.156 435.388 315.856 435.388C316.537 435.388 317.13 435.542 317.634 435.85C318.138 436.149 318.53 436.55 318.81 437.054C319.09 437.558 319.23 438.113 319.23 438.72C319.23 438.813 319.225 438.916 319.216 439.028C319.216 439.131 319.211 439.247 319.202 439.378H313.798C313.845 440.05 314.064 440.563 314.456 440.918C314.857 441.263 315.319 441.436 315.842 441.436C316.262 441.436 316.612 441.343 316.892 441.156C317.181 440.96 317.396 440.699 317.536 440.372H319.02C318.833 441.025 318.46 441.571 317.9 442.01C317.349 442.449 316.663 442.668 315.842 442.668ZM315.842 436.606C315.347 436.606 314.909 436.755 314.526 437.054C314.143 437.343 313.91 437.782 313.826 438.37H317.746C317.718 437.829 317.527 437.399 317.172 437.082C316.817 436.765 316.374 436.606 315.842 436.606ZM323.808 442.668C323.127 442.668 322.52 442.519 321.988 442.22C321.465 441.912 321.055 441.487 320.756 440.946C320.457 440.405 320.308 439.775 320.308 439.056C320.308 438.328 320.453 437.689 320.742 437.138C321.041 436.587 321.451 436.158 321.974 435.85C322.506 435.542 323.122 435.388 323.822 435.388C324.503 435.388 325.096 435.542 325.6 435.85C326.104 436.149 326.496 436.55 326.776 437.054C327.056 437.558 327.196 438.113 327.196 438.72C327.196 438.813 327.191 438.916 327.182 439.028C327.182 439.131 327.177 439.247 327.168 439.378H321.764C321.811 440.05 322.03 440.563 322.422 440.918C322.823 441.263 323.285 441.436 323.808 441.436C324.228 441.436 324.578 441.343 324.858 441.156C325.147 440.96 325.362 440.699 325.502 440.372H326.986C326.799 441.025 326.426 441.571 325.866 442.01C325.315 442.449 324.629 442.668 323.808 442.668ZM323.808 436.606C323.313 436.606 322.875 436.755 322.492 437.054C322.109 437.343 321.876 437.782 321.792 438.37H325.712C325.684 437.829 325.493 437.399 325.138 437.082C324.783 436.765 324.34 436.606 323.808 436.606ZM331.69 442.668C331.018 442.668 330.425 442.509 329.912 442.192C329.398 441.875 328.997 441.441 328.708 440.89C328.418 440.339 328.274 439.714 328.274 439.014C328.274 438.314 328.418 437.693 328.708 437.152C328.997 436.601 329.398 436.172 329.912 435.864C330.434 435.547 331.032 435.388 331.704 435.388C332.254 435.388 332.735 435.495 333.146 435.71C333.566 435.925 333.892 436.228 334.126 436.62V432.42H335.61V442.5H334.28L334.126 441.422C333.902 441.749 333.594 442.038 333.202 442.29C332.81 442.542 332.306 442.668 331.69 442.668ZM331.956 441.38C332.59 441.38 333.108 441.161 333.51 440.722C333.92 440.283 334.126 439.719 334.126 439.028C334.126 438.328 333.92 437.763 333.51 437.334C333.108 436.895 332.59 436.676 331.956 436.676C331.321 436.676 330.798 436.895 330.388 437.334C329.977 437.763 329.772 438.328 329.772 439.028C329.772 439.485 329.865 439.891 330.052 440.246C330.238 440.601 330.495 440.881 330.822 441.086C331.158 441.282 331.536 441.38 331.956 441.38Z" fill="#FBFBFB"/>
</svg>
