<svg width="620" height="621" viewBox="0 0 620 621" fill="none" xmlns="http://www.w3.org/2000/svg">
<rect y="0.5" width="620" height="620" rx="8" fill="#E7EBFF"/>
<rect x="100" y="64.5" width="420" height="492" rx="8" fill="#FBFBFB"/>
<path d="M129.632 129.5V112.7H136.376C138.12 112.7 139.448 113.108 140.36 113.924C141.288 114.724 141.752 115.756 141.752 117.02C141.752 118.076 141.464 118.924 140.888 119.564C140.328 120.188 139.64 120.612 138.824 120.836C139.784 121.028 140.576 121.508 141.2 122.276C141.824 123.028 142.136 123.908 142.136 124.916C142.136 126.244 141.656 127.34 140.696 128.204C139.736 129.068 138.376 129.5 136.616 129.5H129.632ZM132.704 119.756H135.92C136.784 119.756 137.448 119.556 137.912 119.156C138.376 118.756 138.608 118.188 138.608 117.452C138.608 116.748 138.376 116.196 137.912 115.796C137.464 115.38 136.784 115.172 135.872 115.172H132.704V119.756ZM132.704 127.004H136.136C137.048 127.004 137.752 126.796 138.248 126.38C138.76 125.948 139.016 125.348 139.016 124.58C139.016 123.796 138.752 123.18 138.224 122.732C137.696 122.284 136.984 122.06 136.088 122.06H132.704V127.004ZM148.805 129.788C147.317 129.788 146.165 129.324 145.349 128.396C144.549 127.468 144.149 126.108 144.149 124.316V117.596H147.197V124.028C147.197 125.052 147.405 125.836 147.821 126.38C148.237 126.924 148.893 127.196 149.789 127.196C150.637 127.196 151.333 126.892 151.877 126.284C152.437 125.676 152.717 124.828 152.717 123.74V117.596H155.789V129.5H153.077L152.837 127.484C152.469 128.188 151.933 128.748 151.229 129.164C150.541 129.58 149.733 129.788 148.805 129.788ZM158.582 129.5V112.22H161.654V129.5H158.582ZM164.433 129.5V112.22H167.505V122.42L171.729 117.596H175.377L170.505 123.02L176.169 129.5H172.329L167.505 123.524V129.5H164.433ZM187.057 129.5V115.172H182.161V112.7H195.049V115.172H190.129V129.5H187.057ZM195.72 129.5V117.596H198.456L198.744 119.828C199.176 119.06 199.76 118.452 200.496 118.004C201.248 117.54 202.128 117.308 203.136 117.308V120.548H202.272C201.6 120.548 201 120.652 200.472 120.86C199.944 121.068 199.528 121.428 199.224 121.94C198.936 122.452 198.792 123.164 198.792 124.076V129.5H195.72ZM208.98 129.788C207.956 129.788 207.116 129.628 206.46 129.308C205.804 128.972 205.316 128.532 204.996 127.988C204.676 127.444 204.516 126.844 204.516 126.188C204.516 125.084 204.948 124.188 205.812 123.5C206.676 122.812 207.972 122.468 209.7 122.468H212.724V122.18C212.724 121.364 212.492 120.764 212.028 120.38C211.564 119.996 210.988 119.804 210.3 119.804C209.676 119.804 209.132 119.956 208.668 120.26C208.204 120.548 207.916 120.98 207.804 121.556H204.804C204.884 120.692 205.172 119.94 205.668 119.3C206.18 118.66 206.836 118.172 207.636 117.836C208.436 117.484 209.332 117.308 210.324 117.308C212.02 117.308 213.356 117.732 214.332 118.58C215.308 119.428 215.796 120.628 215.796 122.18V129.5H213.18L212.892 127.58C212.54 128.22 212.044 128.748 211.404 129.164C210.78 129.58 209.972 129.788 208.98 129.788ZM209.676 127.388C210.556 127.388 211.236 127.1 211.716 126.524C212.212 125.948 212.524 125.236 212.652 124.388H210.036C209.22 124.388 208.636 124.54 208.284 124.844C207.932 125.132 207.756 125.492 207.756 125.924C207.756 126.388 207.932 126.748 208.284 127.004C208.636 127.26 209.1 127.388 209.676 127.388ZM218.368 129.5V117.596H221.08L221.32 119.612C221.688 118.908 222.216 118.348 222.904 117.932C223.608 117.516 224.432 117.308 225.376 117.308C226.848 117.308 227.992 117.772 228.808 118.7C229.624 119.628 230.032 120.988 230.032 122.78V129.5H226.96V123.068C226.96 122.044 226.752 121.26 226.336 120.716C225.92 120.172 225.272 119.9 224.392 119.9C223.528 119.9 222.816 120.204 222.256 120.812C221.712 121.42 221.44 122.268 221.44 123.356V129.5H218.368ZM237.529 129.788C236.473 129.788 235.545 129.62 234.745 129.284C233.945 128.932 233.305 128.452 232.825 127.844C232.345 127.236 232.057 126.532 231.961 125.732H235.057C235.153 126.196 235.409 126.596 235.825 126.932C236.257 127.252 236.809 127.412 237.481 127.412C238.153 127.412 238.641 127.276 238.945 127.004C239.265 126.732 239.425 126.42 239.425 126.068C239.425 125.556 239.201 125.212 238.753 125.036C238.305 124.844 237.681 124.66 236.881 124.484C236.369 124.372 235.849 124.236 235.321 124.076C234.793 123.916 234.305 123.716 233.857 123.476C233.425 123.22 233.073 122.9 232.801 122.516C232.529 122.116 232.393 121.628 232.393 121.052C232.393 119.996 232.809 119.108 233.641 118.388C234.489 117.668 235.673 117.308 237.193 117.308C238.601 117.308 239.721 117.636 240.553 118.292C241.401 118.948 241.905 119.852 242.065 121.004H239.161C238.985 120.124 238.321 119.684 237.169 119.684C236.593 119.684 236.145 119.796 235.825 120.02C235.521 120.244 235.369 120.524 235.369 120.86C235.369 121.212 235.601 121.492 236.065 121.7C236.529 121.908 237.145 122.1 237.913 122.276C238.745 122.468 239.505 122.684 240.193 122.924C240.897 123.148 241.457 123.492 241.873 123.956C242.289 124.404 242.497 125.052 242.497 125.9C242.513 126.636 242.321 127.3 241.921 127.892C241.521 128.484 240.945 128.948 240.193 129.284C239.441 129.62 238.553 129.788 237.529 129.788ZM245.41 129.5V120.164H243.778V117.596H245.41V116.204C245.41 114.764 245.77 113.74 246.49 113.132C247.226 112.524 248.218 112.22 249.466 112.22H250.786V114.836H249.946C249.418 114.836 249.042 114.94 248.818 115.148C248.594 115.356 248.482 115.708 248.482 116.204V117.596H251.05V120.164H248.482V129.5H245.41ZM258.439 129.788C257.239 129.788 256.175 129.532 255.247 129.02C254.319 128.508 253.591 127.788 253.063 126.86C252.535 125.932 252.271 124.86 252.271 123.644C252.271 122.412 252.527 121.316 253.039 120.356C253.567 119.396 254.287 118.652 255.199 118.124C256.127 117.58 257.215 117.308 258.463 117.308C259.631 117.308 260.663 117.564 261.559 118.076C262.455 118.588 263.151 119.292 263.647 120.188C264.159 121.068 264.415 122.052 264.415 123.14C264.415 123.316 264.407 123.5 264.391 123.692C264.391 123.884 264.383 124.084 264.367 124.292H255.319C255.383 125.22 255.703 125.948 256.279 126.476C256.871 127.004 257.583 127.268 258.415 127.268C259.039 127.268 259.559 127.132 259.975 126.86C260.407 126.572 260.727 126.204 260.935 125.756H264.055C263.831 126.508 263.455 127.196 262.927 127.82C262.415 128.428 261.775 128.908 261.007 129.26C260.255 129.612 259.399 129.788 258.439 129.788ZM258.463 119.804C257.711 119.804 257.047 120.02 256.471 120.452C255.895 120.868 255.527 121.508 255.367 122.372H261.295C261.247 121.588 260.959 120.964 260.431 120.5C259.903 120.036 259.247 119.804 258.463 119.804ZM266.638 129.5V117.596H269.374L269.662 119.828C270.094 119.06 270.678 118.452 271.414 118.004C272.166 117.54 273.046 117.308 274.054 117.308V120.548H273.19C272.518 120.548 271.918 120.652 271.39 120.86C270.862 121.068 270.446 121.428 270.142 121.94C269.854 122.452 269.71 123.164 269.71 124.076V129.5H266.638Z" fill="#1E1E1E"/>
<path d="M128.26 166.5L130.84 159.5H132L134.56 166.5H133.44L132.84 164.79H129.98L129.38 166.5H128.26ZM130.28 163.95H132.54L131.41 160.76L130.28 163.95ZM137.442 166.62C136.956 166.62 136.519 166.51 136.132 166.29C135.752 166.07 135.452 165.767 135.232 165.38C135.019 164.987 134.912 164.533 134.912 164.02C134.912 163.507 135.019 163.057 135.232 162.67C135.452 162.277 135.752 161.97 136.132 161.75C136.519 161.53 136.956 161.42 137.442 161.42C138.056 161.42 138.569 161.58 138.982 161.9C139.402 162.22 139.672 162.653 139.792 163.2H138.682C138.616 162.927 138.469 162.713 138.242 162.56C138.016 162.407 137.749 162.33 137.442 162.33C137.182 162.33 136.942 162.397 136.722 162.53C136.502 162.657 136.326 162.847 136.192 163.1C136.059 163.347 135.992 163.653 135.992 164.02C135.992 164.387 136.059 164.697 136.192 164.95C136.326 165.197 136.502 165.387 136.722 165.52C136.942 165.653 137.182 165.72 137.442 165.72C137.749 165.72 138.016 165.643 138.242 165.49C138.469 165.337 138.616 165.12 138.682 164.84H139.792C139.679 165.373 139.412 165.803 138.992 166.13C138.572 166.457 138.056 166.62 137.442 166.62ZM143.142 166.62C142.655 166.62 142.219 166.51 141.832 166.29C141.452 166.07 141.152 165.767 140.932 165.38C140.719 164.987 140.612 164.533 140.612 164.02C140.612 163.507 140.719 163.057 140.932 162.67C141.152 162.277 141.452 161.97 141.832 161.75C142.219 161.53 142.655 161.42 143.142 161.42C143.755 161.42 144.269 161.58 144.682 161.9C145.102 162.22 145.372 162.653 145.492 163.2H144.382C144.315 162.927 144.169 162.713 143.942 162.56C143.715 162.407 143.449 162.33 143.142 162.33C142.882 162.33 142.642 162.397 142.422 162.53C142.202 162.657 142.025 162.847 141.892 163.1C141.759 163.347 141.692 163.653 141.692 164.02C141.692 164.387 141.759 164.697 141.892 164.95C142.025 165.197 142.202 165.387 142.422 165.52C142.642 165.653 142.882 165.72 143.142 165.72C143.449 165.72 143.715 165.643 143.942 165.49C144.169 165.337 144.315 165.12 144.382 164.84H145.492C145.379 165.373 145.112 165.803 144.692 166.13C144.272 166.457 143.755 166.62 143.142 166.62ZM148.811 166.62C148.338 166.62 147.911 166.513 147.531 166.3C147.158 166.08 146.861 165.777 146.641 165.39C146.421 164.997 146.311 164.54 146.311 164.02C146.311 163.5 146.421 163.047 146.641 162.66C146.868 162.267 147.171 161.963 147.551 161.75C147.931 161.53 148.355 161.42 148.821 161.42C149.295 161.42 149.718 161.53 150.091 161.75C150.471 161.963 150.771 162.267 150.991 162.66C151.218 163.047 151.331 163.5 151.331 164.02C151.331 164.54 151.218 164.997 150.991 165.39C150.771 165.777 150.471 166.08 150.091 166.3C149.711 166.513 149.285 166.62 148.811 166.62ZM148.811 165.71C149.065 165.71 149.298 165.647 149.511 165.52C149.731 165.393 149.908 165.207 150.041 164.96C150.175 164.707 150.241 164.393 150.241 164.02C150.241 163.647 150.175 163.337 150.041 163.09C149.915 162.837 149.741 162.647 149.521 162.52C149.308 162.393 149.075 162.33 148.821 162.33C148.568 162.33 148.331 162.393 148.111 162.52C147.898 162.647 147.725 162.837 147.591 163.09C147.458 163.337 147.391 163.647 147.391 164.02C147.391 164.393 147.458 164.707 147.591 164.96C147.725 165.207 147.898 165.393 148.111 165.52C148.325 165.647 148.558 165.71 148.811 165.71ZM154.158 166.62C153.558 166.62 153.084 166.433 152.738 166.06C152.398 165.687 152.228 165.13 152.228 164.39V161.54H153.288V164.28C153.288 165.24 153.681 165.72 154.468 165.72C154.861 165.72 155.184 165.58 155.438 165.3C155.691 165.02 155.818 164.62 155.818 164.1V161.54H156.878V166.5H155.938L155.858 165.63C155.704 165.937 155.478 166.18 155.178 166.36C154.884 166.533 154.544 166.62 154.158 166.62ZM158.076 166.5V161.54H159.016L159.096 162.41C159.25 162.103 159.473 161.863 159.766 161.69C160.066 161.51 160.41 161.42 160.796 161.42C161.396 161.42 161.866 161.607 162.206 161.98C162.553 162.353 162.726 162.91 162.726 163.65V166.5H161.676V163.76C161.676 162.8 161.283 162.32 160.496 162.32C160.103 162.32 159.776 162.46 159.516 162.74C159.263 163.02 159.136 163.42 159.136 163.94V166.5H158.076ZM165.905 166.5C165.418 166.5 165.031 166.383 164.745 166.15C164.458 165.91 164.315 165.487 164.315 164.88V162.43H163.465V161.54H164.315L164.445 160.28H165.375V161.54H166.775V162.43H165.375V164.88C165.375 165.153 165.431 165.343 165.545 165.45C165.665 165.55 165.868 165.6 166.155 165.6H166.725V166.5H165.905ZM170.127 166.5V159.5H171.187L174.697 164.77V159.5H175.757V166.5H174.697L171.187 161.23V166.5H170.127ZM178.818 166.62C178.218 166.62 177.745 166.433 177.398 166.06C177.058 165.687 176.888 165.13 176.888 164.39V161.54H177.948V164.28C177.948 165.24 178.341 165.72 179.128 165.72C179.521 165.72 179.845 165.58 180.098 165.3C180.351 165.02 180.478 164.62 180.478 164.1V161.54H181.538V166.5H180.598L180.518 165.63C180.365 165.937 180.138 166.18 179.838 166.36C179.545 166.533 179.205 166.62 178.818 166.62ZM182.736 166.5V161.54H183.676L183.766 162.24C183.926 161.987 184.136 161.787 184.396 161.64C184.663 161.493 184.97 161.42 185.316 161.42C186.103 161.42 186.65 161.73 186.956 162.35C187.136 162.063 187.376 161.837 187.676 161.67C187.983 161.503 188.313 161.42 188.666 161.42C189.286 161.42 189.773 161.607 190.126 161.98C190.48 162.353 190.656 162.91 190.656 163.65V166.5H189.596V163.76C189.596 162.8 189.23 162.32 188.496 162.32C188.123 162.32 187.816 162.46 187.576 162.74C187.343 163.02 187.226 163.42 187.226 163.94V166.5H186.166V163.76C186.166 162.8 185.796 162.32 185.056 162.32C184.69 162.32 184.386 162.46 184.146 162.74C183.913 163.02 183.796 163.42 183.796 163.94V166.5H182.736ZM194.537 166.62C194.15 166.62 193.807 166.543 193.507 166.39C193.213 166.237 192.98 166.02 192.807 165.74L192.697 166.5H191.747V159.3H192.807V162.31C192.967 162.077 193.187 161.87 193.467 161.69C193.747 161.51 194.107 161.42 194.547 161.42C195.027 161.42 195.45 161.533 195.817 161.76C196.183 161.987 196.47 162.297 196.677 162.69C196.89 163.083 196.997 163.53 196.997 164.03C196.997 164.53 196.89 164.977 196.677 165.37C196.47 165.757 196.183 166.063 195.817 166.29C195.45 166.51 195.023 166.62 194.537 166.62ZM194.357 165.7C194.81 165.7 195.183 165.547 195.477 165.24C195.77 164.927 195.917 164.52 195.917 164.02C195.917 163.693 195.85 163.403 195.717 163.15C195.583 162.897 195.4 162.7 195.167 162.56C194.933 162.413 194.663 162.34 194.357 162.34C193.903 162.34 193.53 162.497 193.237 162.81C192.95 163.123 192.807 163.527 192.807 164.02C192.807 164.52 192.95 164.927 193.237 165.24C193.53 165.547 193.903 165.7 194.357 165.7ZM200.313 166.62C199.826 166.62 199.393 166.513 199.013 166.3C198.64 166.08 198.346 165.777 198.133 165.39C197.92 165.003 197.813 164.553 197.813 164.04C197.813 163.52 197.916 163.063 198.123 162.67C198.336 162.277 198.63 161.97 199.003 161.75C199.383 161.53 199.823 161.42 200.323 161.42C200.81 161.42 201.233 161.53 201.593 161.75C201.953 161.963 202.233 162.25 202.433 162.61C202.633 162.97 202.733 163.367 202.733 163.8C202.733 163.867 202.73 163.94 202.723 164.02C202.723 164.093 202.72 164.177 202.713 164.27H198.853C198.886 164.75 199.043 165.117 199.323 165.37C199.61 165.617 199.94 165.74 200.313 165.74C200.613 165.74 200.863 165.673 201.063 165.54C201.27 165.4 201.423 165.213 201.523 164.98H202.583C202.45 165.447 202.183 165.837 201.783 166.15C201.39 166.463 200.9 166.62 200.313 166.62ZM200.313 162.29C199.96 162.29 199.646 162.397 199.373 162.61C199.1 162.817 198.933 163.13 198.873 163.55H201.673C201.653 163.163 201.516 162.857 201.263 162.63C201.01 162.403 200.693 162.29 200.313 162.29ZM203.683 166.5V161.54H204.633L204.723 162.48C204.896 162.153 205.136 161.897 205.443 161.71C205.756 161.517 206.133 161.42 206.573 161.42V162.53H206.283C205.99 162.53 205.726 162.58 205.493 162.68C205.266 162.773 205.083 162.937 204.943 163.17C204.81 163.397 204.743 163.713 204.743 164.12V166.5H203.683Z" fill="#525252"/>
<path d="M144.57 197.5V196.74C145.023 196.38 145.457 196.017 145.87 195.65C146.283 195.283 146.65 194.923 146.97 194.57C147.297 194.21 147.553 193.86 147.74 193.52C147.927 193.173 148.02 192.84 148.02 192.52C148.02 192.307 147.983 192.107 147.91 191.92C147.837 191.727 147.717 191.573 147.55 191.46C147.383 191.34 147.16 191.28 146.88 191.28C146.46 191.28 146.143 191.413 145.93 191.68C145.723 191.947 145.623 192.267 145.63 192.64H144.6C144.607 192.147 144.71 191.733 144.91 191.4C145.117 191.067 145.39 190.813 145.73 190.64C146.077 190.467 146.467 190.38 146.9 190.38C147.56 190.38 148.087 190.567 148.48 190.94C148.88 191.307 149.08 191.82 149.08 192.48C149.08 192.873 148.983 193.263 148.79 193.65C148.603 194.037 148.357 194.41 148.05 194.77C147.75 195.123 147.427 195.457 147.08 195.77C146.733 196.083 146.403 196.367 146.09 196.62H149.29V197.5H144.57ZM150.143 197.5V196.74C150.596 196.38 151.029 196.017 151.443 195.65C151.856 195.283 152.223 194.923 152.543 194.57C152.869 194.21 153.126 193.86 153.313 193.52C153.499 193.173 153.593 192.84 153.593 192.52C153.593 192.307 153.556 192.107 153.483 191.92C153.409 191.727 153.289 191.573 153.123 191.46C152.956 191.34 152.733 191.28 152.453 191.28C152.033 191.28 151.716 191.413 151.503 191.68C151.296 191.947 151.196 192.267 151.203 192.64H150.173C150.179 192.147 150.283 191.733 150.483 191.4C150.689 191.067 150.963 190.813 151.303 190.64C151.649 190.467 152.039 190.38 152.473 190.38C153.133 190.38 153.659 190.567 154.053 190.94C154.453 191.307 154.653 191.82 154.653 192.48C154.653 192.873 154.556 193.263 154.363 193.65C154.176 194.037 153.929 194.41 153.623 194.77C153.323 195.123 152.999 195.457 152.653 195.77C152.306 196.083 151.976 196.367 151.663 196.62H154.863V197.5H150.143ZM158.095 197.62C157.642 197.62 157.229 197.54 156.855 197.38C156.489 197.213 156.195 196.963 155.975 196.63C155.755 196.297 155.639 195.88 155.625 195.38H156.675C156.689 195.753 156.815 196.07 157.055 196.33C157.302 196.583 157.649 196.71 158.095 196.71C158.522 196.71 158.849 196.593 159.075 196.36C159.302 196.12 159.415 195.823 159.415 195.47C159.415 195.043 159.262 194.727 158.955 194.52C158.655 194.313 158.285 194.21 157.845 194.21H157.325V193.33H157.855C158.249 193.33 158.565 193.237 158.805 193.05C159.052 192.863 159.175 192.6 159.175 192.26C159.175 191.973 159.079 191.74 158.885 191.56C158.699 191.38 158.432 191.29 158.085 191.29C157.725 191.29 157.442 191.397 157.235 191.61C157.029 191.817 156.915 192.077 156.895 192.39H155.845C155.859 191.983 155.959 191.63 156.145 191.33C156.339 191.03 156.602 190.797 156.935 190.63C157.269 190.463 157.652 190.38 158.085 190.38C158.552 190.38 158.942 190.463 159.255 190.63C159.575 190.79 159.815 191.01 159.975 191.29C160.142 191.563 160.225 191.863 160.225 192.19C160.225 192.563 160.122 192.89 159.915 193.17C159.709 193.45 159.432 193.637 159.085 193.73C159.485 193.817 159.815 194.013 160.075 194.32C160.335 194.62 160.465 195.01 160.465 195.49C160.465 195.877 160.375 196.233 160.195 196.56C160.015 196.88 159.749 197.137 159.395 197.33C159.042 197.523 158.609 197.62 158.095 197.62ZM164.813 197.5V196.1H161.303V195.26L164.643 190.5H165.863V195.18H166.843V196.1H165.863V197.5H164.813ZM162.453 195.18H164.873V191.67L162.453 195.18ZM170.144 197.62C169.65 197.62 169.224 197.533 168.864 197.36C168.504 197.18 168.217 196.937 168.004 196.63C167.797 196.317 167.67 195.963 167.624 195.57H168.664C168.73 195.903 168.897 196.18 169.164 196.4C169.43 196.613 169.76 196.72 170.154 196.72C170.447 196.72 170.7 196.65 170.914 196.51C171.127 196.363 171.294 196.17 171.414 195.93C171.534 195.69 171.594 195.42 171.594 195.12C171.594 194.647 171.46 194.27 171.194 193.99C170.927 193.703 170.59 193.56 170.184 193.56C169.837 193.56 169.54 193.643 169.294 193.81C169.047 193.97 168.867 194.173 168.754 194.42H167.744L168.344 190.5H172.124V191.43H169.144L168.784 193.3C168.937 193.127 169.147 192.983 169.414 192.87C169.687 192.75 169.994 192.69 170.334 192.69C170.807 192.69 171.214 192.8 171.554 193.02C171.894 193.233 172.154 193.523 172.334 193.89C172.52 194.257 172.614 194.663 172.614 195.11C172.614 195.577 172.514 196 172.314 196.38C172.114 196.76 171.827 197.063 171.454 197.29C171.087 197.51 170.65 197.62 170.144 197.62ZM174.436 197.5V191.7L173.306 191.96V191.18L174.856 190.5H175.536V197.5H174.436ZM179.378 197.62C178.865 197.62 178.431 197.523 178.078 197.33C177.725 197.137 177.438 196.88 177.218 196.56C177.005 196.24 176.851 195.88 176.758 195.48C176.665 195.08 176.618 194.67 176.618 194.25C176.618 193.477 176.725 192.8 176.938 192.22C177.158 191.64 177.471 191.19 177.878 190.87C178.285 190.543 178.778 190.38 179.358 190.38C179.818 190.38 180.211 190.47 180.538 190.65C180.865 190.83 181.118 191.07 181.298 191.37C181.485 191.67 181.598 191.997 181.638 192.35H180.648C180.588 192.003 180.445 191.737 180.218 191.55C179.991 191.363 179.701 191.27 179.348 191.27C178.861 191.27 178.458 191.5 178.138 191.96C177.825 192.413 177.658 193.113 177.638 194.06C177.798 193.767 178.045 193.517 178.378 193.31C178.718 193.103 179.108 193 179.548 193C179.941 193 180.308 193.093 180.648 193.28C180.995 193.467 181.275 193.73 181.488 194.07C181.708 194.403 181.818 194.8 181.818 195.26C181.818 195.667 181.718 196.05 181.518 196.41C181.318 196.77 181.035 197.063 180.668 197.29C180.308 197.51 179.878 197.62 179.378 197.62ZM179.318 196.7C179.598 196.7 179.848 196.64 180.068 196.52C180.288 196.4 180.461 196.237 180.588 196.03C180.715 195.817 180.778 195.577 180.778 195.31C180.778 194.883 180.638 194.543 180.358 194.29C180.085 194.037 179.735 193.91 179.308 193.91C179.028 193.91 178.775 193.973 178.548 194.1C178.328 194.227 178.155 194.397 178.028 194.61C177.901 194.817 177.838 195.047 177.838 195.3C177.838 195.573 177.901 195.817 178.028 196.03C178.161 196.237 178.338 196.4 178.558 196.52C178.785 196.64 179.038 196.7 179.318 196.7ZM182.651 197.5V196.74C183.104 196.38 183.538 196.017 183.951 195.65C184.364 195.283 184.731 194.923 185.051 194.57C185.378 194.21 185.634 193.86 185.821 193.52C186.008 193.173 186.101 192.84 186.101 192.52C186.101 192.307 186.064 192.107 185.991 191.92C185.918 191.727 185.798 191.573 185.631 191.46C185.464 191.34 185.241 191.28 184.961 191.28C184.541 191.28 184.224 191.413 184.011 191.68C183.804 191.947 183.704 192.267 183.711 192.64H182.681C182.688 192.147 182.791 191.733 182.991 191.4C183.198 191.067 183.471 190.813 183.811 190.64C184.158 190.467 184.548 190.38 184.981 190.38C185.641 190.38 186.168 190.567 186.561 190.94C186.961 191.307 187.161 191.82 187.161 192.48C187.161 192.873 187.064 193.263 186.871 193.65C186.684 194.037 186.438 194.41 186.131 194.77C185.831 195.123 185.508 195.457 185.161 195.77C184.814 196.083 184.484 196.367 184.171 196.62H187.371V197.5H182.651ZM190.627 197.62C190.16 197.62 189.737 197.537 189.357 197.37C188.983 197.197 188.683 196.957 188.457 196.65C188.237 196.343 188.127 195.983 188.127 195.57C188.127 195.15 188.243 194.773 188.477 194.44C188.717 194.107 189.033 193.88 189.427 193.76C189.073 193.62 188.8 193.417 188.607 193.15C188.413 192.877 188.317 192.577 188.317 192.25C188.317 191.91 188.407 191.6 188.587 191.32C188.767 191.033 189.027 190.807 189.367 190.64C189.713 190.467 190.133 190.38 190.627 190.38C191.12 190.38 191.537 190.467 191.877 190.64C192.223 190.807 192.487 191.033 192.667 191.32C192.847 191.6 192.937 191.91 192.937 192.25C192.937 192.57 192.837 192.87 192.637 193.15C192.443 193.423 192.17 193.627 191.817 193.76C192.21 193.887 192.523 194.117 192.757 194.45C192.997 194.777 193.117 195.15 193.117 195.57C193.117 195.983 193.007 196.343 192.787 196.65C192.567 196.957 192.267 197.197 191.887 197.37C191.513 197.537 191.093 197.62 190.627 197.62ZM190.627 193.42C191.013 193.42 191.317 193.32 191.537 193.12C191.763 192.92 191.877 192.663 191.877 192.35C191.877 191.997 191.767 191.727 191.547 191.54C191.327 191.353 191.02 191.26 190.627 191.26C190.233 191.26 189.927 191.353 189.707 191.54C189.487 191.727 189.377 191.997 189.377 192.35C189.377 192.663 189.487 192.92 189.707 193.12C189.927 193.32 190.233 193.42 190.627 193.42ZM190.627 196.72C191.107 196.72 191.467 196.607 191.707 196.38C191.947 196.147 192.067 195.85 192.067 195.49C192.067 195.09 191.937 194.783 191.677 194.57C191.423 194.35 191.073 194.24 190.627 194.24C190.18 194.24 189.827 194.35 189.567 194.57C189.307 194.783 189.177 195.09 189.177 195.49C189.177 195.85 189.297 196.147 189.537 196.38C189.783 196.607 190.147 196.72 190.627 196.72ZM197.478 197.5V196.1H193.968V195.26L197.308 190.5H198.528V195.18H199.508V196.1H198.528V197.5H197.478ZM195.118 195.18H197.538V191.67L195.118 195.18Z" fill="#1E1E1E"/>
<rect x="127.5" y="176" width="365" height="37" rx="4.5" stroke="#E7E7E7"/>
<path d="M128.26 230.5L130.84 223.5H132L134.56 230.5H133.44L132.84 228.79H129.98L129.38 230.5H128.26ZM130.28 227.95H132.54L131.41 224.76L130.28 227.95ZM135.346 230.5V225.54H136.286L136.376 226.24C136.536 225.987 136.746 225.787 137.006 225.64C137.273 225.493 137.58 225.42 137.926 225.42C138.713 225.42 139.26 225.73 139.566 226.35C139.746 226.063 139.986 225.837 140.286 225.67C140.593 225.503 140.923 225.42 141.276 225.42C141.896 225.42 142.383 225.607 142.736 225.98C143.09 226.353 143.266 226.91 143.266 227.65V230.5H142.206V227.76C142.206 226.8 141.84 226.32 141.106 226.32C140.733 226.32 140.426 226.46 140.186 226.74C139.953 227.02 139.836 227.42 139.836 227.94V230.5H138.776V227.76C138.776 226.8 138.406 226.32 137.666 226.32C137.3 226.32 136.996 226.46 136.756 226.74C136.523 227.02 136.406 227.42 136.406 227.94V230.5H135.346ZM146.676 230.62C146.203 230.62 145.776 230.513 145.396 230.3C145.023 230.08 144.726 229.777 144.506 229.39C144.286 228.997 144.176 228.54 144.176 228.02C144.176 227.5 144.286 227.047 144.506 226.66C144.733 226.267 145.036 225.963 145.416 225.75C145.796 225.53 146.22 225.42 146.686 225.42C147.16 225.42 147.583 225.53 147.956 225.75C148.336 225.963 148.636 226.267 148.856 226.66C149.083 227.047 149.196 227.5 149.196 228.02C149.196 228.54 149.083 228.997 148.856 229.39C148.636 229.777 148.336 230.08 147.956 230.3C147.576 230.513 147.15 230.62 146.676 230.62ZM146.676 229.71C146.93 229.71 147.163 229.647 147.376 229.52C147.596 229.393 147.773 229.207 147.906 228.96C148.04 228.707 148.106 228.393 148.106 228.02C148.106 227.647 148.04 227.337 147.906 227.09C147.78 226.837 147.606 226.647 147.386 226.52C147.173 226.393 146.94 226.33 146.686 226.33C146.433 226.33 146.196 226.393 145.976 226.52C145.763 226.647 145.59 226.837 145.456 227.09C145.323 227.337 145.256 227.647 145.256 228.02C145.256 228.393 145.323 228.707 145.456 228.96C145.59 229.207 145.763 229.393 145.976 229.52C146.19 229.647 146.423 229.71 146.676 229.71ZM152.023 230.62C151.423 230.62 150.949 230.433 150.603 230.06C150.263 229.687 150.093 229.13 150.093 228.39V225.54H151.153V228.28C151.153 229.24 151.546 229.72 152.333 229.72C152.726 229.72 153.049 229.58 153.303 229.3C153.556 229.02 153.683 228.62 153.683 228.1V225.54H154.743V230.5H153.803L153.723 229.63C153.569 229.937 153.343 230.18 153.043 230.36C152.749 230.533 152.409 230.62 152.023 230.62ZM155.941 230.5V225.54H156.881L156.961 226.41C157.114 226.103 157.338 225.863 157.631 225.69C157.931 225.51 158.274 225.42 158.661 225.42C159.261 225.42 159.731 225.607 160.071 225.98C160.418 226.353 160.591 226.91 160.591 227.65V230.5H159.541V227.76C159.541 226.8 159.148 226.32 158.361 226.32C157.968 226.32 157.641 226.46 157.381 226.74C157.128 227.02 157.001 227.42 157.001 227.94V230.5H155.941ZM163.77 230.5C163.283 230.5 162.896 230.383 162.61 230.15C162.323 229.91 162.18 229.487 162.18 228.88V226.43H161.33V225.54H162.18L162.31 224.28H163.24V225.54H164.64V226.43H163.24V228.88C163.24 229.153 163.296 229.343 163.41 229.45C163.53 229.55 163.733 229.6 164.02 229.6H164.59V230.5H163.77Z" fill="#525252"/>
<path d="M147.15 261.62C146.657 261.62 146.23 261.533 145.87 261.36C145.51 261.18 145.223 260.937 145.01 260.63C144.803 260.317 144.677 259.963 144.63 259.57H145.67C145.737 259.903 145.903 260.18 146.17 260.4C146.437 260.613 146.767 260.72 147.16 260.72C147.453 260.72 147.707 260.65 147.92 260.51C148.133 260.363 148.3 260.17 148.42 259.93C148.54 259.69 148.6 259.42 148.6 259.12C148.6 258.647 148.467 258.27 148.2 257.99C147.933 257.703 147.597 257.56 147.19 257.56C146.843 257.56 146.547 257.643 146.3 257.81C146.053 257.97 145.873 258.173 145.76 258.42H144.75L145.35 254.5H149.13V255.43H146.15L145.79 257.3C145.943 257.127 146.153 256.983 146.42 256.87C146.693 256.75 147 256.69 147.34 256.69C147.813 256.69 148.22 256.8 148.56 257.02C148.9 257.233 149.16 257.523 149.34 257.89C149.527 258.257 149.62 258.663 149.62 259.11C149.62 259.577 149.52 260 149.32 260.38C149.12 260.76 148.833 261.063 148.46 261.29C148.093 261.51 147.657 261.62 147.15 261.62ZM150.092 262.68L150.672 260.32H151.722L150.802 262.68H150.092ZM155.413 261.62C154.78 261.62 154.233 261.47 153.773 261.17C153.32 260.863 152.97 260.44 152.723 259.9C152.483 259.353 152.363 258.72 152.363 258C152.363 257.28 152.483 256.65 152.723 256.11C152.97 255.563 153.32 255.14 153.773 254.84C154.233 254.533 154.78 254.38 155.413 254.38C156.046 254.38 156.59 254.533 157.043 254.84C157.496 255.14 157.843 255.563 158.083 256.11C158.33 256.65 158.453 257.28 158.453 258C158.453 258.72 158.33 259.353 158.083 259.9C157.843 260.44 157.496 260.863 157.043 261.17C156.59 261.47 156.046 261.62 155.413 261.62ZM155.413 260.67C155.793 260.67 156.13 260.563 156.423 260.35C156.723 260.137 156.956 259.83 157.123 259.43C157.29 259.03 157.373 258.553 157.373 258C157.373 257.447 157.29 256.97 157.123 256.57C156.956 256.17 156.723 255.863 156.423 255.65C156.13 255.437 155.793 255.33 155.413 255.33C155.026 255.33 154.686 255.437 154.393 255.65C154.1 255.863 153.87 256.17 153.703 256.57C153.536 256.97 153.453 257.447 153.453 258C153.453 258.553 153.536 259.03 153.703 259.43C153.87 259.83 154.1 260.137 154.393 260.35C154.686 260.563 155.026 260.67 155.413 260.67ZM162.285 261.62C161.651 261.62 161.105 261.47 160.645 261.17C160.191 260.863 159.841 260.44 159.595 259.9C159.355 259.353 159.235 258.72 159.235 258C159.235 257.28 159.355 256.65 159.595 256.11C159.841 255.563 160.191 255.14 160.645 254.84C161.105 254.533 161.651 254.38 162.285 254.38C162.918 254.38 163.461 254.533 163.915 254.84C164.368 255.14 164.715 255.563 164.955 256.11C165.201 256.65 165.325 257.28 165.325 258C165.325 258.72 165.201 259.353 164.955 259.9C164.715 260.44 164.368 260.863 163.915 261.17C163.461 261.47 162.918 261.62 162.285 261.62ZM162.285 260.67C162.665 260.67 163.001 260.563 163.295 260.35C163.595 260.137 163.828 259.83 163.995 259.43C164.161 259.03 164.245 258.553 164.245 258C164.245 257.447 164.161 256.97 163.995 256.57C163.828 256.17 163.595 255.863 163.295 255.65C163.001 255.437 162.665 255.33 162.285 255.33C161.898 255.33 161.558 255.437 161.265 255.65C160.971 255.863 160.741 256.17 160.575 256.57C160.408 256.97 160.325 257.447 160.325 258C160.325 258.553 160.408 259.03 160.575 259.43C160.741 259.83 160.971 260.137 161.265 260.35C161.558 260.563 161.898 260.67 162.285 260.67ZM169.156 261.62C168.523 261.62 167.976 261.47 167.516 261.17C167.063 260.863 166.713 260.44 166.466 259.9C166.226 259.353 166.106 258.72 166.106 258C166.106 257.28 166.226 256.65 166.466 256.11C166.713 255.563 167.063 255.14 167.516 254.84C167.976 254.533 168.523 254.38 169.156 254.38C169.789 254.38 170.333 254.533 170.786 254.84C171.239 255.14 171.586 255.563 171.826 256.11C172.073 256.65 172.196 257.28 172.196 258C172.196 258.72 172.073 259.353 171.826 259.9C171.586 260.44 171.239 260.863 170.786 261.17C170.333 261.47 169.789 261.62 169.156 261.62ZM169.156 260.67C169.536 260.67 169.873 260.563 170.166 260.35C170.466 260.137 170.699 259.83 170.866 259.43C171.033 259.03 171.116 258.553 171.116 258C171.116 257.447 171.033 256.97 170.866 256.57C170.699 256.17 170.466 255.863 170.166 255.65C169.873 255.437 169.536 255.33 169.156 255.33C168.769 255.33 168.429 255.437 168.136 255.65C167.843 255.863 167.613 256.17 167.446 256.57C167.279 256.97 167.196 257.447 167.196 258C167.196 258.553 167.279 259.03 167.446 259.43C167.613 259.83 167.843 260.137 168.136 260.35C168.429 260.563 168.769 260.67 169.156 260.67ZM173.207 261.56C173.007 261.56 172.841 261.497 172.707 261.37C172.581 261.237 172.517 261.08 172.517 260.9C172.517 260.713 172.581 260.557 172.707 260.43C172.841 260.297 173.007 260.23 173.207 260.23C173.407 260.23 173.571 260.297 173.697 260.43C173.824 260.557 173.887 260.713 173.887 260.9C173.887 261.08 173.824 261.237 173.697 261.37C173.571 261.497 173.407 261.56 173.207 261.56ZM177.245 261.62C176.611 261.62 176.065 261.47 175.605 261.17C175.151 260.863 174.801 260.44 174.555 259.9C174.315 259.353 174.195 258.72 174.195 258C174.195 257.28 174.315 256.65 174.555 256.11C174.801 255.563 175.151 255.14 175.605 254.84C176.065 254.533 176.611 254.38 177.245 254.38C177.878 254.38 178.421 254.533 178.875 254.84C179.328 255.14 179.675 255.563 179.915 256.11C180.161 256.65 180.285 257.28 180.285 258C180.285 258.72 180.161 259.353 179.915 259.9C179.675 260.44 179.328 260.863 178.875 261.17C178.421 261.47 177.878 261.62 177.245 261.62ZM177.245 260.67C177.625 260.67 177.961 260.563 178.255 260.35C178.555 260.137 178.788 259.83 178.955 259.43C179.121 259.03 179.205 258.553 179.205 258C179.205 257.447 179.121 256.97 178.955 256.57C178.788 256.17 178.555 255.863 178.255 255.65C177.961 255.437 177.625 255.33 177.245 255.33C176.858 255.33 176.518 255.437 176.225 255.65C175.931 255.863 175.701 256.17 175.535 256.57C175.368 256.97 175.285 257.447 175.285 258C175.285 258.553 175.368 259.03 175.535 259.43C175.701 259.83 175.931 260.137 176.225 260.35C176.518 260.563 176.858 260.67 177.245 260.67ZM184.116 261.62C183.483 261.62 182.936 261.47 182.476 261.17C182.023 260.863 181.673 260.44 181.426 259.9C181.186 259.353 181.066 258.72 181.066 258C181.066 257.28 181.186 256.65 181.426 256.11C181.673 255.563 182.023 255.14 182.476 254.84C182.936 254.533 183.483 254.38 184.116 254.38C184.75 254.38 185.293 254.533 185.746 254.84C186.2 255.14 186.546 255.563 186.786 256.11C187.033 256.65 187.156 257.28 187.156 258C187.156 258.72 187.033 259.353 186.786 259.9C186.546 260.44 186.2 260.863 185.746 261.17C185.293 261.47 184.75 261.62 184.116 261.62ZM184.116 260.67C184.496 260.67 184.833 260.563 185.126 260.35C185.426 260.137 185.66 259.83 185.826 259.43C185.993 259.03 186.076 258.553 186.076 258C186.076 257.447 185.993 256.97 185.826 256.57C185.66 256.17 185.426 255.863 185.126 255.65C184.833 255.437 184.496 255.33 184.116 255.33C183.73 255.33 183.39 255.437 183.096 255.65C182.803 255.863 182.573 256.17 182.406 256.57C182.24 256.97 182.156 257.447 182.156 258C182.156 258.553 182.24 259.03 182.406 259.43C182.573 259.83 182.803 260.137 183.096 260.35C183.39 260.563 183.73 260.67 184.116 260.67Z" fill="#1E1E1E"/>
<rect x="127.5" y="240" width="365" height="37" rx="4.5" stroke="#E7E7E7"/>
<rect x="128" y="288.5" width="364" height="1" fill="#E7E7E7" fill-opacity="0.24"/>
<path d="M128.26 311.5L130.84 304.5H132L134.56 311.5H133.44L132.84 309.79H129.98L129.38 311.5H128.26ZM130.28 308.95H132.54L131.41 305.76L130.28 308.95ZM137.442 311.62C136.956 311.62 136.519 311.51 136.132 311.29C135.752 311.07 135.452 310.767 135.232 310.38C135.019 309.987 134.912 309.533 134.912 309.02C134.912 308.507 135.019 308.057 135.232 307.67C135.452 307.277 135.752 306.97 136.132 306.75C136.519 306.53 136.956 306.42 137.442 306.42C138.056 306.42 138.569 306.58 138.982 306.9C139.402 307.22 139.672 307.653 139.792 308.2H138.682C138.616 307.927 138.469 307.713 138.242 307.56C138.016 307.407 137.749 307.33 137.442 307.33C137.182 307.33 136.942 307.397 136.722 307.53C136.502 307.657 136.326 307.847 136.192 308.1C136.059 308.347 135.992 308.653 135.992 309.02C135.992 309.387 136.059 309.697 136.192 309.95C136.326 310.197 136.502 310.387 136.722 310.52C136.942 310.653 137.182 310.72 137.442 310.72C137.749 310.72 138.016 310.643 138.242 310.49C138.469 310.337 138.616 310.12 138.682 309.84H139.792C139.679 310.373 139.412 310.803 138.992 311.13C138.572 311.457 138.056 311.62 137.442 311.62ZM143.142 311.62C142.655 311.62 142.219 311.51 141.832 311.29C141.452 311.07 141.152 310.767 140.932 310.38C140.719 309.987 140.612 309.533 140.612 309.02C140.612 308.507 140.719 308.057 140.932 307.67C141.152 307.277 141.452 306.97 141.832 306.75C142.219 306.53 142.655 306.42 143.142 306.42C143.755 306.42 144.269 306.58 144.682 306.9C145.102 307.22 145.372 307.653 145.492 308.2H144.382C144.315 307.927 144.169 307.713 143.942 307.56C143.715 307.407 143.449 307.33 143.142 307.33C142.882 307.33 142.642 307.397 142.422 307.53C142.202 307.657 142.025 307.847 141.892 308.1C141.759 308.347 141.692 308.653 141.692 309.02C141.692 309.387 141.759 309.697 141.892 309.95C142.025 310.197 142.202 310.387 142.422 310.52C142.642 310.653 142.882 310.72 143.142 310.72C143.449 310.72 143.715 310.643 143.942 310.49C144.169 310.337 144.315 310.12 144.382 309.84H145.492C145.379 310.373 145.112 310.803 144.692 311.13C144.272 311.457 143.755 311.62 143.142 311.62ZM148.811 311.62C148.338 311.62 147.911 311.513 147.531 311.3C147.158 311.08 146.861 310.777 146.641 310.39C146.421 309.997 146.311 309.54 146.311 309.02C146.311 308.5 146.421 308.047 146.641 307.66C146.868 307.267 147.171 306.963 147.551 306.75C147.931 306.53 148.355 306.42 148.821 306.42C149.295 306.42 149.718 306.53 150.091 306.75C150.471 306.963 150.771 307.267 150.991 307.66C151.218 308.047 151.331 308.5 151.331 309.02C151.331 309.54 151.218 309.997 150.991 310.39C150.771 310.777 150.471 311.08 150.091 311.3C149.711 311.513 149.285 311.62 148.811 311.62ZM148.811 310.71C149.065 310.71 149.298 310.647 149.511 310.52C149.731 310.393 149.908 310.207 150.041 309.96C150.175 309.707 150.241 309.393 150.241 309.02C150.241 308.647 150.175 308.337 150.041 308.09C149.915 307.837 149.741 307.647 149.521 307.52C149.308 307.393 149.075 307.33 148.821 307.33C148.568 307.33 148.331 307.393 148.111 307.52C147.898 307.647 147.725 307.837 147.591 308.09C147.458 308.337 147.391 308.647 147.391 309.02C147.391 309.393 147.458 309.707 147.591 309.96C147.725 310.207 147.898 310.393 148.111 310.52C148.325 310.647 148.558 310.71 148.811 310.71ZM154.158 311.62C153.558 311.62 153.084 311.433 152.738 311.06C152.398 310.687 152.228 310.13 152.228 309.39V306.54H153.288V309.28C153.288 310.24 153.681 310.72 154.468 310.72C154.861 310.72 155.184 310.58 155.438 310.3C155.691 310.02 155.818 309.62 155.818 309.1V306.54H156.878V311.5H155.938L155.858 310.63C155.704 310.937 155.478 311.18 155.178 311.36C154.884 311.533 154.544 311.62 154.158 311.62ZM158.076 311.5V306.54H159.016L159.096 307.41C159.25 307.103 159.473 306.863 159.766 306.69C160.066 306.51 160.41 306.42 160.796 306.42C161.396 306.42 161.866 306.607 162.206 306.98C162.553 307.353 162.726 307.91 162.726 308.65V311.5H161.676V308.76C161.676 307.8 161.283 307.32 160.496 307.32C160.103 307.32 159.776 307.46 159.516 307.74C159.263 308.02 159.136 308.42 159.136 308.94V311.5H158.076ZM165.905 311.5C165.418 311.5 165.031 311.383 164.745 311.15C164.458 310.91 164.315 310.487 164.315 309.88V307.43H163.465V306.54H164.315L164.445 305.28H165.375V306.54H166.775V307.43H165.375V309.88C165.375 310.153 165.431 310.343 165.545 310.45C165.665 310.55 165.868 310.6 166.155 310.6H166.725V311.5H165.905ZM170.127 311.5V304.5H171.187L174.697 309.77V304.5H175.757V311.5H174.697L171.187 306.23V311.5H170.127ZM178.818 311.62C178.218 311.62 177.745 311.433 177.398 311.06C177.058 310.687 176.888 310.13 176.888 309.39V306.54H177.948V309.28C177.948 310.24 178.341 310.72 179.128 310.72C179.521 310.72 179.845 310.58 180.098 310.3C180.351 310.02 180.478 309.62 180.478 309.1V306.54H181.538V311.5H180.598L180.518 310.63C180.365 310.937 180.138 311.18 179.838 311.36C179.545 311.533 179.205 311.62 178.818 311.62ZM182.736 311.5V306.54H183.676L183.766 307.24C183.926 306.987 184.136 306.787 184.396 306.64C184.663 306.493 184.97 306.42 185.316 306.42C186.103 306.42 186.65 306.73 186.956 307.35C187.136 307.063 187.376 306.837 187.676 306.67C187.983 306.503 188.313 306.42 188.666 306.42C189.286 306.42 189.773 306.607 190.126 306.98C190.48 307.353 190.656 307.91 190.656 308.65V311.5H189.596V308.76C189.596 307.8 189.23 307.32 188.496 307.32C188.123 307.32 187.816 307.46 187.576 307.74C187.343 308.02 187.226 308.42 187.226 308.94V311.5H186.166V308.76C186.166 307.8 185.796 307.32 185.056 307.32C184.69 307.32 184.386 307.46 184.146 307.74C183.913 308.02 183.796 308.42 183.796 308.94V311.5H182.736ZM194.537 311.62C194.15 311.62 193.807 311.543 193.507 311.39C193.213 311.237 192.98 311.02 192.807 310.74L192.697 311.5H191.747V304.3H192.807V307.31C192.967 307.077 193.187 306.87 193.467 306.69C193.747 306.51 194.107 306.42 194.547 306.42C195.027 306.42 195.45 306.533 195.817 306.76C196.183 306.987 196.47 307.297 196.677 307.69C196.89 308.083 196.997 308.53 196.997 309.03C196.997 309.53 196.89 309.977 196.677 310.37C196.47 310.757 196.183 311.063 195.817 311.29C195.45 311.51 195.023 311.62 194.537 311.62ZM194.357 310.7C194.81 310.7 195.183 310.547 195.477 310.24C195.77 309.927 195.917 309.52 195.917 309.02C195.917 308.693 195.85 308.403 195.717 308.15C195.583 307.897 195.4 307.7 195.167 307.56C194.933 307.413 194.663 307.34 194.357 307.34C193.903 307.34 193.53 307.497 193.237 307.81C192.95 308.123 192.807 308.527 192.807 309.02C192.807 309.52 192.95 309.927 193.237 310.24C193.53 310.547 193.903 310.7 194.357 310.7ZM200.313 311.62C199.826 311.62 199.393 311.513 199.013 311.3C198.64 311.08 198.346 310.777 198.133 310.39C197.92 310.003 197.813 309.553 197.813 309.04C197.813 308.52 197.916 308.063 198.123 307.67C198.336 307.277 198.63 306.97 199.003 306.75C199.383 306.53 199.823 306.42 200.323 306.42C200.81 306.42 201.233 306.53 201.593 306.75C201.953 306.963 202.233 307.25 202.433 307.61C202.633 307.97 202.733 308.367 202.733 308.8C202.733 308.867 202.73 308.94 202.723 309.02C202.723 309.093 202.72 309.177 202.713 309.27H198.853C198.886 309.75 199.043 310.117 199.323 310.37C199.61 310.617 199.94 310.74 200.313 310.74C200.613 310.74 200.863 310.673 201.063 310.54C201.27 310.4 201.423 310.213 201.523 309.98H202.583C202.45 310.447 202.183 310.837 201.783 311.15C201.39 311.463 200.9 311.62 200.313 311.62ZM200.313 307.29C199.96 307.29 199.646 307.397 199.373 307.61C199.1 307.817 198.933 308.13 198.873 308.55H201.673C201.653 308.163 201.516 307.857 201.263 307.63C201.01 307.403 200.693 307.29 200.313 307.29ZM203.683 311.5V306.54H204.633L204.723 307.48C204.896 307.153 205.136 306.897 205.443 306.71C205.756 306.517 206.133 306.42 206.573 306.42V307.53H206.283C205.99 307.53 205.726 307.58 205.493 307.68C205.266 307.773 205.083 307.937 204.943 308.17C204.81 308.397 204.743 308.713 204.743 309.12V311.5H203.683Z" fill="#525252"/>
<path d="M145.2 342.5L147.91 336.41H144.27V335.5H149V336.27L146.31 342.5H145.2ZM149.576 342.5V341.74C150.03 341.38 150.463 341.017 150.876 340.65C151.29 340.283 151.656 339.923 151.976 339.57C152.303 339.21 152.56 338.86 152.746 338.52C152.933 338.173 153.026 337.84 153.026 337.52C153.026 337.307 152.99 337.107 152.916 336.92C152.843 336.727 152.723 336.573 152.556 336.46C152.39 336.34 152.166 336.28 151.886 336.28C151.466 336.28 151.15 336.413 150.936 336.68C150.73 336.947 150.63 337.267 150.636 337.64H149.606C149.613 337.147 149.716 336.733 149.916 336.4C150.123 336.067 150.396 335.813 150.736 335.64C151.083 335.467 151.473 335.38 151.906 335.38C152.566 335.38 153.093 335.567 153.486 335.94C153.886 336.307 154.086 336.82 154.086 337.48C154.086 337.873 153.99 338.263 153.796 338.65C153.61 339.037 153.363 339.41 153.056 339.77C152.756 340.123 152.433 340.457 152.086 340.77C151.74 341.083 151.41 341.367 151.096 341.62H154.296V342.5H149.576ZM157.529 342.62C157.076 342.62 156.662 342.54 156.289 342.38C155.922 342.213 155.629 341.963 155.409 341.63C155.189 341.297 155.072 340.88 155.059 340.38H156.109C156.122 340.753 156.249 341.07 156.489 341.33C156.736 341.583 157.082 341.71 157.529 341.71C157.956 341.71 158.282 341.593 158.509 341.36C158.736 341.12 158.849 340.823 158.849 340.47C158.849 340.043 158.696 339.727 158.389 339.52C158.089 339.313 157.719 339.21 157.279 339.21H156.759V338.33H157.289C157.682 338.33 157.999 338.237 158.239 338.05C158.486 337.863 158.609 337.6 158.609 337.26C158.609 336.973 158.512 336.74 158.319 336.56C158.132 336.38 157.866 336.29 157.519 336.29C157.159 336.29 156.876 336.397 156.669 336.61C156.462 336.817 156.349 337.077 156.329 337.39H155.279C155.292 336.983 155.392 336.63 155.579 336.33C155.772 336.03 156.036 335.797 156.369 335.63C156.702 335.463 157.086 335.38 157.519 335.38C157.986 335.38 158.376 335.463 158.689 335.63C159.009 335.79 159.249 336.01 159.409 336.29C159.576 336.563 159.659 336.863 159.659 337.19C159.659 337.563 159.556 337.89 159.349 338.17C159.142 338.45 158.866 338.637 158.519 338.73C158.919 338.817 159.249 339.013 159.509 339.32C159.769 339.62 159.899 340.01 159.899 340.49C159.899 340.877 159.809 341.233 159.629 341.56C159.449 341.88 159.182 342.137 158.829 342.33C158.476 342.523 158.042 342.62 157.529 342.62ZM160.917 342.5V341.74C161.37 341.38 161.804 341.017 162.217 340.65C162.63 340.283 162.997 339.923 163.317 339.57C163.644 339.21 163.9 338.86 164.087 338.52C164.274 338.173 164.367 337.84 164.367 337.52C164.367 337.307 164.33 337.107 164.257 336.92C164.184 336.727 164.064 336.573 163.897 336.46C163.73 336.34 163.507 336.28 163.227 336.28C162.807 336.28 162.49 336.413 162.277 336.68C162.07 336.947 161.97 337.267 161.977 337.64H160.947C160.954 337.147 161.057 336.733 161.257 336.4C161.464 336.067 161.737 335.813 162.077 335.64C162.424 335.467 162.814 335.38 163.247 335.38C163.907 335.38 164.434 335.567 164.827 335.94C165.227 336.307 165.427 336.82 165.427 337.48C165.427 337.873 165.33 338.263 165.137 338.65C164.95 339.037 164.704 339.41 164.397 339.77C164.097 340.123 163.774 340.457 163.427 340.77C163.08 341.083 162.75 341.367 162.437 341.62H165.637V342.5H160.917ZM169.693 342.5V341.1H166.183V340.26L169.523 335.5H170.743V340.18H171.723V341.1H170.743V342.5H169.693ZM167.333 340.18H169.753V336.67L167.333 340.18ZM174.823 342.62C174.37 342.62 173.956 342.54 173.583 342.38C173.216 342.213 172.923 341.963 172.703 341.63C172.483 341.297 172.366 340.88 172.353 340.38H173.403C173.416 340.753 173.543 341.07 173.783 341.33C174.03 341.583 174.376 341.71 174.823 341.71C175.25 341.71 175.576 341.593 175.803 341.36C176.03 341.12 176.143 340.823 176.143 340.47C176.143 340.043 175.99 339.727 175.683 339.52C175.383 339.313 175.013 339.21 174.573 339.21H174.053V338.33H174.583C174.976 338.33 175.293 338.237 175.533 338.05C175.78 337.863 175.903 337.6 175.903 337.26C175.903 336.973 175.806 336.74 175.613 336.56C175.426 336.38 175.16 336.29 174.813 336.29C174.453 336.29 174.17 336.397 173.963 336.61C173.756 336.817 173.643 337.077 173.623 337.39H172.573C172.586 336.983 172.686 336.63 172.873 336.33C173.066 336.03 173.33 335.797 173.663 335.63C173.996 335.463 174.38 335.38 174.813 335.38C175.28 335.38 175.67 335.463 175.983 335.63C176.303 335.79 176.543 336.01 176.703 336.29C176.87 336.563 176.953 336.863 176.953 337.19C176.953 337.563 176.85 337.89 176.643 338.17C176.436 338.45 176.16 338.637 175.813 338.73C176.213 338.817 176.543 339.013 176.803 339.32C177.063 339.62 177.193 340.01 177.193 340.49C177.193 340.877 177.103 341.233 176.923 341.56C176.743 341.88 176.476 342.137 176.123 342.33C175.77 342.523 175.336 342.62 174.823 342.62ZM178.944 342.5V336.7L177.814 336.96V336.18L179.364 335.5H180.044V342.5H178.944ZM181.176 342.5V341.74C181.63 341.38 182.063 341.017 182.476 340.65C182.89 340.283 183.256 339.923 183.576 339.57C183.903 339.21 184.16 338.86 184.346 338.52C184.533 338.173 184.626 337.84 184.626 337.52C184.626 337.307 184.59 337.107 184.516 336.92C184.443 336.727 184.323 336.573 184.156 336.46C183.99 336.34 183.766 336.28 183.486 336.28C183.066 336.28 182.75 336.413 182.536 336.68C182.33 336.947 182.23 337.267 182.236 337.64H181.206C181.213 337.147 181.316 336.733 181.516 336.4C181.723 336.067 181.996 335.813 182.336 335.64C182.683 335.467 183.073 335.38 183.506 335.38C184.166 335.38 184.693 335.567 185.086 335.94C185.486 336.307 185.686 336.82 185.686 337.48C185.686 337.873 185.59 338.263 185.396 338.65C185.21 339.037 184.963 339.41 184.656 339.77C184.356 340.123 184.033 340.457 183.686 340.77C183.34 341.083 183.01 341.367 182.696 341.62H185.896V342.5H181.176ZM189.161 342.62C188.701 342.62 188.307 342.53 187.981 342.35C187.654 342.17 187.397 341.93 187.211 341.63C187.031 341.33 186.921 341.003 186.881 340.65H187.871C187.931 340.997 188.074 341.263 188.301 341.45C188.527 341.637 188.817 341.73 189.171 341.73C189.657 341.73 190.057 341.503 190.371 341.05C190.691 340.59 190.861 339.887 190.881 338.94C190.721 339.233 190.471 339.483 190.131 339.69C189.797 339.897 189.411 340 188.971 340C188.577 340 188.207 339.907 187.861 339.72C187.514 339.533 187.234 339.273 187.021 338.94C186.807 338.6 186.701 338.2 186.701 337.74C186.701 337.333 186.801 336.95 187.001 336.59C187.201 336.23 187.481 335.94 187.841 335.72C188.207 335.493 188.641 335.38 189.141 335.38C189.654 335.38 190.087 335.477 190.441 335.67C190.794 335.863 191.077 336.12 191.291 336.44C191.504 336.76 191.657 337.12 191.751 337.52C191.851 337.92 191.901 338.33 191.901 338.75C191.901 339.523 191.791 340.2 191.571 340.78C191.357 341.36 191.047 341.813 190.641 342.14C190.234 342.46 189.741 342.62 189.161 342.62ZM189.211 339.09C189.491 339.09 189.741 339.027 189.961 338.9C190.181 338.773 190.354 338.607 190.481 338.4C190.614 338.187 190.681 337.953 190.681 337.7C190.681 337.427 190.614 337.187 190.481 336.98C190.354 336.767 190.177 336.6 189.951 336.48C189.731 336.36 189.481 336.3 189.201 336.3C188.921 336.3 188.671 336.36 188.451 336.48C188.231 336.6 188.054 336.767 187.921 336.98C187.794 337.187 187.731 337.423 187.731 337.69C187.731 338.117 187.871 338.457 188.151 338.71C188.431 338.963 188.784 339.09 189.211 339.09ZM193.572 342.5V336.7L192.442 336.96V336.18L193.992 335.5H194.672V342.5H193.572Z" fill="#1E1E1E"/>
<rect x="127.5" y="321" width="365" height="37" rx="4.5" stroke="#E7E7E7"/>
<path d="M128.26 375.5L130.84 368.5H132L134.56 375.5H133.44L132.84 373.79H129.98L129.38 375.5H128.26ZM130.28 372.95H132.54L131.41 369.76L130.28 372.95ZM135.346 375.5V370.54H136.286L136.376 371.24C136.536 370.987 136.746 370.787 137.006 370.64C137.273 370.493 137.58 370.42 137.926 370.42C138.713 370.42 139.26 370.73 139.566 371.35C139.746 371.063 139.986 370.837 140.286 370.67C140.593 370.503 140.923 370.42 141.276 370.42C141.896 370.42 142.383 370.607 142.736 370.98C143.09 371.353 143.266 371.91 143.266 372.65V375.5H142.206V372.76C142.206 371.8 141.84 371.32 141.106 371.32C140.733 371.32 140.426 371.46 140.186 371.74C139.953 372.02 139.836 372.42 139.836 372.94V375.5H138.776V372.76C138.776 371.8 138.406 371.32 137.666 371.32C137.3 371.32 136.996 371.46 136.756 371.74C136.523 372.02 136.406 372.42 136.406 372.94V375.5H135.346ZM146.676 375.62C146.203 375.62 145.776 375.513 145.396 375.3C145.023 375.08 144.726 374.777 144.506 374.39C144.286 373.997 144.176 373.54 144.176 373.02C144.176 372.5 144.286 372.047 144.506 371.66C144.733 371.267 145.036 370.963 145.416 370.75C145.796 370.53 146.22 370.42 146.686 370.42C147.16 370.42 147.583 370.53 147.956 370.75C148.336 370.963 148.636 371.267 148.856 371.66C149.083 372.047 149.196 372.5 149.196 373.02C149.196 373.54 149.083 373.997 148.856 374.39C148.636 374.777 148.336 375.08 147.956 375.3C147.576 375.513 147.15 375.62 146.676 375.62ZM146.676 374.71C146.93 374.71 147.163 374.647 147.376 374.52C147.596 374.393 147.773 374.207 147.906 373.96C148.04 373.707 148.106 373.393 148.106 373.02C148.106 372.647 148.04 372.337 147.906 372.09C147.78 371.837 147.606 371.647 147.386 371.52C147.173 371.393 146.94 371.33 146.686 371.33C146.433 371.33 146.196 371.393 145.976 371.52C145.763 371.647 145.59 371.837 145.456 372.09C145.323 372.337 145.256 372.647 145.256 373.02C145.256 373.393 145.323 373.707 145.456 373.96C145.59 374.207 145.763 374.393 145.976 374.52C146.19 374.647 146.423 374.71 146.676 374.71ZM152.023 375.62C151.423 375.62 150.949 375.433 150.603 375.06C150.263 374.687 150.093 374.13 150.093 373.39V370.54H151.153V373.28C151.153 374.24 151.546 374.72 152.333 374.72C152.726 374.72 153.049 374.58 153.303 374.3C153.556 374.02 153.683 373.62 153.683 373.1V370.54H154.743V375.5H153.803L153.723 374.63C153.569 374.937 153.343 375.18 153.043 375.36C152.749 375.533 152.409 375.62 152.023 375.62ZM155.941 375.5V370.54H156.881L156.961 371.41C157.114 371.103 157.338 370.863 157.631 370.69C157.931 370.51 158.274 370.42 158.661 370.42C159.261 370.42 159.731 370.607 160.071 370.98C160.418 371.353 160.591 371.91 160.591 372.65V375.5H159.541V372.76C159.541 371.8 159.148 371.32 158.361 371.32C157.968 371.32 157.641 371.46 157.381 371.74C157.128 372.02 157.001 372.42 157.001 372.94V375.5H155.941ZM163.77 375.5C163.283 375.5 162.896 375.383 162.61 375.15C162.323 374.91 162.18 374.487 162.18 373.88V371.43H161.33V370.54H162.18L162.31 369.28H163.24V370.54H164.64V371.43H163.24V373.88C163.24 374.153 163.296 374.343 163.41 374.45C163.53 374.55 163.733 374.6 164.02 374.6H164.59V375.5H163.77Z" fill="#525252"/>
<path d="M146.95 406.62C146.497 406.62 146.083 406.54 145.71 406.38C145.343 406.213 145.05 405.963 144.83 405.63C144.61 405.297 144.493 404.88 144.48 404.38H145.53C145.543 404.753 145.67 405.07 145.91 405.33C146.157 405.583 146.503 405.71 146.95 405.71C147.377 405.71 147.703 405.593 147.93 405.36C148.157 405.12 148.27 404.823 148.27 404.47C148.27 404.043 148.117 403.727 147.81 403.52C147.51 403.313 147.14 403.21 146.7 403.21H146.18V402.33H146.71C147.103 402.33 147.42 402.237 147.66 402.05C147.907 401.863 148.03 401.6 148.03 401.26C148.03 400.973 147.933 400.74 147.74 400.56C147.553 400.38 147.287 400.29 146.94 400.29C146.58 400.29 146.297 400.397 146.09 400.61C145.883 400.817 145.77 401.077 145.75 401.39H144.7C144.713 400.983 144.813 400.63 145 400.33C145.193 400.03 145.457 399.797 145.79 399.63C146.123 399.463 146.507 399.38 146.94 399.38C147.407 399.38 147.797 399.463 148.11 399.63C148.43 399.79 148.67 400.01 148.83 400.29C148.997 400.563 149.08 400.863 149.08 401.19C149.08 401.563 148.977 401.89 148.77 402.17C148.563 402.45 148.287 402.637 147.94 402.73C148.34 402.817 148.67 403.013 148.93 403.32C149.19 403.62 149.32 404.01 149.32 404.49C149.32 404.877 149.23 405.233 149.05 405.56C148.87 405.88 148.603 406.137 148.25 406.33C147.897 406.523 147.463 406.62 146.95 406.62ZM152.918 406.62C152.425 406.62 151.998 406.533 151.638 406.36C151.278 406.18 150.991 405.937 150.778 405.63C150.571 405.317 150.445 404.963 150.398 404.57H151.438C151.505 404.903 151.671 405.18 151.938 405.4C152.205 405.613 152.535 405.72 152.928 405.72C153.221 405.72 153.475 405.65 153.688 405.51C153.901 405.363 154.068 405.17 154.188 404.93C154.308 404.69 154.368 404.42 154.368 404.12C154.368 403.647 154.235 403.27 153.968 402.99C153.701 402.703 153.365 402.56 152.958 402.56C152.611 402.56 152.315 402.643 152.068 402.81C151.821 402.97 151.641 403.173 151.528 403.42H150.518L151.118 399.5H154.898V400.43H151.918L151.558 402.3C151.711 402.127 151.921 401.983 152.188 401.87C152.461 401.75 152.768 401.69 153.108 401.69C153.581 401.69 153.988 401.8 154.328 402.02C154.668 402.233 154.928 402.523 155.108 402.89C155.295 403.257 155.388 403.663 155.388 404.11C155.388 404.577 155.288 405 155.088 405.38C154.888 405.76 154.601 406.063 154.228 406.29C153.861 406.51 153.425 406.62 152.918 406.62ZM155.86 407.68L156.44 405.32H157.49L156.57 407.68H155.86ZM158.871 406.5L161.581 400.41H157.941V399.5H162.671V400.27L159.981 406.5H158.871ZM165.749 406.62C165.256 406.62 164.829 406.533 164.469 406.36C164.109 406.18 163.823 405.937 163.609 405.63C163.403 405.317 163.276 404.963 163.229 404.57H164.269C164.336 404.903 164.503 405.18 164.769 405.4C165.036 405.613 165.366 405.72 165.759 405.72C166.053 405.72 166.306 405.65 166.519 405.51C166.733 405.363 166.899 405.17 167.019 404.93C167.139 404.69 167.199 404.42 167.199 404.12C167.199 403.647 167.066 403.27 166.799 402.99C166.533 402.703 166.196 402.56 165.789 402.56C165.443 402.56 165.146 402.643 164.899 402.81C164.653 402.97 164.473 403.173 164.359 403.42H163.349L163.949 399.5H167.729V400.43H164.749L164.389 402.3C164.543 402.127 164.753 401.983 165.019 401.87C165.293 401.75 165.599 401.69 165.939 401.69C166.413 401.69 166.819 401.8 167.159 402.02C167.499 402.233 167.759 402.523 167.939 402.89C168.126 403.257 168.219 403.663 168.219 404.11C168.219 404.577 168.119 405 167.919 405.38C167.719 405.76 167.433 406.063 167.059 406.29C166.693 406.51 166.256 406.62 165.749 406.62ZM172.121 406.62C171.488 406.62 170.941 406.47 170.481 406.17C170.028 405.863 169.678 405.44 169.431 404.9C169.191 404.353 169.071 403.72 169.071 403C169.071 402.28 169.191 401.65 169.431 401.11C169.678 400.563 170.028 400.14 170.481 399.84C170.941 399.533 171.488 399.38 172.121 399.38C172.755 399.38 173.298 399.533 173.751 399.84C174.205 400.14 174.551 400.563 174.791 401.11C175.038 401.65 175.161 402.28 175.161 403C175.161 403.72 175.038 404.353 174.791 404.9C174.551 405.44 174.205 405.863 173.751 406.17C173.298 406.47 172.755 406.62 172.121 406.62ZM172.121 405.67C172.501 405.67 172.838 405.563 173.131 405.35C173.431 405.137 173.665 404.83 173.831 404.43C173.998 404.03 174.081 403.553 174.081 403C174.081 402.447 173.998 401.97 173.831 401.57C173.665 401.17 173.431 400.863 173.131 400.65C172.838 400.437 172.501 400.33 172.121 400.33C171.735 400.33 171.395 400.437 171.101 400.65C170.808 400.863 170.578 401.17 170.411 401.57C170.245 401.97 170.161 402.447 170.161 403C170.161 403.553 170.245 404.03 170.411 404.43C170.578 404.83 170.808 405.137 171.101 405.35C171.395 405.563 171.735 405.67 172.121 405.67ZM176.172 406.56C175.972 406.56 175.806 406.497 175.672 406.37C175.546 406.237 175.482 406.08 175.482 405.9C175.482 405.713 175.546 405.557 175.672 405.43C175.806 405.297 175.972 405.23 176.172 405.23C176.372 405.23 176.536 405.297 176.662 405.43C176.789 405.557 176.852 405.713 176.852 405.9C176.852 406.08 176.789 406.237 176.662 406.37C176.536 406.497 176.372 406.56 176.172 406.56ZM180.21 406.62C179.577 406.62 179.03 406.47 178.57 406.17C178.117 405.863 177.767 405.44 177.52 404.9C177.28 404.353 177.16 403.72 177.16 403C177.16 402.28 177.28 401.65 177.52 401.11C177.767 400.563 178.117 400.14 178.57 399.84C179.03 399.533 179.577 399.38 180.21 399.38C180.843 399.38 181.387 399.533 181.84 399.84C182.293 400.14 182.64 400.563 182.88 401.11C183.127 401.65 183.25 402.28 183.25 403C183.25 403.72 183.127 404.353 182.88 404.9C182.64 405.44 182.293 405.863 181.84 406.17C181.387 406.47 180.843 406.62 180.21 406.62ZM180.21 405.67C180.59 405.67 180.927 405.563 181.22 405.35C181.52 405.137 181.753 404.83 181.92 404.43C182.087 404.03 182.17 403.553 182.17 403C182.17 402.447 182.087 401.97 181.92 401.57C181.753 401.17 181.52 400.863 181.22 400.65C180.927 400.437 180.59 400.33 180.21 400.33C179.823 400.33 179.483 400.437 179.19 400.65C178.897 400.863 178.667 401.17 178.5 401.57C178.333 401.97 178.25 402.447 178.25 403C178.25 403.553 178.333 404.03 178.5 404.43C178.667 404.83 178.897 405.137 179.19 405.35C179.483 405.563 179.823 405.67 180.21 405.67ZM187.081 406.62C186.448 406.62 185.901 406.47 185.441 406.17C184.988 405.863 184.638 405.44 184.391 404.9C184.151 404.353 184.031 403.72 184.031 403C184.031 402.28 184.151 401.65 184.391 401.11C184.638 400.563 184.988 400.14 185.441 399.84C185.901 399.533 186.448 399.38 187.081 399.38C187.715 399.38 188.258 399.533 188.711 399.84C189.165 400.14 189.511 400.563 189.751 401.11C189.998 401.65 190.121 402.28 190.121 403C190.121 403.72 189.998 404.353 189.751 404.9C189.511 405.44 189.165 405.863 188.711 406.17C188.258 406.47 187.715 406.62 187.081 406.62ZM187.081 405.67C187.461 405.67 187.798 405.563 188.091 405.35C188.391 405.137 188.625 404.83 188.791 404.43C188.958 404.03 189.041 403.553 189.041 403C189.041 402.447 188.958 401.97 188.791 401.57C188.625 401.17 188.391 400.863 188.091 400.65C187.798 400.437 187.461 400.33 187.081 400.33C186.695 400.33 186.355 400.437 186.061 400.65C185.768 400.863 185.538 401.17 185.371 401.57C185.205 401.97 185.121 402.447 185.121 403C185.121 403.553 185.205 404.03 185.371 404.43C185.538 404.83 185.768 405.137 186.061 405.35C186.355 405.563 186.695 405.67 187.081 405.67Z" fill="#1E1E1E"/>
<rect x="127.5" y="385" width="365" height="37" rx="4.5" stroke="#E7E7E7"/>
<path d="M136.6 442.9C136.6 442.569 136.331 442.3 136 442.3C135.669 442.3 135.4 442.569 135.4 442.9V444.9H133.4C133.069 444.9 132.8 445.169 132.8 445.5C132.8 445.831 133.069 446.1 133.4 446.1L135.4 446.1V448.1C135.4 448.431 135.669 448.7 136 448.7C136.331 448.7 136.6 448.431 136.6 448.1V446.1L138.6 446.1C138.931 446.1 139.2 445.831 139.2 445.5C139.2 445.169 138.931 444.9 138.6 444.9H136.6V442.9Z" fill="#192CD1"/>
<path d="M152.26 448.5L154.84 441.5H156L158.56 448.5H157.44L156.84 446.79H153.98L153.38 448.5H152.26ZM154.28 445.95H156.54L155.41 442.76L154.28 445.95ZM161.352 448.62C160.872 448.62 160.449 448.507 160.082 448.28C159.716 448.053 159.429 447.743 159.222 447.35C159.016 446.957 158.912 446.51 158.912 446.01C158.912 445.51 159.016 445.067 159.222 444.68C159.429 444.287 159.716 443.98 160.082 443.76C160.456 443.533 160.882 443.42 161.362 443.42C161.756 443.42 162.099 443.497 162.392 443.65C162.692 443.803 162.926 444.02 163.092 444.3V441.3H164.152V448.5H163.202L163.092 447.73C162.932 447.963 162.712 448.17 162.432 448.35C162.152 448.53 161.792 448.62 161.352 448.62ZM161.542 447.7C161.996 447.7 162.366 447.543 162.652 447.23C162.946 446.917 163.092 446.513 163.092 446.02C163.092 445.52 162.946 445.117 162.652 444.81C162.366 444.497 161.996 444.34 161.542 444.34C161.089 444.34 160.716 444.497 160.422 444.81C160.129 445.117 159.982 445.52 159.982 446.02C159.982 446.347 160.049 446.637 160.182 446.89C160.316 447.143 160.499 447.343 160.732 447.49C160.972 447.63 161.242 447.7 161.542 447.7ZM167.599 448.62C167.119 448.62 166.695 448.507 166.329 448.28C165.962 448.053 165.675 447.743 165.469 447.35C165.262 446.957 165.159 446.51 165.159 446.01C165.159 445.51 165.262 445.067 165.469 444.68C165.675 444.287 165.962 443.98 166.329 443.76C166.702 443.533 167.129 443.42 167.609 443.42C168.002 443.42 168.345 443.497 168.639 443.65C168.939 443.803 169.172 444.02 169.339 444.3V441.3H170.399V448.5H169.449L169.339 447.73C169.179 447.963 168.959 448.17 168.679 448.35C168.399 448.53 168.039 448.62 167.599 448.62ZM167.789 447.7C168.242 447.7 168.612 447.543 168.899 447.23C169.192 446.917 169.339 446.513 169.339 446.02C169.339 445.52 169.192 445.117 168.899 444.81C168.612 444.497 168.242 444.34 167.789 444.34C167.335 444.34 166.962 444.497 166.669 444.81C166.375 445.117 166.229 445.52 166.229 446.02C166.229 446.347 166.295 446.637 166.429 446.89C166.562 447.143 166.745 447.343 166.979 447.49C167.219 447.63 167.489 447.7 167.789 447.7ZM173.545 448.5L176.125 441.5H177.285L179.845 448.5H178.725L178.125 446.79H175.265L174.665 448.5H173.545ZM175.565 445.95H177.825L176.695 442.76L175.565 445.95ZM182.727 448.62C182.24 448.62 181.804 448.51 181.417 448.29C181.037 448.07 180.737 447.767 180.517 447.38C180.304 446.987 180.197 446.533 180.197 446.02C180.197 445.507 180.304 445.057 180.517 444.67C180.737 444.277 181.037 443.97 181.417 443.75C181.804 443.53 182.24 443.42 182.727 443.42C183.34 443.42 183.854 443.58 184.267 443.9C184.687 444.22 184.957 444.653 185.077 445.2H183.967C183.9 444.927 183.754 444.713 183.527 444.56C183.3 444.407 183.034 444.33 182.727 444.33C182.467 444.33 182.227 444.397 182.007 444.53C181.787 444.657 181.61 444.847 181.477 445.1C181.344 445.347 181.277 445.653 181.277 446.02C181.277 446.387 181.344 446.697 181.477 446.95C181.61 447.197 181.787 447.387 182.007 447.52C182.227 447.653 182.467 447.72 182.727 447.72C183.034 447.72 183.3 447.643 183.527 447.49C183.754 447.337 183.9 447.12 183.967 446.84H185.077C184.964 447.373 184.697 447.803 184.277 448.13C183.857 448.457 183.34 448.62 182.727 448.62ZM188.427 448.62C187.94 448.62 187.503 448.51 187.117 448.29C186.737 448.07 186.437 447.767 186.217 447.38C186.003 446.987 185.897 446.533 185.897 446.02C185.897 445.507 186.003 445.057 186.217 444.67C186.437 444.277 186.737 443.97 187.117 443.75C187.503 443.53 187.94 443.42 188.427 443.42C189.04 443.42 189.553 443.58 189.967 443.9C190.387 444.22 190.657 444.653 190.777 445.2H189.667C189.6 444.927 189.453 444.713 189.227 444.56C189 444.407 188.733 444.33 188.427 444.33C188.167 444.33 187.927 444.397 187.707 444.53C187.487 444.657 187.31 444.847 187.177 445.1C187.043 445.347 186.977 445.653 186.977 446.02C186.977 446.387 187.043 446.697 187.177 446.95C187.31 447.197 187.487 447.387 187.707 447.52C187.927 447.653 188.167 447.72 188.427 447.72C188.733 447.72 189 447.643 189.227 447.49C189.453 447.337 189.6 447.12 189.667 446.84H190.777C190.663 447.373 190.397 447.803 189.977 448.13C189.557 448.457 189.04 448.62 188.427 448.62ZM194.096 448.62C193.623 448.62 193.196 448.513 192.816 448.3C192.443 448.08 192.146 447.777 191.926 447.39C191.706 446.997 191.596 446.54 191.596 446.02C191.596 445.5 191.706 445.047 191.926 444.66C192.153 444.267 192.456 443.963 192.836 443.75C193.216 443.53 193.64 443.42 194.106 443.42C194.58 443.42 195.003 443.53 195.376 443.75C195.756 443.963 196.056 444.267 196.276 444.66C196.503 445.047 196.616 445.5 196.616 446.02C196.616 446.54 196.503 446.997 196.276 447.39C196.056 447.777 195.756 448.08 195.376 448.3C194.996 448.513 194.57 448.62 194.096 448.62ZM194.096 447.71C194.35 447.71 194.583 447.647 194.796 447.52C195.016 447.393 195.193 447.207 195.326 446.96C195.46 446.707 195.526 446.393 195.526 446.02C195.526 445.647 195.46 445.337 195.326 445.09C195.2 444.837 195.026 444.647 194.806 444.52C194.593 444.393 194.36 444.33 194.106 444.33C193.853 444.33 193.616 444.393 193.396 444.52C193.183 444.647 193.01 444.837 192.876 445.09C192.743 445.337 192.676 445.647 192.676 446.02C192.676 446.393 192.743 446.707 192.876 446.96C193.01 447.207 193.183 447.393 193.396 447.52C193.61 447.647 193.843 447.71 194.096 447.71ZM199.443 448.62C198.843 448.62 198.369 448.433 198.023 448.06C197.683 447.687 197.513 447.13 197.513 446.39V443.54H198.573V446.28C198.573 447.24 198.966 447.72 199.753 447.72C200.146 447.72 200.469 447.58 200.723 447.3C200.976 447.02 201.103 446.62 201.103 446.1V443.54H202.163V448.5H201.223L201.143 447.63C200.989 447.937 200.763 448.18 200.463 448.36C200.169 448.533 199.829 448.62 199.443 448.62ZM203.361 448.5V443.54H204.301L204.381 444.41C204.534 444.103 204.758 443.863 205.051 443.69C205.351 443.51 205.694 443.42 206.081 443.42C206.681 443.42 207.151 443.607 207.491 443.98C207.838 444.353 208.011 444.91 208.011 445.65V448.5H206.961V445.76C206.961 444.8 206.568 444.32 205.781 444.32C205.388 444.32 205.061 444.46 204.801 444.74C204.548 445.02 204.421 445.42 204.421 445.94V448.5H203.361ZM211.189 448.5C210.703 448.5 210.316 448.383 210.029 448.15C209.743 447.91 209.599 447.487 209.599 446.88V444.43H208.749V443.54H209.599L209.729 442.28H210.659V443.54H212.059V444.43H210.659V446.88C210.659 447.153 210.716 447.343 210.829 447.45C210.949 447.55 211.153 447.6 211.439 447.6H212.009V448.5H211.189Z" fill="#192CD1"/>
<rect x="128" y="471.5" width="364" height="45" rx="22.5" fill="#192CD1"/>
<path d="M283.494 499V489.2H286.924C287.689 489.2 288.324 489.331 288.828 489.592C289.332 489.844 289.705 490.194 289.948 490.642C290.2 491.081 290.326 491.58 290.326 492.14C290.326 492.672 290.205 493.162 289.962 493.61C289.729 494.049 289.36 494.399 288.856 494.66C288.352 494.921 287.708 495.052 286.924 495.052H284.978V499H283.494ZM284.978 493.834H286.854C287.554 493.834 288.053 493.685 288.352 493.386C288.66 493.078 288.814 492.663 288.814 492.14C288.814 491.599 288.66 491.179 288.352 490.88C288.053 490.572 287.554 490.418 286.854 490.418H284.978V493.834ZM291.527 499V492.056H292.857L292.983 493.372C293.225 492.915 293.561 492.555 293.991 492.294C294.429 492.023 294.957 491.888 295.573 491.888V493.442H295.167C294.756 493.442 294.387 493.512 294.061 493.652C293.743 493.783 293.487 494.011 293.291 494.338C293.104 494.655 293.011 495.099 293.011 495.668V499H291.527ZM299.692 499.168C299.029 499.168 298.432 499.019 297.9 498.72C297.377 498.412 296.962 497.987 296.654 497.446C296.346 496.895 296.192 496.256 296.192 495.528C296.192 494.8 296.346 494.165 296.654 493.624C296.971 493.073 297.396 492.649 297.928 492.35C298.46 492.042 299.052 491.888 299.706 491.888C300.368 491.888 300.961 492.042 301.484 492.35C302.016 492.649 302.436 493.073 302.744 493.624C303.061 494.165 303.22 494.8 303.22 495.528C303.22 496.256 303.061 496.895 302.744 497.446C302.436 497.987 302.016 498.412 301.484 498.72C300.952 499.019 300.354 499.168 299.692 499.168ZM299.692 497.894C300.046 497.894 300.373 497.805 300.672 497.628C300.98 497.451 301.227 497.189 301.414 496.844C301.6 496.489 301.694 496.051 301.694 495.528C301.694 495.005 301.6 494.571 301.414 494.226C301.236 493.871 300.994 493.605 300.686 493.428C300.387 493.251 300.06 493.162 299.706 493.162C299.351 493.162 299.02 493.251 298.712 493.428C298.413 493.605 298.17 493.871 297.984 494.226C297.797 494.571 297.704 495.005 297.704 495.528C297.704 496.051 297.797 496.489 297.984 496.844C298.17 497.189 298.413 497.451 298.712 497.628C299.01 497.805 299.337 497.894 299.692 497.894ZM307.905 499.168C307.223 499.168 306.612 499.014 306.071 498.706C305.539 498.398 305.119 497.973 304.811 497.432C304.512 496.881 304.363 496.247 304.363 495.528C304.363 494.809 304.512 494.179 304.811 493.638C305.119 493.087 305.539 492.658 306.071 492.35C306.612 492.042 307.223 491.888 307.905 491.888C308.763 491.888 309.482 492.112 310.061 492.56C310.649 493.008 311.027 493.615 311.195 494.38H309.641C309.547 493.997 309.342 493.699 309.025 493.484C308.707 493.269 308.334 493.162 307.905 493.162C307.541 493.162 307.205 493.255 306.897 493.442C306.589 493.619 306.341 493.885 306.155 494.24C305.968 494.585 305.875 495.015 305.875 495.528C305.875 496.041 305.968 496.475 306.155 496.83C306.341 497.175 306.589 497.441 306.897 497.628C307.205 497.815 307.541 497.908 307.905 497.908C308.334 497.908 308.707 497.801 309.025 497.586C309.342 497.371 309.547 497.068 309.641 496.676H311.195C311.036 497.423 310.663 498.025 310.075 498.482C309.487 498.939 308.763 499.168 307.905 499.168ZM315.842 499.168C315.161 499.168 314.554 499.019 314.022 498.72C313.499 498.412 313.089 497.987 312.79 497.446C312.491 496.905 312.342 496.275 312.342 495.556C312.342 494.828 312.487 494.189 312.776 493.638C313.075 493.087 313.485 492.658 314.008 492.35C314.54 492.042 315.156 491.888 315.856 491.888C316.537 491.888 317.13 492.042 317.634 492.35C318.138 492.649 318.53 493.05 318.81 493.554C319.09 494.058 319.23 494.613 319.23 495.22C319.23 495.313 319.225 495.416 319.216 495.528C319.216 495.631 319.211 495.747 319.202 495.878H313.798C313.845 496.55 314.064 497.063 314.456 497.418C314.857 497.763 315.319 497.936 315.842 497.936C316.262 497.936 316.612 497.843 316.892 497.656C317.181 497.46 317.396 497.199 317.536 496.872H319.02C318.833 497.525 318.46 498.071 317.9 498.51C317.349 498.949 316.663 499.168 315.842 499.168ZM315.842 493.106C315.347 493.106 314.909 493.255 314.526 493.554C314.143 493.843 313.91 494.282 313.826 494.87H317.746C317.718 494.329 317.527 493.899 317.172 493.582C316.817 493.265 316.374 493.106 315.842 493.106ZM323.808 499.168C323.127 499.168 322.52 499.019 321.988 498.72C321.465 498.412 321.055 497.987 320.756 497.446C320.457 496.905 320.308 496.275 320.308 495.556C320.308 494.828 320.453 494.189 320.742 493.638C321.041 493.087 321.451 492.658 321.974 492.35C322.506 492.042 323.122 491.888 323.822 491.888C324.503 491.888 325.096 492.042 325.6 492.35C326.104 492.649 326.496 493.05 326.776 493.554C327.056 494.058 327.196 494.613 327.196 495.22C327.196 495.313 327.191 495.416 327.182 495.528C327.182 495.631 327.177 495.747 327.168 495.878H321.764C321.811 496.55 322.03 497.063 322.422 497.418C322.823 497.763 323.285 497.936 323.808 497.936C324.228 497.936 324.578 497.843 324.858 497.656C325.147 497.46 325.362 497.199 325.502 496.872H326.986C326.799 497.525 326.426 498.071 325.866 498.51C325.315 498.949 324.629 499.168 323.808 499.168ZM323.808 493.106C323.313 493.106 322.875 493.255 322.492 493.554C322.109 493.843 321.876 494.282 321.792 494.87H325.712C325.684 494.329 325.493 493.899 325.138 493.582C324.783 493.265 324.34 493.106 323.808 493.106ZM331.69 499.168C331.018 499.168 330.425 499.009 329.912 498.692C329.398 498.375 328.997 497.941 328.708 497.39C328.418 496.839 328.274 496.214 328.274 495.514C328.274 494.814 328.418 494.193 328.708 493.652C328.997 493.101 329.398 492.672 329.912 492.364C330.434 492.047 331.032 491.888 331.704 491.888C332.254 491.888 332.735 491.995 333.146 492.21C333.566 492.425 333.892 492.728 334.126 493.12V488.92H335.61V499H334.28L334.126 497.922C333.902 498.249 333.594 498.538 333.202 498.79C332.81 499.042 332.306 499.168 331.69 499.168ZM331.956 497.88C332.59 497.88 333.108 497.661 333.51 497.222C333.92 496.783 334.126 496.219 334.126 495.528C334.126 494.828 333.92 494.263 333.51 493.834C333.108 493.395 332.59 493.176 331.956 493.176C331.321 493.176 330.798 493.395 330.388 493.834C329.977 494.263 329.772 494.828 329.772 495.528C329.772 495.985 329.865 496.391 330.052 496.746C330.238 497.101 330.495 497.381 330.822 497.586C331.158 497.782 331.536 497.88 331.956 497.88Z" fill="#FBFBFB"/>
</svg>
