<svg width="620" height="621" viewBox="0 0 620 621" fill="none" xmlns="http://www.w3.org/2000/svg">
<rect y="0.5" width="620" height="620" rx="8" fill="#E7EBFF"/>
<rect x="100" y="146.5" width="420" height="328" rx="8" fill="#FBFBFB"/>
<path d="M135.368 211.788C134.136 211.788 133.048 211.58 132.104 211.164C131.16 210.732 130.416 210.124 129.872 209.34C129.328 208.54 129.048 207.572 129.032 206.436H132.272C132.304 207.22 132.584 207.884 133.112 208.428C133.656 208.956 134.4 209.22 135.344 209.22C136.16 209.22 136.808 209.028 137.288 208.644C137.768 208.244 138.008 207.716 138.008 207.06C138.008 206.372 137.792 205.836 137.36 205.452C136.944 205.068 136.384 204.756 135.68 204.516C134.976 204.276 134.224 204.02 133.424 203.748C132.128 203.3 131.136 202.724 130.448 202.02C129.776 201.316 129.44 200.38 129.44 199.212C129.424 198.22 129.656 197.372 130.136 196.668C130.632 195.948 131.304 195.396 132.152 195.012C133 194.612 133.976 194.412 135.08 194.412C136.2 194.412 137.184 194.612 138.032 195.012C138.896 195.412 139.568 195.972 140.048 196.692C140.544 197.412 140.808 198.268 140.84 199.26H137.552C137.536 198.668 137.304 198.148 136.856 197.7C136.424 197.236 135.816 197.004 135.032 197.004C134.36 196.988 133.792 197.156 133.328 197.508C132.88 197.844 132.656 198.34 132.656 198.996C132.656 199.556 132.832 200.004 133.184 200.34C133.536 200.66 134.016 200.932 134.624 201.156C135.232 201.38 135.928 201.62 136.712 201.876C137.544 202.164 138.304 202.5 138.992 202.884C139.68 203.268 140.232 203.78 140.648 204.42C141.064 205.044 141.272 205.852 141.272 206.844C141.272 207.724 141.048 208.54 140.6 209.292C140.152 210.044 139.488 210.652 138.608 211.116C137.728 211.564 136.648 211.788 135.368 211.788ZM149.304 211.788C148.104 211.788 147.04 211.532 146.112 211.02C145.184 210.508 144.456 209.788 143.928 208.86C143.4 207.932 143.136 206.86 143.136 205.644C143.136 204.412 143.392 203.316 143.904 202.356C144.432 201.396 145.152 200.652 146.064 200.124C146.992 199.58 148.08 199.308 149.328 199.308C150.496 199.308 151.528 199.564 152.424 200.076C153.32 200.588 154.016 201.292 154.512 202.188C155.024 203.068 155.28 204.052 155.28 205.14C155.28 205.316 155.272 205.5 155.256 205.692C155.256 205.884 155.248 206.084 155.232 206.292H146.184C146.248 207.22 146.568 207.948 147.144 208.476C147.736 209.004 148.448 209.268 149.28 209.268C149.904 209.268 150.424 209.132 150.84 208.86C151.272 208.572 151.592 208.204 151.8 207.756H154.92C154.696 208.508 154.32 209.196 153.792 209.82C153.28 210.428 152.64 210.908 151.872 211.26C151.12 211.612 150.264 211.788 149.304 211.788ZM149.328 201.804C148.576 201.804 147.912 202.02 147.336 202.452C146.76 202.868 146.392 203.508 146.232 204.372H152.16C152.112 203.588 151.824 202.964 151.296 202.5C150.768 202.036 150.112 201.804 149.328 201.804ZM162.597 211.5C161.349 211.5 160.349 211.196 159.597 210.588C158.845 209.98 158.469 208.9 158.469 207.348V202.164H156.429V199.596H158.469L158.829 196.404H161.541V199.596H164.757V202.164H161.541V207.372C161.541 207.948 161.661 208.348 161.901 208.572C162.157 208.78 162.589 208.884 163.197 208.884H164.685V211.5H162.597ZM172.339 211.5C171.091 211.5 170.091 211.196 169.339 210.588C168.587 209.98 168.211 208.9 168.211 207.348V202.164H166.171V199.596H168.211L168.571 196.404H171.283V199.596H174.499V202.164H171.283V207.372C171.283 207.948 171.403 208.348 171.643 208.572C171.899 208.78 172.331 208.884 172.939 208.884H174.427V211.5H172.339ZM176.776 211.5V194.22H179.848V211.5H176.776ZM188.411 211.788C187.211 211.788 186.147 211.532 185.219 211.02C184.291 210.508 183.563 209.788 183.035 208.86C182.507 207.932 182.243 206.86 182.243 205.644C182.243 204.412 182.499 203.316 183.011 202.356C183.539 201.396 184.259 200.652 185.171 200.124C186.099 199.58 187.187 199.308 188.435 199.308C189.603 199.308 190.635 199.564 191.531 200.076C192.427 200.588 193.123 201.292 193.619 202.188C194.131 203.068 194.387 204.052 194.387 205.14C194.387 205.316 194.379 205.5 194.363 205.692C194.363 205.884 194.355 206.084 194.339 206.292H185.291C185.355 207.22 185.675 207.948 186.251 208.476C186.843 209.004 187.555 209.268 188.387 209.268C189.011 209.268 189.531 209.132 189.947 208.86C190.379 208.572 190.699 208.204 190.907 207.756H194.027C193.803 208.508 193.427 209.196 192.899 209.82C192.387 210.428 191.747 210.908 190.979 211.26C190.227 211.612 189.371 211.788 188.411 211.788ZM188.435 201.804C187.683 201.804 187.019 202.02 186.443 202.452C185.867 202.868 185.499 203.508 185.339 204.372H191.267C191.219 203.588 190.931 202.964 190.403 202.5C189.875 202.036 189.219 201.804 188.435 201.804ZM196.611 211.5V199.596H199.323L199.587 201.204C199.971 200.628 200.475 200.172 201.099 199.836C201.739 199.484 202.475 199.308 203.307 199.308C205.147 199.308 206.451 200.02 207.219 201.444C207.651 200.788 208.227 200.268 208.947 199.884C209.683 199.5 210.483 199.308 211.347 199.308C212.899 199.308 214.091 199.772 214.923 200.7C215.755 201.628 216.171 202.988 216.171 204.78V211.5H213.099V205.068C213.099 204.044 212.899 203.26 212.499 202.716C212.115 202.172 211.515 201.9 210.699 201.9C209.867 201.9 209.195 202.204 208.683 202.812C208.187 203.42 207.939 204.268 207.939 205.356V211.5H204.867V205.068C204.867 204.044 204.667 203.26 204.267 202.716C203.867 202.172 203.251 201.9 202.419 201.9C201.603 201.9 200.939 202.204 200.427 202.812C199.931 203.42 199.683 204.268 199.683 205.356V211.5H196.611ZM224.512 211.788C223.312 211.788 222.248 211.532 221.32 211.02C220.392 210.508 219.664 209.788 219.136 208.86C218.608 207.932 218.344 206.86 218.344 205.644C218.344 204.412 218.6 203.316 219.112 202.356C219.64 201.396 220.36 200.652 221.272 200.124C222.2 199.58 223.288 199.308 224.536 199.308C225.704 199.308 226.736 199.564 227.632 200.076C228.528 200.588 229.224 201.292 229.72 202.188C230.232 203.068 230.488 204.052 230.488 205.14C230.488 205.316 230.48 205.5 230.464 205.692C230.464 205.884 230.456 206.084 230.44 206.292H221.392C221.456 207.22 221.776 207.948 222.352 208.476C222.944 209.004 223.656 209.268 224.488 209.268C225.112 209.268 225.632 209.132 226.048 208.86C226.48 208.572 226.8 208.204 227.008 207.756H230.128C229.904 208.508 229.528 209.196 229 209.82C228.488 210.428 227.848 210.908 227.08 211.26C226.328 211.612 225.472 211.788 224.512 211.788ZM224.536 201.804C223.784 201.804 223.12 202.02 222.544 202.452C221.968 202.868 221.6 203.508 221.44 204.372H227.368C227.32 203.588 227.032 202.964 226.504 202.5C225.976 202.036 225.32 201.804 224.536 201.804ZM232.711 211.5V199.596H235.423L235.663 201.612C236.031 200.908 236.559 200.348 237.247 199.932C237.951 199.516 238.775 199.308 239.719 199.308C241.191 199.308 242.335 199.772 243.151 200.7C243.967 201.628 244.375 202.988 244.375 204.78V211.5H241.303V205.068C241.303 204.044 241.095 203.26 240.679 202.716C240.263 202.172 239.615 201.9 238.735 201.9C237.871 201.9 237.159 202.204 236.599 202.812C236.055 203.42 235.783 204.268 235.783 205.356V211.5H232.711ZM252.257 211.5C251.009 211.5 250.009 211.196 249.257 210.588C248.505 209.98 248.129 208.9 248.129 207.348V202.164H246.089V199.596H248.129L248.489 196.404H251.201V199.596H254.417V202.164H251.201V207.372C251.201 207.948 251.321 208.348 251.561 208.572C251.817 208.78 252.249 208.884 252.857 208.884H254.345V211.5H252.257Z" fill="#1E1E1E"/>
<path d="M131.02 243.62C130.507 243.62 130.057 243.53 129.67 243.35C129.283 243.17 128.98 242.913 128.76 242.58C128.547 242.247 128.437 241.85 128.43 241.39H129.55C129.557 241.763 129.687 242.08 129.94 242.34C130.193 242.6 130.55 242.73 131.01 242.73C131.417 242.73 131.733 242.633 131.96 242.44C132.193 242.24 132.31 241.987 132.31 241.68C132.31 241.433 132.253 241.233 132.14 241.08C132.033 240.927 131.883 240.8 131.69 240.7C131.503 240.6 131.287 240.51 131.04 240.43C130.793 240.35 130.533 240.263 130.26 240.17C129.72 239.99 129.313 239.757 129.04 239.47C128.773 239.183 128.64 238.807 128.64 238.34C128.633 237.947 128.723 237.603 128.91 237.31C129.103 237.017 129.37 236.79 129.71 236.63C130.057 236.463 130.46 236.38 130.92 236.38C131.373 236.38 131.77 236.463 132.11 236.63C132.457 236.797 132.727 237.03 132.92 237.33C133.113 237.623 133.213 237.967 133.22 238.36H132.1C132.1 238.18 132.053 238.01 131.96 237.85C131.867 237.683 131.73 237.547 131.55 237.44C131.37 237.333 131.15 237.28 130.89 237.28C130.557 237.273 130.28 237.357 130.06 237.53C129.847 237.703 129.74 237.943 129.74 238.25C129.74 238.523 129.82 238.733 129.98 238.88C130.14 239.027 130.36 239.15 130.64 239.25C130.92 239.343 131.24 239.453 131.6 239.58C131.947 239.693 132.257 239.83 132.53 239.99C132.803 240.15 133.02 240.36 133.18 240.62C133.347 240.88 133.43 241.21 133.43 241.61C133.43 241.963 133.34 242.293 133.16 242.6C132.98 242.9 132.71 243.147 132.35 243.34C131.99 243.527 131.547 243.62 131.02 243.62ZM136.719 243.62C136.232 243.62 135.799 243.513 135.419 243.3C135.046 243.08 134.752 242.777 134.539 242.39C134.326 242.003 134.219 241.553 134.219 241.04C134.219 240.52 134.322 240.063 134.529 239.67C134.742 239.277 135.036 238.97 135.409 238.75C135.789 238.53 136.229 238.42 136.729 238.42C137.216 238.42 137.639 238.53 137.999 238.75C138.359 238.963 138.639 239.25 138.839 239.61C139.039 239.97 139.139 240.367 139.139 240.8C139.139 240.867 139.136 240.94 139.129 241.02C139.129 241.093 139.126 241.177 139.119 241.27H135.259C135.292 241.75 135.449 242.117 135.729 242.37C136.016 242.617 136.346 242.74 136.719 242.74C137.019 242.74 137.269 242.673 137.469 242.54C137.676 242.4 137.829 242.213 137.929 241.98H138.989C138.856 242.447 138.589 242.837 138.189 243.15C137.796 243.463 137.306 243.62 136.719 243.62ZM136.719 239.29C136.366 239.29 136.052 239.397 135.779 239.61C135.506 239.817 135.339 240.13 135.279 240.55H138.079C138.059 240.163 137.922 239.857 137.669 239.63C137.416 239.403 137.099 239.29 136.719 239.29ZM142.042 243.5C141.555 243.5 141.168 243.383 140.882 243.15C140.595 242.91 140.452 242.487 140.452 241.88V239.43H139.602V238.54H140.452L140.582 237.28H141.512V238.54H142.912V239.43H141.512V241.88C141.512 242.153 141.568 242.343 141.682 242.45C141.802 242.55 142.005 242.6 142.292 242.6H142.862V243.5H142.042ZM145.935 243.5C145.448 243.5 145.061 243.383 144.775 243.15C144.488 242.91 144.345 242.487 144.345 241.88V239.43H143.495V238.54H144.345L144.475 237.28H145.405V238.54H146.805V239.43H145.405V241.88C145.405 242.153 145.461 242.343 145.575 242.45C145.695 242.55 145.898 242.6 146.185 242.6H146.755V243.5H145.935ZM147.748 243.5V236.3H148.808V243.5H147.748ZM150.6 237.6C150.4 237.6 150.233 237.54 150.1 237.42C149.973 237.293 149.91 237.137 149.91 236.95C149.91 236.763 149.973 236.61 150.1 236.49C150.233 236.363 150.4 236.3 150.6 236.3C150.8 236.3 150.963 236.363 151.09 236.49C151.223 236.61 151.29 236.763 151.29 236.95C151.29 237.137 151.223 237.293 151.09 237.42C150.963 237.54 150.8 237.6 150.6 237.6ZM150.07 243.5V238.54H151.13V243.5H150.07ZM152.379 243.5V238.54H153.319L153.399 239.41C153.553 239.103 153.776 238.863 154.069 238.69C154.369 238.51 154.713 238.42 155.099 238.42C155.699 238.42 156.169 238.607 156.509 238.98C156.856 239.353 157.029 239.91 157.029 240.65V243.5H155.979V240.76C155.979 239.8 155.586 239.32 154.799 239.32C154.406 239.32 154.079 239.46 153.819 239.74C153.566 240.02 153.439 240.42 153.439 240.94V243.5H152.379ZM160.158 241.98C159.898 241.98 159.658 241.95 159.438 241.89L159.008 242.31C159.081 242.357 159.171 242.397 159.278 242.43C159.384 242.463 159.534 242.493 159.728 242.52C159.921 242.547 160.184 242.573 160.518 242.6C161.178 242.66 161.654 242.82 161.948 243.08C162.241 243.333 162.388 243.673 162.388 244.1C162.388 244.393 162.308 244.67 162.148 244.93C161.994 245.197 161.751 245.41 161.418 245.57C161.091 245.737 160.671 245.82 160.158 245.82C159.464 245.82 158.901 245.687 158.468 245.42C158.041 245.16 157.828 244.763 157.828 244.23C157.828 244.023 157.881 243.817 157.988 243.61C158.101 243.41 158.278 243.22 158.518 243.04C158.378 242.98 158.254 242.917 158.148 242.85C158.048 242.777 157.958 242.703 157.878 242.63V242.39L158.738 241.51C158.351 241.177 158.158 240.74 158.158 240.2C158.158 239.873 158.234 239.577 158.388 239.31C158.548 239.037 158.778 238.82 159.078 238.66C159.378 238.5 159.738 238.42 160.158 238.42C160.438 238.42 160.698 238.46 160.938 238.54H162.788V239.24L161.908 239.29C162.068 239.563 162.148 239.867 162.148 240.2C162.148 240.533 162.068 240.833 161.908 241.1C161.754 241.367 161.528 241.58 161.228 241.74C160.934 241.9 160.578 241.98 160.158 241.98ZM160.158 241.15C160.464 241.15 160.711 241.07 160.898 240.91C161.091 240.743 161.188 240.51 161.188 240.21C161.188 239.903 161.091 239.67 160.898 239.51C160.711 239.35 160.464 239.27 160.158 239.27C159.844 239.27 159.591 239.35 159.398 239.51C159.211 239.67 159.118 239.903 159.118 240.21C159.118 240.51 159.211 240.743 159.398 240.91C159.591 241.07 159.844 241.15 160.158 241.15ZM158.828 244.13C158.828 244.417 158.954 244.63 159.208 244.77C159.461 244.917 159.778 244.99 160.158 244.99C160.524 244.99 160.821 244.91 161.048 244.75C161.274 244.597 161.388 244.39 161.388 244.13C161.388 243.937 161.311 243.77 161.158 243.63C161.004 243.497 160.714 243.413 160.288 243.38C159.968 243.36 159.684 243.33 159.438 243.29C159.204 243.417 159.044 243.553 158.958 243.7C158.871 243.847 158.828 243.99 158.828 244.13ZM169.113 243.62C168.419 243.62 167.819 243.47 167.313 243.17C166.813 242.863 166.426 242.44 166.153 241.9C165.879 241.353 165.743 240.723 165.743 240.01C165.743 239.29 165.879 238.66 166.153 238.12C166.426 237.573 166.813 237.147 167.313 236.84C167.819 236.533 168.419 236.38 169.113 236.38C169.933 236.38 170.603 236.58 171.123 236.98C171.643 237.38 171.973 237.94 172.113 238.66H170.933C170.839 238.253 170.639 237.93 170.333 237.69C170.026 237.45 169.616 237.33 169.103 237.33C168.403 237.33 167.849 237.57 167.443 238.05C167.036 238.523 166.833 239.177 166.833 240.01C166.833 240.837 167.036 241.487 167.443 241.96C167.849 242.433 168.403 242.67 169.103 242.67C169.616 242.67 170.026 242.557 170.333 242.33C170.639 242.103 170.839 241.793 170.933 241.4H172.113C171.973 242.093 171.643 242.637 171.123 243.03C170.603 243.423 169.933 243.62 169.113 243.62ZM174.918 243.62C174.318 243.62 173.845 243.433 173.498 243.06C173.158 242.687 172.988 242.13 172.988 241.39V238.54H174.048V241.28C174.048 242.24 174.441 242.72 175.228 242.72C175.621 242.72 175.945 242.58 176.198 242.3C176.451 242.02 176.578 241.62 176.578 241.1V238.54H177.638V243.5H176.698L176.618 242.63C176.465 242.937 176.238 243.18 175.938 243.36C175.645 243.533 175.305 243.62 174.918 243.62ZM178.836 243.5V238.54H179.786L179.876 239.48C180.05 239.153 180.29 238.897 180.596 238.71C180.91 238.517 181.286 238.42 181.726 238.42V239.53H181.436C181.143 239.53 180.88 239.58 180.646 239.68C180.42 239.773 180.236 239.937 180.096 240.17C179.963 240.397 179.896 240.713 179.896 241.12V243.5H178.836ZM182.485 243.5V238.54H183.435L183.525 239.48C183.699 239.153 183.939 238.897 184.245 238.71C184.559 238.517 184.935 238.42 185.375 238.42V239.53H185.085C184.792 239.53 184.529 239.58 184.295 239.68C184.069 239.773 183.885 239.937 183.745 240.17C183.612 240.397 183.545 240.713 183.545 241.12V243.5H182.485ZM188.317 243.62C187.831 243.62 187.397 243.513 187.017 243.3C186.644 243.08 186.351 242.777 186.137 242.39C185.924 242.003 185.817 241.553 185.817 241.04C185.817 240.52 185.921 240.063 186.127 239.67C186.341 239.277 186.634 238.97 187.007 238.75C187.387 238.53 187.827 238.42 188.327 238.42C188.814 238.42 189.237 238.53 189.597 238.75C189.957 238.963 190.237 239.25 190.437 239.61C190.637 239.97 190.737 240.367 190.737 240.8C190.737 240.867 190.734 240.94 190.727 241.02C190.727 241.093 190.724 241.177 190.717 241.27H186.857C186.891 241.75 187.047 242.117 187.327 242.37C187.614 242.617 187.944 242.74 188.317 242.74C188.617 242.74 188.867 242.673 189.067 242.54C189.274 242.4 189.427 242.213 189.527 241.98H190.587C190.454 242.447 190.187 242.837 189.787 243.15C189.394 243.463 188.904 243.62 188.317 243.62ZM188.317 239.29C187.964 239.29 187.651 239.397 187.377 239.61C187.104 239.817 186.937 240.13 186.877 240.55H189.677C189.657 240.163 189.521 239.857 189.267 239.63C189.014 239.403 188.697 239.29 188.317 239.29ZM191.687 243.5V238.54H192.627L192.707 239.41C192.861 239.103 193.084 238.863 193.377 238.69C193.677 238.51 194.021 238.42 194.407 238.42C195.007 238.42 195.477 238.607 195.817 238.98C196.164 239.353 196.337 239.91 196.337 240.65V243.5H195.287V240.76C195.287 239.8 194.894 239.32 194.107 239.32C193.714 239.32 193.387 239.46 193.127 239.74C192.874 240.02 192.747 240.42 192.747 240.94V243.5H191.687ZM199.786 243.62C199.299 243.62 198.862 243.51 198.476 243.29C198.096 243.07 197.796 242.767 197.576 242.38C197.362 241.987 197.256 241.533 197.256 241.02C197.256 240.507 197.362 240.057 197.576 239.67C197.796 239.277 198.096 238.97 198.476 238.75C198.862 238.53 199.299 238.42 199.786 238.42C200.399 238.42 200.912 238.58 201.326 238.9C201.746 239.22 202.016 239.653 202.136 240.2H201.026C200.959 239.927 200.812 239.713 200.586 239.56C200.359 239.407 200.092 239.33 199.786 239.33C199.526 239.33 199.286 239.397 199.066 239.53C198.846 239.657 198.669 239.847 198.536 240.1C198.402 240.347 198.336 240.653 198.336 241.02C198.336 241.387 198.402 241.697 198.536 241.95C198.669 242.197 198.846 242.387 199.066 242.52C199.286 242.653 199.526 242.72 199.786 242.72C200.092 242.72 200.359 242.643 200.586 242.49C200.812 242.337 200.959 242.12 201.026 241.84H202.136C202.022 242.373 201.756 242.803 201.336 243.13C200.916 243.457 200.399 243.62 199.786 243.62ZM203.715 245.7L204.905 243.09H204.615L202.655 238.54H203.805L205.325 242.21L206.915 238.54H208.035L204.835 245.7H203.715Z" fill="#525252"/>
<path d="M132 253C129.515 253 127.5 255.015 127.5 257.5V285.5C127.5 287.985 129.515 290 132 290H488C490.485 290 492.5 287.985 492.5 285.5V257.5C492.5 255.015 490.485 253 488 253H132Z" fill="#EFEFEF"/>
<path d="M147.83 274.62C147.137 274.62 146.537 274.47 146.03 274.17C145.53 273.863 145.143 273.44 144.87 272.9C144.597 272.353 144.46 271.723 144.46 271.01C144.46 270.29 144.597 269.66 144.87 269.12C145.143 268.573 145.53 268.147 146.03 267.84C146.537 267.533 147.137 267.38 147.83 267.38C148.65 267.38 149.32 267.58 149.84 267.98C150.36 268.38 150.69 268.94 150.83 269.66H149.65C149.557 269.253 149.357 268.93 149.05 268.69C148.743 268.45 148.333 268.33 147.82 268.33C147.12 268.33 146.567 268.57 146.16 269.05C145.753 269.523 145.55 270.177 145.55 271.01C145.55 271.837 145.753 272.487 146.16 272.96C146.567 273.433 147.12 273.67 147.82 273.67C148.333 273.67 148.743 273.557 149.05 273.33C149.357 273.103 149.557 272.793 149.65 272.4H150.83C150.69 273.093 150.36 273.637 149.84 274.03C149.32 274.423 148.65 274.62 147.83 274.62ZM151.805 274.5V267.3H152.865V270.34C153.032 270.053 153.262 269.83 153.555 269.67C153.855 269.503 154.185 269.42 154.545 269.42C155.138 269.42 155.605 269.607 155.945 269.98C156.285 270.353 156.455 270.91 156.455 271.65V274.5H155.405V271.76C155.405 270.8 155.022 270.32 154.255 270.32C153.855 270.32 153.522 270.46 153.255 270.74C152.995 271.02 152.865 271.42 152.865 271.94V274.5H151.805ZM159.874 274.62C159.4 274.62 158.974 274.513 158.594 274.3C158.22 274.08 157.924 273.777 157.704 273.39C157.484 272.997 157.374 272.54 157.374 272.02C157.374 271.5 157.484 271.047 157.704 270.66C157.93 270.267 158.234 269.963 158.614 269.75C158.994 269.53 159.417 269.42 159.884 269.42C160.357 269.42 160.78 269.53 161.154 269.75C161.534 269.963 161.834 270.267 162.054 270.66C162.28 271.047 162.394 271.5 162.394 272.02C162.394 272.54 162.28 272.997 162.054 273.39C161.834 273.777 161.534 274.08 161.154 274.3C160.774 274.513 160.347 274.62 159.874 274.62ZM159.874 273.71C160.127 273.71 160.36 273.647 160.574 273.52C160.794 273.393 160.97 273.207 161.104 272.96C161.237 272.707 161.304 272.393 161.304 272.02C161.304 271.647 161.237 271.337 161.104 271.09C160.977 270.837 160.804 270.647 160.584 270.52C160.37 270.393 160.137 270.33 159.884 270.33C159.63 270.33 159.394 270.393 159.174 270.52C158.96 270.647 158.787 270.837 158.654 271.09C158.52 271.337 158.454 271.647 158.454 272.02C158.454 272.393 158.52 272.707 158.654 272.96C158.787 273.207 158.96 273.393 159.174 273.52C159.387 273.647 159.62 273.71 159.874 273.71ZM165.71 274.62C165.237 274.62 164.81 274.513 164.43 274.3C164.057 274.08 163.76 273.777 163.54 273.39C163.32 272.997 163.21 272.54 163.21 272.02C163.21 271.5 163.32 271.047 163.54 270.66C163.767 270.267 164.07 269.963 164.45 269.75C164.83 269.53 165.253 269.42 165.72 269.42C166.193 269.42 166.617 269.53 166.99 269.75C167.37 269.963 167.67 270.267 167.89 270.66C168.117 271.047 168.23 271.5 168.23 272.02C168.23 272.54 168.117 272.997 167.89 273.39C167.67 273.777 167.37 274.08 166.99 274.3C166.61 274.513 166.183 274.62 165.71 274.62ZM165.71 273.71C165.963 273.71 166.197 273.647 166.41 273.52C166.63 273.393 166.807 273.207 166.94 272.96C167.073 272.707 167.14 272.393 167.14 272.02C167.14 271.647 167.073 271.337 166.94 271.09C166.813 270.837 166.64 270.647 166.42 270.52C166.207 270.393 165.973 270.33 165.72 270.33C165.467 270.33 165.23 270.393 165.01 270.52C164.797 270.647 164.623 270.837 164.49 271.09C164.357 271.337 164.29 271.647 164.29 272.02C164.29 272.393 164.357 272.707 164.49 272.96C164.623 273.207 164.797 273.393 165.01 273.52C165.223 273.647 165.457 273.71 165.71 273.71ZM171.206 274.62C170.58 274.62 170.063 274.467 169.656 274.16C169.25 273.853 169.016 273.447 168.956 272.94H170.026C170.08 273.167 170.206 273.363 170.406 273.53C170.606 273.69 170.87 273.77 171.196 273.77C171.516 273.77 171.75 273.703 171.896 273.57C172.043 273.437 172.116 273.283 172.116 273.11C172.116 272.857 172.013 272.687 171.806 272.6C171.606 272.507 171.326 272.423 170.966 272.35C170.686 272.29 170.406 272.21 170.126 272.11C169.853 272.01 169.623 271.87 169.436 271.69C169.256 271.503 169.166 271.253 169.166 270.94C169.166 270.507 169.333 270.147 169.666 269.86C170 269.567 170.466 269.42 171.066 269.42C171.62 269.42 172.066 269.553 172.406 269.82C172.753 270.087 172.956 270.463 173.016 270.95H171.996C171.963 270.737 171.863 270.57 171.696 270.45C171.536 270.33 171.32 270.27 171.046 270.27C170.78 270.27 170.573 270.327 170.426 270.44C170.28 270.547 170.206 270.687 170.206 270.86C170.206 271.033 170.306 271.17 170.506 271.27C170.713 271.37 170.983 271.46 171.316 271.54C171.65 271.613 171.956 271.7 172.236 271.8C172.523 271.893 172.753 272.033 172.926 272.22C173.1 272.407 173.186 272.68 173.186 273.04C173.193 273.493 173.016 273.87 172.656 274.17C172.303 274.47 171.82 274.62 171.206 274.62ZM176.513 274.62C176.027 274.62 175.593 274.513 175.213 274.3C174.84 274.08 174.547 273.777 174.333 273.39C174.12 273.003 174.013 272.553 174.013 272.04C174.013 271.52 174.117 271.063 174.323 270.67C174.537 270.277 174.83 269.97 175.203 269.75C175.583 269.53 176.023 269.42 176.523 269.42C177.01 269.42 177.433 269.53 177.793 269.75C178.153 269.963 178.433 270.25 178.633 270.61C178.833 270.97 178.933 271.367 178.933 271.8C178.933 271.867 178.93 271.94 178.923 272.02C178.923 272.093 178.92 272.177 178.913 272.27H175.053C175.087 272.75 175.243 273.117 175.523 273.37C175.81 273.617 176.14 273.74 176.513 273.74C176.813 273.74 177.063 273.673 177.263 273.54C177.47 273.4 177.623 273.213 177.723 272.98H178.783C178.65 273.447 178.383 273.837 177.983 274.15C177.59 274.463 177.1 274.62 176.513 274.62ZM176.513 270.29C176.16 270.29 175.847 270.397 175.573 270.61C175.3 270.817 175.133 271.13 175.073 271.55H177.873C177.853 271.163 177.717 270.857 177.463 270.63C177.21 270.403 176.893 270.29 176.513 270.29ZM185.413 274.62C184.719 274.62 184.119 274.47 183.613 274.17C183.113 273.863 182.726 273.44 182.453 272.9C182.179 272.353 182.043 271.723 182.043 271.01C182.043 270.29 182.179 269.66 182.453 269.12C182.726 268.573 183.113 268.147 183.613 267.84C184.119 267.533 184.719 267.38 185.413 267.38C186.233 267.38 186.903 267.58 187.423 267.98C187.943 268.38 188.273 268.94 188.413 269.66H187.233C187.139 269.253 186.939 268.93 186.633 268.69C186.326 268.45 185.916 268.33 185.403 268.33C184.703 268.33 184.149 268.57 183.743 269.05C183.336 269.523 183.133 270.177 183.133 271.01C183.133 271.837 183.336 272.487 183.743 272.96C184.149 273.433 184.703 273.67 185.403 273.67C185.916 273.67 186.326 273.557 186.633 273.33C186.939 273.103 187.139 272.793 187.233 272.4H188.413C188.273 273.093 187.943 273.637 187.423 274.03C186.903 274.423 186.233 274.62 185.413 274.62ZM191.218 274.62C190.618 274.62 190.145 274.433 189.798 274.06C189.458 273.687 189.288 273.13 189.288 272.39V269.54H190.348V272.28C190.348 273.24 190.741 273.72 191.528 273.72C191.921 273.72 192.245 273.58 192.498 273.3C192.751 273.02 192.878 272.62 192.878 272.1V269.54H193.938V274.5H192.998L192.918 273.63C192.765 273.937 192.538 274.18 192.238 274.36C191.945 274.533 191.605 274.62 191.218 274.62ZM195.136 274.5V269.54H196.086L196.176 270.48C196.35 270.153 196.59 269.897 196.896 269.71C197.21 269.517 197.586 269.42 198.026 269.42V270.53H197.736C197.443 270.53 197.18 270.58 196.946 270.68C196.72 270.773 196.536 270.937 196.396 271.17C196.263 271.397 196.196 271.713 196.196 272.12V274.5H195.136ZM198.785 274.5V269.54H199.735L199.825 270.48C199.999 270.153 200.239 269.897 200.545 269.71C200.859 269.517 201.235 269.42 201.675 269.42V270.53H201.385C201.092 270.53 200.829 270.58 200.595 270.68C200.369 270.773 200.185 270.937 200.045 271.17C199.912 271.397 199.845 271.713 199.845 272.12V274.5H198.785ZM204.617 274.62C204.131 274.62 203.697 274.513 203.317 274.3C202.944 274.08 202.651 273.777 202.437 273.39C202.224 273.003 202.117 272.553 202.117 272.04C202.117 271.52 202.221 271.063 202.427 270.67C202.641 270.277 202.934 269.97 203.307 269.75C203.687 269.53 204.127 269.42 204.627 269.42C205.114 269.42 205.537 269.53 205.897 269.75C206.257 269.963 206.537 270.25 206.737 270.61C206.937 270.97 207.037 271.367 207.037 271.8C207.037 271.867 207.034 271.94 207.027 272.02C207.027 272.093 207.024 272.177 207.017 272.27H203.157C203.191 272.75 203.347 273.117 203.627 273.37C203.914 273.617 204.244 273.74 204.617 273.74C204.917 273.74 205.167 273.673 205.367 273.54C205.574 273.4 205.727 273.213 205.827 272.98H206.887C206.754 273.447 206.487 273.837 206.087 274.15C205.694 274.463 205.204 274.62 204.617 274.62ZM204.617 270.29C204.264 270.29 203.951 270.397 203.677 270.61C203.404 270.817 203.237 271.13 203.177 271.55H205.977C205.957 271.163 205.821 270.857 205.567 270.63C205.314 270.403 204.997 270.29 204.617 270.29ZM207.987 274.5V269.54H208.927L209.007 270.41C209.161 270.103 209.384 269.863 209.677 269.69C209.977 269.51 210.321 269.42 210.707 269.42C211.307 269.42 211.777 269.607 212.117 269.98C212.464 270.353 212.637 270.91 212.637 271.65V274.5H211.587V271.76C211.587 270.8 211.194 270.32 210.407 270.32C210.014 270.32 209.687 270.46 209.427 270.74C209.174 271.02 209.047 271.42 209.047 271.94V274.5H207.987ZM216.086 274.62C215.599 274.62 215.162 274.51 214.776 274.29C214.396 274.07 214.096 273.767 213.876 273.38C213.662 272.987 213.556 272.533 213.556 272.02C213.556 271.507 213.662 271.057 213.876 270.67C214.096 270.277 214.396 269.97 214.776 269.75C215.162 269.53 215.599 269.42 216.086 269.42C216.699 269.42 217.212 269.58 217.626 269.9C218.046 270.22 218.316 270.653 218.436 271.2H217.326C217.259 270.927 217.112 270.713 216.886 270.56C216.659 270.407 216.392 270.33 216.086 270.33C215.826 270.33 215.586 270.397 215.366 270.53C215.146 270.657 214.969 270.847 214.836 271.1C214.702 271.347 214.636 271.653 214.636 272.02C214.636 272.387 214.702 272.697 214.836 272.95C214.969 273.197 215.146 273.387 215.366 273.52C215.586 273.653 215.826 273.72 216.086 273.72C216.392 273.72 216.659 273.643 216.886 273.49C217.112 273.337 217.259 273.12 217.326 272.84H218.436C218.322 273.373 218.056 273.803 217.636 274.13C217.216 274.457 216.699 274.62 216.086 274.62ZM220.015 276.7L221.205 274.09H220.915L218.955 269.54H220.105L221.625 273.21L223.215 269.54H224.335L221.135 276.7H220.015Z" fill="#1E1E1E"/>
<path d="M132 253C129.515 253 127.5 255.015 127.5 257.5V285.5C127.5 287.985 129.515 290 132 290H488C490.485 290 492.5 287.985 492.5 285.5V257.5C492.5 255.015 490.485 253 488 253H132Z" stroke="#FBFBFB"/>
<mask id="path-8-outside-1_834_1652" maskUnits="userSpaceOnUse" x="127" y="296.5" width="366" height="37" fill="black">
<rect fill="white" x="127" y="296.5" width="366" height="37"/>
<path d="M128 301.5C128 299.291 129.791 297.5 132 297.5H488C490.209 297.5 492 299.291 492 301.5V333.5H128V301.5Z"/>
</mask>
<path d="M128 301.5C128 299.291 129.791 297.5 132 297.5H488C490.209 297.5 492 299.291 492 301.5V333.5H128V301.5Z" fill="#FBFBFB"/>
<path d="M144.71 318.5V311.5H145.77L149.28 316.77V311.5H150.34V318.5H149.28L145.77 313.23V318.5H144.71ZM152.171 312.6C151.971 312.6 151.804 312.54 151.671 312.42C151.544 312.293 151.481 312.137 151.481 311.95C151.481 311.763 151.544 311.61 151.671 311.49C151.804 311.363 151.971 311.3 152.171 311.3C152.371 311.3 152.534 311.363 152.661 311.49C152.794 311.61 152.861 311.763 152.861 311.95C152.861 312.137 152.794 312.293 152.661 312.42C152.534 312.54 152.371 312.6 152.171 312.6ZM151.641 318.5V313.54H152.701V318.5H151.641ZM155.98 316.98C155.72 316.98 155.48 316.95 155.26 316.89L154.83 317.31C154.903 317.357 154.993 317.397 155.1 317.43C155.207 317.463 155.357 317.493 155.55 317.52C155.743 317.547 156.007 317.573 156.34 317.6C157 317.66 157.477 317.82 157.77 318.08C158.063 318.333 158.21 318.673 158.21 319.1C158.21 319.393 158.13 319.67 157.97 319.93C157.817 320.197 157.573 320.41 157.24 320.57C156.913 320.737 156.493 320.82 155.98 320.82C155.287 320.82 154.723 320.687 154.29 320.42C153.863 320.16 153.65 319.763 153.65 319.23C153.65 319.023 153.703 318.817 153.81 318.61C153.923 318.41 154.1 318.22 154.34 318.04C154.2 317.98 154.077 317.917 153.97 317.85C153.87 317.777 153.78 317.703 153.7 317.63V317.39L154.56 316.51C154.173 316.177 153.98 315.74 153.98 315.2C153.98 314.873 154.057 314.577 154.21 314.31C154.37 314.037 154.6 313.82 154.9 313.66C155.2 313.5 155.56 313.42 155.98 313.42C156.26 313.42 156.52 313.46 156.76 313.54H158.61V314.24L157.73 314.29C157.89 314.563 157.97 314.867 157.97 315.2C157.97 315.533 157.89 315.833 157.73 316.1C157.577 316.367 157.35 316.58 157.05 316.74C156.757 316.9 156.4 316.98 155.98 316.98ZM155.98 316.15C156.287 316.15 156.533 316.07 156.72 315.91C156.913 315.743 157.01 315.51 157.01 315.21C157.01 314.903 156.913 314.67 156.72 314.51C156.533 314.35 156.287 314.27 155.98 314.27C155.667 314.27 155.413 314.35 155.22 314.51C155.033 314.67 154.94 314.903 154.94 315.21C154.94 315.51 155.033 315.743 155.22 315.91C155.413 316.07 155.667 316.15 155.98 316.15ZM154.65 319.13C154.65 319.417 154.777 319.63 155.03 319.77C155.283 319.917 155.6 319.99 155.98 319.99C156.347 319.99 156.643 319.91 156.87 319.75C157.097 319.597 157.21 319.39 157.21 319.13C157.21 318.937 157.133 318.77 156.98 318.63C156.827 318.497 156.537 318.413 156.11 318.38C155.79 318.36 155.507 318.33 155.26 318.29C155.027 318.417 154.867 318.553 154.78 318.7C154.693 318.847 154.65 318.99 154.65 319.13ZM161.53 318.62C161.044 318.62 160.61 318.513 160.23 318.3C159.857 318.08 159.564 317.777 159.35 317.39C159.137 317.003 159.03 316.553 159.03 316.04C159.03 315.52 159.134 315.063 159.34 314.67C159.554 314.277 159.847 313.97 160.22 313.75C160.6 313.53 161.04 313.42 161.54 313.42C162.027 313.42 162.45 313.53 162.81 313.75C163.17 313.963 163.45 314.25 163.65 314.61C163.85 314.97 163.95 315.367 163.95 315.8C163.95 315.867 163.947 315.94 163.94 316.02C163.94 316.093 163.937 316.177 163.93 316.27H160.07C160.104 316.75 160.26 317.117 160.54 317.37C160.827 317.617 161.157 317.74 161.53 317.74C161.83 317.74 162.08 317.673 162.28 317.54C162.487 317.4 162.64 317.213 162.74 316.98H163.8C163.667 317.447 163.4 317.837 163 318.15C162.607 318.463 162.117 318.62 161.53 318.62ZM161.53 314.29C161.177 314.29 160.864 314.397 160.59 314.61C160.317 314.817 160.15 315.13 160.09 315.55H162.89C162.87 315.163 162.734 314.857 162.48 314.63C162.227 314.403 161.91 314.29 161.53 314.29ZM164.9 318.5V313.54H165.85L165.94 314.48C166.113 314.153 166.353 313.897 166.66 313.71C166.973 313.517 167.35 313.42 167.79 313.42V314.53H167.5C167.207 314.53 166.943 314.58 166.71 314.68C166.483 314.773 166.3 314.937 166.16 315.17C166.027 315.397 165.96 315.713 165.96 316.12V318.5H164.9ZM169.149 312.6C168.949 312.6 168.782 312.54 168.649 312.42C168.522 312.293 168.459 312.137 168.459 311.95C168.459 311.763 168.522 311.61 168.649 311.49C168.782 311.363 168.949 311.3 169.149 311.3C169.349 311.3 169.512 311.363 169.639 311.49C169.772 311.61 169.839 311.763 169.839 311.95C169.839 312.137 169.772 312.293 169.639 312.42C169.512 312.54 169.349 312.6 169.149 312.6ZM168.619 318.5V313.54H169.679V318.5H168.619ZM172.608 318.62C172.188 318.62 171.842 318.55 171.568 318.41C171.295 318.27 171.092 318.087 170.958 317.86C170.825 317.627 170.758 317.373 170.758 317.1C170.758 316.62 170.945 316.24 171.318 315.96C171.692 315.68 172.225 315.54 172.918 315.54H174.218V315.45C174.218 315.063 174.112 314.773 173.898 314.58C173.692 314.387 173.422 314.29 173.088 314.29C172.795 314.29 172.538 314.363 172.318 314.51C172.105 314.65 171.975 314.86 171.928 315.14H170.868C170.902 314.78 171.022 314.473 171.228 314.22C171.442 313.96 171.708 313.763 172.028 313.63C172.355 313.49 172.712 313.42 173.098 313.42C173.792 313.42 174.328 313.603 174.708 313.97C175.088 314.33 175.278 314.823 175.278 315.45V318.5H174.358L174.268 317.65C174.128 317.923 173.925 318.153 173.658 318.34C173.392 318.527 173.042 318.62 172.608 318.62ZM172.818 317.76C173.105 317.76 173.345 317.693 173.538 317.56C173.738 317.42 173.892 317.237 173.998 317.01C174.112 316.783 174.182 316.533 174.208 316.26H173.028C172.608 316.26 172.308 316.333 172.128 316.48C171.955 316.627 171.868 316.81 171.868 317.03C171.868 317.257 171.952 317.437 172.118 317.57C172.292 317.697 172.525 317.76 172.818 317.76ZM176.364 318.5V313.54H177.304L177.384 314.41C177.537 314.103 177.761 313.863 178.054 313.69C178.354 313.51 178.697 313.42 179.084 313.42C179.684 313.42 180.154 313.607 180.494 313.98C180.841 314.353 181.014 314.91 181.014 315.65V318.5H179.964V315.76C179.964 314.8 179.571 314.32 178.784 314.32C178.391 314.32 178.064 314.46 177.804 314.74C177.551 315.02 177.424 315.42 177.424 315.94V318.5H176.364ZM184.522 318.5V311.5H185.582L189.092 316.77V311.5H190.152V318.5H189.092L185.582 313.23V318.5H184.522ZM193.063 318.62C192.643 318.62 192.296 318.55 192.023 318.41C191.75 318.27 191.546 318.087 191.413 317.86C191.28 317.627 191.213 317.373 191.213 317.1C191.213 316.62 191.4 316.24 191.773 315.96C192.146 315.68 192.68 315.54 193.373 315.54H194.673V315.45C194.673 315.063 194.566 314.773 194.353 314.58C194.146 314.387 193.876 314.29 193.543 314.29C193.25 314.29 192.993 314.363 192.773 314.51C192.56 314.65 192.43 314.86 192.383 315.14H191.323C191.356 314.78 191.476 314.473 191.683 314.22C191.896 313.96 192.163 313.763 192.483 313.63C192.81 313.49 193.166 313.42 193.553 313.42C194.246 313.42 194.783 313.603 195.163 313.97C195.543 314.33 195.733 314.823 195.733 315.45V318.5H194.813L194.723 317.65C194.583 317.923 194.38 318.153 194.113 318.34C193.846 318.527 193.496 318.62 193.063 318.62ZM193.273 317.76C193.56 317.76 193.8 317.693 193.993 317.56C194.193 317.42 194.346 317.237 194.453 317.01C194.566 316.783 194.636 316.533 194.663 316.26H193.483C193.063 316.26 192.763 316.333 192.583 316.48C192.41 316.627 192.323 316.81 192.323 317.03C192.323 317.257 192.406 317.437 192.573 317.57C192.746 317.697 192.98 317.76 193.273 317.76ZM197.419 312.6C197.219 312.6 197.052 312.54 196.919 312.42C196.792 312.293 196.729 312.137 196.729 311.95C196.729 311.763 196.792 311.61 196.919 311.49C197.052 311.363 197.219 311.3 197.419 311.3C197.619 311.3 197.782 311.363 197.909 311.49C198.042 311.61 198.109 311.763 198.109 311.95C198.109 312.137 198.042 312.293 197.909 312.42C197.782 312.54 197.619 312.6 197.419 312.6ZM196.889 318.5V313.54H197.949V318.5H196.889ZM199.198 318.5V313.54H200.148L200.238 314.48C200.411 314.153 200.651 313.897 200.958 313.71C201.271 313.517 201.648 313.42 202.088 313.42V314.53H201.798C201.505 314.53 201.241 314.58 201.008 314.68C200.781 314.773 200.598 314.937 200.458 315.17C200.325 315.397 200.258 315.713 200.258 316.12V318.5H199.198ZM204.527 318.62C204.107 318.62 203.76 318.55 203.487 318.41C203.214 318.27 203.01 318.087 202.877 317.86C202.744 317.627 202.677 317.373 202.677 317.1C202.677 316.62 202.864 316.24 203.237 315.96C203.61 315.68 204.144 315.54 204.837 315.54H206.137V315.45C206.137 315.063 206.03 314.773 205.817 314.58C205.61 314.387 205.34 314.29 205.007 314.29C204.714 314.29 204.457 314.363 204.237 314.51C204.024 314.65 203.894 314.86 203.847 315.14H202.787C202.82 314.78 202.94 314.473 203.147 314.22C203.36 313.96 203.627 313.763 203.947 313.63C204.274 313.49 204.63 313.42 205.017 313.42C205.71 313.42 206.247 313.603 206.627 313.97C207.007 314.33 207.197 314.823 207.197 315.45V318.5H206.277L206.187 317.65C206.047 317.923 205.844 318.153 205.577 318.34C205.31 318.527 204.96 318.62 204.527 318.62ZM204.737 317.76C205.024 317.76 205.264 317.693 205.457 317.56C205.657 317.42 205.81 317.237 205.917 317.01C206.03 316.783 206.1 316.533 206.127 316.26H204.947C204.527 316.26 204.227 316.333 204.047 316.48C203.874 316.627 203.787 316.81 203.787 317.03C203.787 317.257 203.87 317.437 204.037 317.57C204.21 317.697 204.444 317.76 204.737 317.76Z" fill="#1E1E1E"/>
<path d="M127 301.5C127 298.739 129.239 296.5 132 296.5H488C490.761 296.5 493 298.739 493 301.5H491C491 299.843 489.657 298.5 488 298.5H132C130.343 298.5 129 299.843 129 301.5H127ZM492 333.5H128H492ZM127 333.5V301.5C127 298.739 129.239 296.5 132 296.5V298.5C130.343 298.5 129 299.843 129 301.5V333.5H127ZM488 296.5C490.761 296.5 493 298.739 493 301.5V333.5H491V301.5C491 299.843 489.657 298.5 488 298.5V296.5Z" fill="#E7E7E7" mask="url(#path-8-outside-1_834_1652)"/>
<mask id="path-11-outside-2_834_1652" maskUnits="userSpaceOnUse" x="127" y="333.5" width="366" height="37" fill="black">
<rect fill="white" x="127" y="333.5" width="366" height="37"/>
<path d="M128 333.5H492V365.5C492 367.709 490.209 369.5 488 369.5H132C129.791 369.5 128 367.709 128 365.5V333.5Z"/>
</mask>
<path d="M128 333.5H492V365.5C492 367.709 490.209 369.5 488 369.5H132C129.791 369.5 128 367.709 128 365.5V333.5Z" fill="#192CD1"/>
<path d="M144.71 354.5V347.5H145.77V350.5L148.53 347.5H149.84L147.25 350.29L149.9 354.5H148.61L146.49 351.1L145.77 351.88V354.5H144.71ZM152.582 354.62C152.096 354.62 151.662 354.513 151.282 354.3C150.909 354.08 150.616 353.777 150.402 353.39C150.189 353.003 150.082 352.553 150.082 352.04C150.082 351.52 150.186 351.063 150.392 350.67C150.606 350.277 150.899 349.97 151.272 349.75C151.652 349.53 152.092 349.42 152.592 349.42C153.079 349.42 153.502 349.53 153.862 349.75C154.222 349.963 154.502 350.25 154.702 350.61C154.902 350.97 155.002 351.367 155.002 351.8C155.002 351.867 154.999 351.94 154.992 352.02C154.992 352.093 154.989 352.177 154.982 352.27H151.122C151.156 352.75 151.312 353.117 151.592 353.37C151.879 353.617 152.209 353.74 152.582 353.74C152.882 353.74 153.132 353.673 153.332 353.54C153.539 353.4 153.692 353.213 153.792 352.98H154.852C154.719 353.447 154.452 353.837 154.052 354.15C153.659 354.463 153.169 354.62 152.582 354.62ZM152.582 350.29C152.229 350.29 151.916 350.397 151.642 350.61C151.369 350.817 151.202 351.13 151.142 351.55H153.942C153.922 351.163 153.786 350.857 153.532 350.63C153.279 350.403 152.962 350.29 152.582 350.29ZM155.952 354.5V349.54H156.892L156.972 350.41C157.125 350.103 157.349 349.863 157.642 349.69C157.942 349.51 158.285 349.42 158.672 349.42C159.272 349.42 159.742 349.607 160.082 349.98C160.429 350.353 160.602 350.91 160.602 351.65V354.5H159.552V351.76C159.552 350.8 159.159 350.32 158.372 350.32C157.979 350.32 157.652 350.46 157.392 350.74C157.139 351.02 157.012 351.42 157.012 351.94V354.5H155.952ZM162.124 356.7L163.314 354.09H163.024L161.064 349.54H162.214L163.734 353.21L165.324 349.54H166.444L163.244 356.7H162.124ZM168.494 354.62C168.074 354.62 167.727 354.55 167.454 354.41C167.181 354.27 166.977 354.087 166.844 353.86C166.711 353.627 166.644 353.373 166.644 353.1C166.644 352.62 166.831 352.24 167.204 351.96C167.577 351.68 168.111 351.54 168.804 351.54H170.104V351.45C170.104 351.063 169.997 350.773 169.784 350.58C169.577 350.387 169.307 350.29 168.974 350.29C168.681 350.29 168.424 350.363 168.204 350.51C167.991 350.65 167.861 350.86 167.814 351.14H166.754C166.787 350.78 166.907 350.473 167.114 350.22C167.327 349.96 167.594 349.763 167.914 349.63C168.241 349.49 168.597 349.42 168.984 349.42C169.677 349.42 170.214 349.603 170.594 349.97C170.974 350.33 171.164 350.823 171.164 351.45V354.5H170.244L170.154 353.65C170.014 353.923 169.811 354.153 169.544 354.34C169.277 354.527 168.927 354.62 168.494 354.62ZM168.704 353.76C168.991 353.76 169.231 353.693 169.424 353.56C169.624 353.42 169.777 353.237 169.884 353.01C169.997 352.783 170.067 352.533 170.094 352.26H168.914C168.494 352.26 168.194 352.333 168.014 352.48C167.841 352.627 167.754 352.81 167.754 353.03C167.754 353.257 167.837 353.437 168.004 353.57C168.177 353.697 168.411 353.76 168.704 353.76ZM172.25 354.5V349.54H173.19L173.27 350.41C173.423 350.103 173.647 349.863 173.94 349.69C174.24 349.51 174.583 349.42 174.97 349.42C175.57 349.42 176.04 349.607 176.38 349.98C176.727 350.353 176.9 350.91 176.9 351.65V354.5H175.85V351.76C175.85 350.8 175.457 350.32 174.67 350.32C174.277 350.32 173.95 350.46 173.69 350.74C173.437 351.02 173.31 351.42 173.31 351.94V354.5H172.25ZM182.718 354.62C182.205 354.62 181.755 354.53 181.368 354.35C180.981 354.17 180.678 353.913 180.458 353.58C180.245 353.247 180.135 352.85 180.128 352.39H181.248C181.255 352.763 181.385 353.08 181.638 353.34C181.891 353.6 182.248 353.73 182.708 353.73C183.115 353.73 183.431 353.633 183.658 353.44C183.891 353.24 184.008 352.987 184.008 352.68C184.008 352.433 183.951 352.233 183.838 352.08C183.731 351.927 183.581 351.8 183.388 351.7C183.201 351.6 182.985 351.51 182.738 351.43C182.491 351.35 182.231 351.263 181.958 351.17C181.418 350.99 181.011 350.757 180.738 350.47C180.471 350.183 180.338 349.807 180.338 349.34C180.331 348.947 180.421 348.603 180.608 348.31C180.801 348.017 181.068 347.79 181.408 347.63C181.755 347.463 182.158 347.38 182.618 347.38C183.071 347.38 183.468 347.463 183.808 347.63C184.155 347.797 184.425 348.03 184.618 348.33C184.811 348.623 184.911 348.967 184.918 349.36H183.798C183.798 349.18 183.751 349.01 183.658 348.85C183.565 348.683 183.428 348.547 183.248 348.44C183.068 348.333 182.848 348.28 182.588 348.28C182.255 348.273 181.978 348.357 181.758 348.53C181.545 348.703 181.438 348.943 181.438 349.25C181.438 349.523 181.518 349.733 181.678 349.88C181.838 350.027 182.058 350.15 182.338 350.25C182.618 350.343 182.938 350.453 183.298 350.58C183.645 350.693 183.955 350.83 184.228 350.99C184.501 351.15 184.718 351.36 184.878 351.62C185.045 351.88 185.128 352.21 185.128 352.61C185.128 352.963 185.038 353.293 184.858 353.6C184.678 353.9 184.408 354.147 184.048 354.34C183.688 354.527 183.245 354.62 182.718 354.62ZM186.097 354.5V347.3H187.157V350.34C187.324 350.053 187.554 349.83 187.847 349.67C188.147 349.503 188.477 349.42 188.837 349.42C189.43 349.42 189.897 349.607 190.237 349.98C190.577 350.353 190.747 350.91 190.747 351.65V354.5H189.697V351.76C189.697 350.8 189.314 350.32 188.547 350.32C188.147 350.32 187.814 350.46 187.547 350.74C187.287 351.02 187.157 351.42 187.157 351.94V354.5H186.097ZM192.445 348.6C192.245 348.6 192.079 348.54 191.945 348.42C191.819 348.293 191.755 348.137 191.755 347.95C191.755 347.763 191.819 347.61 191.945 347.49C192.079 347.363 192.245 347.3 192.445 347.3C192.645 347.3 192.809 347.363 192.935 347.49C193.069 347.61 193.135 347.763 193.135 347.95C193.135 348.137 193.069 348.293 192.935 348.42C192.809 348.54 192.645 348.6 192.445 348.6ZM191.915 354.5V349.54H192.975V354.5H191.915ZM194.225 354.5V347.3H195.285V354.5H194.225ZM196.477 354.5V347.3H197.537V354.5H196.477ZM199.329 348.6C199.129 348.6 198.963 348.54 198.829 348.42C198.703 348.293 198.639 348.137 198.639 347.95C198.639 347.763 198.703 347.61 198.829 347.49C198.963 347.363 199.129 347.3 199.329 347.3C199.529 347.3 199.693 347.363 199.819 347.49C199.953 347.61 200.019 347.763 200.019 347.95C200.019 348.137 199.953 348.293 199.819 348.42C199.693 348.54 199.529 348.6 199.329 348.6ZM198.799 354.5V349.54H199.859V354.5H198.799ZM201.109 354.5V349.54H202.049L202.129 350.41C202.282 350.103 202.505 349.863 202.799 349.69C203.099 349.51 203.442 349.42 203.829 349.42C204.429 349.42 204.899 349.607 205.239 349.98C205.585 350.353 205.759 350.91 205.759 351.65V354.5H204.709V351.76C204.709 350.8 204.315 350.32 203.529 350.32C203.135 350.32 202.809 350.46 202.549 350.74C202.295 351.02 202.169 351.42 202.169 351.94V354.5H201.109ZM208.887 352.98C208.627 352.98 208.387 352.95 208.167 352.89L207.737 353.31C207.81 353.357 207.9 353.397 208.007 353.43C208.114 353.463 208.264 353.493 208.457 353.52C208.65 353.547 208.914 353.573 209.247 353.6C209.907 353.66 210.384 353.82 210.677 354.08C210.97 354.333 211.117 354.673 211.117 355.1C211.117 355.393 211.037 355.67 210.877 355.93C210.724 356.197 210.48 356.41 210.147 356.57C209.82 356.737 209.4 356.82 208.887 356.82C208.194 356.82 207.63 356.687 207.197 356.42C206.77 356.16 206.557 355.763 206.557 355.23C206.557 355.023 206.61 354.817 206.717 354.61C206.83 354.41 207.007 354.22 207.247 354.04C207.107 353.98 206.984 353.917 206.877 353.85C206.777 353.777 206.687 353.703 206.607 353.63V353.39L207.467 352.51C207.08 352.177 206.887 351.74 206.887 351.2C206.887 350.873 206.964 350.577 207.117 350.31C207.277 350.037 207.507 349.82 207.807 349.66C208.107 349.5 208.467 349.42 208.887 349.42C209.167 349.42 209.427 349.46 209.667 349.54H211.517V350.24L210.637 350.29C210.797 350.563 210.877 350.867 210.877 351.2C210.877 351.533 210.797 351.833 210.637 352.1C210.484 352.367 210.257 352.58 209.957 352.74C209.664 352.9 209.307 352.98 208.887 352.98ZM208.887 352.15C209.194 352.15 209.44 352.07 209.627 351.91C209.82 351.743 209.917 351.51 209.917 351.21C209.917 350.903 209.82 350.67 209.627 350.51C209.44 350.35 209.194 350.27 208.887 350.27C208.574 350.27 208.32 350.35 208.127 350.51C207.94 350.67 207.847 350.903 207.847 351.21C207.847 351.51 207.94 351.743 208.127 351.91C208.32 352.07 208.574 352.15 208.887 352.15ZM207.557 355.13C207.557 355.417 207.684 355.63 207.937 355.77C208.19 355.917 208.507 355.99 208.887 355.99C209.254 355.99 209.55 355.91 209.777 355.75C210.004 355.597 210.117 355.39 210.117 355.13C210.117 354.937 210.04 354.77 209.887 354.63C209.734 354.497 209.444 354.413 209.017 354.38C208.697 354.36 208.414 354.33 208.167 354.29C207.934 354.417 207.774 354.553 207.687 354.7C207.6 354.847 207.557 354.99 207.557 355.13ZM214.293 354.62C213.666 354.62 213.149 354.467 212.743 354.16C212.336 353.853 212.103 353.447 212.043 352.94H213.113C213.166 353.167 213.293 353.363 213.493 353.53C213.693 353.69 213.956 353.77 214.283 353.77C214.603 353.77 214.836 353.703 214.983 353.57C215.129 353.437 215.203 353.283 215.203 353.11C215.203 352.857 215.099 352.687 214.893 352.6C214.693 352.507 214.413 352.423 214.053 352.35C213.773 352.29 213.493 352.21 213.213 352.11C212.939 352.01 212.709 351.87 212.523 351.69C212.343 351.503 212.253 351.253 212.253 350.94C212.253 350.507 212.419 350.147 212.753 349.86C213.086 349.567 213.553 349.42 214.153 349.42C214.706 349.42 215.153 349.553 215.493 349.82C215.839 350.087 216.043 350.463 216.103 350.95H215.083C215.049 350.737 214.949 350.57 214.783 350.45C214.623 350.33 214.406 350.27 214.133 350.27C213.866 350.27 213.659 350.327 213.513 350.44C213.366 350.547 213.293 350.687 213.293 350.86C213.293 351.033 213.393 351.17 213.593 351.27C213.799 351.37 214.069 351.46 214.403 351.54C214.736 351.613 215.043 351.7 215.323 351.8C215.609 351.893 215.839 352.033 216.013 352.22C216.186 352.407 216.273 352.68 216.273 353.04C216.279 353.493 216.103 353.87 215.743 354.17C215.389 354.47 214.906 354.62 214.293 354.62Z" fill="#FBFBFB"/>
<path d="M128 333.5H492H128ZM493 365.5C493 368.261 490.761 370.5 488 370.5H132C129.239 370.5 127 368.261 127 365.5H129C129 367.157 130.343 368.5 132 368.5H488C489.657 368.5 491 367.157 491 365.5H493ZM132 370.5C129.239 370.5 127 368.261 127 365.5V333.5H129V365.5C129 367.157 130.343 368.5 132 368.5V370.5ZM493 333.5V365.5C493 368.261 490.761 370.5 488 370.5V368.5C489.657 368.5 491 367.157 491 365.5V333.5H493Z" fill="#192CD1" mask="url(#path-11-outside-2_834_1652)"/>
<rect x="128" y="389.5" width="364" height="45" rx="22.5" fill="#192CD1"/>
<path d="M283.494 417V407.2H286.924C287.689 407.2 288.324 407.331 288.828 407.592C289.332 407.844 289.705 408.194 289.948 408.642C290.2 409.081 290.326 409.58 290.326 410.14C290.326 410.672 290.205 411.162 289.962 411.61C289.729 412.049 289.36 412.399 288.856 412.66C288.352 412.921 287.708 413.052 286.924 413.052H284.978V417H283.494ZM284.978 411.834H286.854C287.554 411.834 288.053 411.685 288.352 411.386C288.66 411.078 288.814 410.663 288.814 410.14C288.814 409.599 288.66 409.179 288.352 408.88C288.053 408.572 287.554 408.418 286.854 408.418H284.978V411.834ZM291.527 417V410.056H292.857L292.983 411.372C293.225 410.915 293.561 410.555 293.991 410.294C294.429 410.023 294.957 409.888 295.573 409.888V411.442H295.167C294.756 411.442 294.387 411.512 294.061 411.652C293.743 411.783 293.487 412.011 293.291 412.338C293.104 412.655 293.011 413.099 293.011 413.668V417H291.527ZM299.692 417.168C299.029 417.168 298.432 417.019 297.9 416.72C297.377 416.412 296.962 415.987 296.654 415.446C296.346 414.895 296.192 414.256 296.192 413.528C296.192 412.8 296.346 412.165 296.654 411.624C296.971 411.073 297.396 410.649 297.928 410.35C298.46 410.042 299.052 409.888 299.706 409.888C300.368 409.888 300.961 410.042 301.484 410.35C302.016 410.649 302.436 411.073 302.744 411.624C303.061 412.165 303.22 412.8 303.22 413.528C303.22 414.256 303.061 414.895 302.744 415.446C302.436 415.987 302.016 416.412 301.484 416.72C300.952 417.019 300.354 417.168 299.692 417.168ZM299.692 415.894C300.046 415.894 300.373 415.805 300.672 415.628C300.98 415.451 301.227 415.189 301.414 414.844C301.6 414.489 301.694 414.051 301.694 413.528C301.694 413.005 301.6 412.571 301.414 412.226C301.236 411.871 300.994 411.605 300.686 411.428C300.387 411.251 300.06 411.162 299.706 411.162C299.351 411.162 299.02 411.251 298.712 411.428C298.413 411.605 298.17 411.871 297.984 412.226C297.797 412.571 297.704 413.005 297.704 413.528C297.704 414.051 297.797 414.489 297.984 414.844C298.17 415.189 298.413 415.451 298.712 415.628C299.01 415.805 299.337 415.894 299.692 415.894ZM307.905 417.168C307.223 417.168 306.612 417.014 306.071 416.706C305.539 416.398 305.119 415.973 304.811 415.432C304.512 414.881 304.363 414.247 304.363 413.528C304.363 412.809 304.512 412.179 304.811 411.638C305.119 411.087 305.539 410.658 306.071 410.35C306.612 410.042 307.223 409.888 307.905 409.888C308.763 409.888 309.482 410.112 310.061 410.56C310.649 411.008 311.027 411.615 311.195 412.38H309.641C309.547 411.997 309.342 411.699 309.025 411.484C308.707 411.269 308.334 411.162 307.905 411.162C307.541 411.162 307.205 411.255 306.897 411.442C306.589 411.619 306.341 411.885 306.155 412.24C305.968 412.585 305.875 413.015 305.875 413.528C305.875 414.041 305.968 414.475 306.155 414.83C306.341 415.175 306.589 415.441 306.897 415.628C307.205 415.815 307.541 415.908 307.905 415.908C308.334 415.908 308.707 415.801 309.025 415.586C309.342 415.371 309.547 415.068 309.641 414.676H311.195C311.036 415.423 310.663 416.025 310.075 416.482C309.487 416.939 308.763 417.168 307.905 417.168ZM315.842 417.168C315.161 417.168 314.554 417.019 314.022 416.72C313.499 416.412 313.089 415.987 312.79 415.446C312.491 414.905 312.342 414.275 312.342 413.556C312.342 412.828 312.487 412.189 312.776 411.638C313.075 411.087 313.485 410.658 314.008 410.35C314.54 410.042 315.156 409.888 315.856 409.888C316.537 409.888 317.13 410.042 317.634 410.35C318.138 410.649 318.53 411.05 318.81 411.554C319.09 412.058 319.23 412.613 319.23 413.22C319.23 413.313 319.225 413.416 319.216 413.528C319.216 413.631 319.211 413.747 319.202 413.878H313.798C313.845 414.55 314.064 415.063 314.456 415.418C314.857 415.763 315.319 415.936 315.842 415.936C316.262 415.936 316.612 415.843 316.892 415.656C317.181 415.46 317.396 415.199 317.536 414.872H319.02C318.833 415.525 318.46 416.071 317.9 416.51C317.349 416.949 316.663 417.168 315.842 417.168ZM315.842 411.106C315.347 411.106 314.909 411.255 314.526 411.554C314.143 411.843 313.91 412.282 313.826 412.87H317.746C317.718 412.329 317.527 411.899 317.172 411.582C316.817 411.265 316.374 411.106 315.842 411.106ZM323.808 417.168C323.127 417.168 322.52 417.019 321.988 416.72C321.465 416.412 321.055 415.987 320.756 415.446C320.457 414.905 320.308 414.275 320.308 413.556C320.308 412.828 320.453 412.189 320.742 411.638C321.041 411.087 321.451 410.658 321.974 410.35C322.506 410.042 323.122 409.888 323.822 409.888C324.503 409.888 325.096 410.042 325.6 410.35C326.104 410.649 326.496 411.05 326.776 411.554C327.056 412.058 327.196 412.613 327.196 413.22C327.196 413.313 327.191 413.416 327.182 413.528C327.182 413.631 327.177 413.747 327.168 413.878H321.764C321.811 414.55 322.03 415.063 322.422 415.418C322.823 415.763 323.285 415.936 323.808 415.936C324.228 415.936 324.578 415.843 324.858 415.656C325.147 415.46 325.362 415.199 325.502 414.872H326.986C326.799 415.525 326.426 416.071 325.866 416.51C325.315 416.949 324.629 417.168 323.808 417.168ZM323.808 411.106C323.313 411.106 322.875 411.255 322.492 411.554C322.109 411.843 321.876 412.282 321.792 412.87H325.712C325.684 412.329 325.493 411.899 325.138 411.582C324.783 411.265 324.34 411.106 323.808 411.106ZM331.69 417.168C331.018 417.168 330.425 417.009 329.912 416.692C329.398 416.375 328.997 415.941 328.708 415.39C328.418 414.839 328.274 414.214 328.274 413.514C328.274 412.814 328.418 412.193 328.708 411.652C328.997 411.101 329.398 410.672 329.912 410.364C330.434 410.047 331.032 409.888 331.704 409.888C332.254 409.888 332.735 409.995 333.146 410.21C333.566 410.425 333.892 410.728 334.126 411.12V406.92H335.61V417H334.28L334.126 415.922C333.902 416.249 333.594 416.538 333.202 416.79C332.81 417.042 332.306 417.168 331.69 417.168ZM331.956 415.88C332.59 415.88 333.108 415.661 333.51 415.222C333.92 414.783 334.126 414.219 334.126 413.528C334.126 412.828 333.92 412.263 333.51 411.834C333.108 411.395 332.59 411.176 331.956 411.176C331.321 411.176 330.798 411.395 330.388 411.834C329.977 412.263 329.772 412.828 329.772 413.528C329.772 413.985 329.865 414.391 330.052 414.746C330.238 415.101 330.495 415.381 330.822 415.586C331.158 415.782 331.536 415.88 331.956 415.88Z" fill="#FBFBFB"/>
</svg>
