<svg width="620" height="621" viewBox="0 0 620 621" fill="none" xmlns="http://www.w3.org/2000/svg">
<rect y="0.5" width="620" height="620" rx="8" fill="#E7EBFF"/>
<rect x="100" y="121" width="420" height="379" rx="8" fill="#FBFBFB"/>
<path d="M135.368 186.288C134.136 186.288 133.048 186.08 132.104 185.664C131.16 185.232 130.416 184.624 129.872 183.84C129.328 183.04 129.048 182.072 129.032 180.936H132.272C132.304 181.72 132.584 182.384 133.112 182.928C133.656 183.456 134.4 183.72 135.344 183.72C136.16 183.72 136.808 183.528 137.288 183.144C137.768 182.744 138.008 182.216 138.008 181.56C138.008 180.872 137.792 180.336 137.36 179.952C136.944 179.568 136.384 179.256 135.68 179.016C134.976 178.776 134.224 178.52 133.424 178.248C132.128 177.8 131.136 177.224 130.448 176.52C129.776 175.816 129.44 174.88 129.44 173.712C129.424 172.72 129.656 171.872 130.136 171.168C130.632 170.448 131.304 169.896 132.152 169.512C133 169.112 133.976 168.912 135.08 168.912C136.2 168.912 137.184 169.112 138.032 169.512C138.896 169.912 139.568 170.472 140.048 171.192C140.544 171.912 140.808 172.768 140.84 173.76H137.552C137.536 173.168 137.304 172.648 136.856 172.2C136.424 171.736 135.816 171.504 135.032 171.504C134.36 171.488 133.792 171.656 133.328 172.008C132.88 172.344 132.656 172.84 132.656 173.496C132.656 174.056 132.832 174.504 133.184 174.84C133.536 175.16 134.016 175.432 134.624 175.656C135.232 175.88 135.928 176.12 136.712 176.376C137.544 176.664 138.304 177 138.992 177.384C139.68 177.768 140.232 178.28 140.648 178.92C141.064 179.544 141.272 180.352 141.272 181.344C141.272 182.224 141.048 183.04 140.6 183.792C140.152 184.544 139.488 185.152 138.608 185.616C137.728 186.064 136.648 186.288 135.368 186.288ZM145.176 172.248C144.616 172.248 144.152 172.08 143.784 171.744C143.432 171.408 143.256 170.984 143.256 170.472C143.256 169.96 143.432 169.544 143.784 169.224C144.152 168.888 144.616 168.72 145.176 168.72C145.736 168.72 146.192 168.888 146.544 169.224C146.912 169.544 147.096 169.96 147.096 170.472C147.096 170.984 146.912 171.408 146.544 171.744C146.192 172.08 145.736 172.248 145.176 172.248ZM143.64 186V174.096H146.712V186H143.64ZM149.559 186V174.096H152.271L152.511 176.112C152.879 175.408 153.407 174.848 154.095 174.432C154.799 174.016 155.623 173.808 156.567 173.808C158.039 173.808 159.183 174.272 159.999 175.2C160.815 176.128 161.223 177.488 161.223 179.28V186H158.151V179.568C158.151 178.544 157.943 177.76 157.527 177.216C157.111 176.672 156.463 176.4 155.583 176.4C154.719 176.4 154.007 176.704 153.447 177.312C152.903 177.92 152.631 178.768 152.631 179.856V186H149.559ZM168.84 182.448C168.264 182.448 167.728 182.384 167.232 182.256L166.344 183.144C166.616 183.288 166.984 183.408 167.448 183.504C167.912 183.6 168.664 183.696 169.704 183.792C171.288 183.936 172.44 184.312 173.16 184.92C173.88 185.528 174.24 186.368 174.24 187.44C174.24 188.144 174.048 188.808 173.664 189.432C173.28 190.072 172.688 190.584 171.888 190.968C171.088 191.368 170.064 191.568 168.816 191.568C167.12 191.568 165.752 191.248 164.712 190.608C163.672 189.984 163.152 189.04 163.152 187.776C163.152 186.704 163.672 185.776 164.712 184.992C164.392 184.848 164.112 184.696 163.872 184.536C163.648 184.376 163.448 184.208 163.272 184.032V183.48L165.36 181.272C164.432 180.456 163.968 179.408 163.968 178.128C163.968 177.328 164.16 176.6 164.544 175.944C164.944 175.288 165.504 174.768 166.224 174.384C166.944 174 167.816 173.808 168.84 173.808C169.512 173.808 170.136 173.904 170.712 174.096H175.224V175.968L173.184 176.112C173.504 176.72 173.664 177.392 173.664 178.128C173.664 178.928 173.472 179.656 173.088 180.312C172.704 180.968 172.144 181.488 171.408 181.872C170.688 182.256 169.832 182.448 168.84 182.448ZM168.84 180.096C169.464 180.096 169.976 179.928 170.376 179.592C170.792 179.256 171 178.776 171 178.152C171 177.528 170.792 177.048 170.376 176.712C169.976 176.376 169.464 176.208 168.84 176.208C168.184 176.208 167.656 176.376 167.256 176.712C166.856 177.048 166.656 177.528 166.656 178.152C166.656 178.776 166.856 179.256 167.256 179.592C167.656 179.928 168.184 180.096 168.84 180.096ZM165.96 187.464C165.96 188.056 166.232 188.496 166.776 188.784C167.336 189.088 168.016 189.24 168.816 189.24C169.584 189.24 170.208 189.08 170.688 188.76C171.168 188.456 171.408 188.04 171.408 187.512C171.408 187.08 171.248 186.72 170.928 186.432C170.624 186.144 170.008 185.968 169.08 185.904C168.424 185.856 167.816 185.784 167.256 185.688C166.792 185.944 166.456 186.224 166.248 186.528C166.056 186.832 165.96 187.144 165.96 187.464ZM177.104 186V168.72H180.176V186H177.104ZM188.739 186.288C187.539 186.288 186.475 186.032 185.547 185.52C184.619 185.008 183.891 184.288 183.363 183.36C182.835 182.432 182.571 181.36 182.571 180.144C182.571 178.912 182.827 177.816 183.339 176.856C183.867 175.896 184.587 175.152 185.499 174.624C186.427 174.08 187.515 173.808 188.763 173.808C189.931 173.808 190.963 174.064 191.859 174.576C192.755 175.088 193.451 175.792 193.947 176.688C194.459 177.568 194.715 178.552 194.715 179.64C194.715 179.816 194.707 180 194.691 180.192C194.691 180.384 194.683 180.584 194.667 180.792H185.619C185.683 181.72 186.003 182.448 186.579 182.976C187.171 183.504 187.883 183.768 188.715 183.768C189.339 183.768 189.859 183.632 190.275 183.36C190.707 183.072 191.027 182.704 191.235 182.256H194.355C194.131 183.008 193.755 183.696 193.227 184.32C192.715 184.928 192.075 185.408 191.307 185.76C190.555 186.112 189.699 186.288 188.739 186.288ZM188.763 176.304C188.011 176.304 187.347 176.52 186.771 176.952C186.195 177.368 185.827 178.008 185.667 178.872H191.595C191.547 178.088 191.259 177.464 190.731 177C190.203 176.536 189.547 176.304 188.763 176.304ZM206.282 186V171.672H201.386V169.2H214.274V171.672H209.354V186H206.282ZM214.946 186V174.096H217.682L217.97 176.328C218.402 175.56 218.986 174.952 219.722 174.504C220.474 174.04 221.354 173.808 222.362 173.808V177.048H221.498C220.826 177.048 220.226 177.152 219.698 177.36C219.17 177.568 218.754 177.928 218.45 178.44C218.162 178.952 218.018 179.664 218.018 180.576V186H214.946ZM228.205 186.288C227.181 186.288 226.341 186.128 225.685 185.808C225.029 185.472 224.541 185.032 224.221 184.488C223.901 183.944 223.741 183.344 223.741 182.688C223.741 181.584 224.173 180.688 225.037 180C225.901 179.312 227.197 178.968 228.925 178.968H231.949V178.68C231.949 177.864 231.717 177.264 231.253 176.88C230.789 176.496 230.213 176.304 229.525 176.304C228.901 176.304 228.357 176.456 227.893 176.76C227.429 177.048 227.141 177.48 227.029 178.056H224.029C224.109 177.192 224.397 176.44 224.893 175.8C225.405 175.16 226.061 174.672 226.861 174.336C227.661 173.984 228.557 173.808 229.549 173.808C231.245 173.808 232.581 174.232 233.557 175.08C234.533 175.928 235.021 177.128 235.021 178.68V186H232.405L232.117 184.08C231.765 184.72 231.269 185.248 230.629 185.664C230.005 186.08 229.197 186.288 228.205 186.288ZM228.901 183.888C229.781 183.888 230.461 183.6 230.941 183.024C231.437 182.448 231.749 181.736 231.877 180.888H229.261C228.445 180.888 227.861 181.04 227.509 181.344C227.157 181.632 226.981 181.992 226.981 182.424C226.981 182.888 227.157 183.248 227.509 183.504C227.861 183.76 228.325 183.888 228.901 183.888ZM237.593 186V174.096H240.305L240.545 176.112C240.913 175.408 241.441 174.848 242.129 174.432C242.833 174.016 243.657 173.808 244.601 173.808C246.073 173.808 247.217 174.272 248.033 175.2C248.849 176.128 249.257 177.488 249.257 179.28V186H246.185V179.568C246.185 178.544 245.977 177.76 245.561 177.216C245.145 176.672 244.497 176.4 243.617 176.4C242.753 176.4 242.041 176.704 241.481 177.312C240.937 177.92 240.665 178.768 240.665 179.856V186H237.593ZM256.754 186.288C255.698 186.288 254.77 186.12 253.97 185.784C253.17 185.432 252.53 184.952 252.05 184.344C251.57 183.736 251.282 183.032 251.186 182.232H254.282C254.378 182.696 254.634 183.096 255.05 183.432C255.482 183.752 256.034 183.912 256.706 183.912C257.378 183.912 257.866 183.776 258.17 183.504C258.49 183.232 258.65 182.92 258.65 182.568C258.65 182.056 258.426 181.712 257.978 181.536C257.53 181.344 256.906 181.16 256.106 180.984C255.594 180.872 255.074 180.736 254.546 180.576C254.018 180.416 253.53 180.216 253.082 179.976C252.65 179.72 252.298 179.4 252.026 179.016C251.754 178.616 251.618 178.128 251.618 177.552C251.618 176.496 252.034 175.608 252.866 174.888C253.714 174.168 254.898 173.808 256.418 173.808C257.826 173.808 258.946 174.136 259.778 174.792C260.626 175.448 261.13 176.352 261.29 177.504H258.386C258.21 176.624 257.546 176.184 256.394 176.184C255.818 176.184 255.37 176.296 255.05 176.52C254.746 176.744 254.594 177.024 254.594 177.36C254.594 177.712 254.826 177.992 255.29 178.2C255.754 178.408 256.37 178.6 257.138 178.776C257.97 178.968 258.73 179.184 259.418 179.424C260.122 179.648 260.682 179.992 261.098 180.456C261.514 180.904 261.722 181.552 261.722 182.4C261.738 183.136 261.546 183.8 261.146 184.392C260.746 184.984 260.17 185.448 259.418 185.784C258.666 186.12 257.778 186.288 256.754 186.288ZM264.636 186V176.664H263.004V174.096H264.636V172.704C264.636 171.264 264.996 170.24 265.716 169.632C266.452 169.024 267.444 168.72 268.692 168.72H270.012V171.336H269.172C268.644 171.336 268.268 171.44 268.044 171.648C267.82 171.856 267.708 172.208 267.708 172.704V174.096H270.276V176.664H267.708V186H264.636ZM277.664 186.288C276.464 186.288 275.4 186.032 274.472 185.52C273.544 185.008 272.816 184.288 272.288 183.36C271.76 182.432 271.496 181.36 271.496 180.144C271.496 178.912 271.752 177.816 272.264 176.856C272.792 175.896 273.512 175.152 274.424 174.624C275.352 174.08 276.44 173.808 277.688 173.808C278.856 173.808 279.888 174.064 280.784 174.576C281.68 175.088 282.376 175.792 282.872 176.688C283.384 177.568 283.64 178.552 283.64 179.64C283.64 179.816 283.632 180 283.616 180.192C283.616 180.384 283.608 180.584 283.592 180.792H274.544C274.608 181.72 274.928 182.448 275.504 182.976C276.096 183.504 276.808 183.768 277.64 183.768C278.264 183.768 278.784 183.632 279.2 183.36C279.632 183.072 279.952 182.704 280.16 182.256H283.28C283.056 183.008 282.68 183.696 282.152 184.32C281.64 184.928 281 185.408 280.232 185.76C279.48 186.112 278.624 186.288 277.664 186.288ZM277.688 176.304C276.936 176.304 276.272 176.52 275.696 176.952C275.12 177.368 274.752 178.008 274.592 178.872H280.52C280.472 178.088 280.184 177.464 279.656 177C279.128 176.536 278.472 176.304 277.688 176.304ZM285.864 186V174.096H288.6L288.888 176.328C289.32 175.56 289.904 174.952 290.64 174.504C291.392 174.04 292.272 173.808 293.28 173.808V177.048H292.416C291.744 177.048 291.144 177.152 290.616 177.36C290.088 177.568 289.672 177.928 289.368 178.44C289.08 178.952 288.936 179.664 288.936 180.576V186H285.864Z" fill="#1E1E1E"/>
<path d="M128.26 218L130.84 211H132L134.56 218H133.44L132.84 216.29H129.98L129.38 218H128.26ZM130.28 215.45H132.54L131.41 212.26L130.28 215.45ZM137.442 218.12C136.956 218.12 136.519 218.01 136.132 217.79C135.752 217.57 135.452 217.267 135.232 216.88C135.019 216.487 134.912 216.033 134.912 215.52C134.912 215.007 135.019 214.557 135.232 214.17C135.452 213.777 135.752 213.47 136.132 213.25C136.519 213.03 136.956 212.92 137.442 212.92C138.056 212.92 138.569 213.08 138.982 213.4C139.402 213.72 139.672 214.153 139.792 214.7H138.682C138.616 214.427 138.469 214.213 138.242 214.06C138.016 213.907 137.749 213.83 137.442 213.83C137.182 213.83 136.942 213.897 136.722 214.03C136.502 214.157 136.326 214.347 136.192 214.6C136.059 214.847 135.992 215.153 135.992 215.52C135.992 215.887 136.059 216.197 136.192 216.45C136.326 216.697 136.502 216.887 136.722 217.02C136.942 217.153 137.182 217.22 137.442 217.22C137.749 217.22 138.016 217.143 138.242 216.99C138.469 216.837 138.616 216.62 138.682 216.34H139.792C139.679 216.873 139.412 217.303 138.992 217.63C138.572 217.957 138.056 218.12 137.442 218.12ZM143.142 218.12C142.655 218.12 142.219 218.01 141.832 217.79C141.452 217.57 141.152 217.267 140.932 216.88C140.719 216.487 140.612 216.033 140.612 215.52C140.612 215.007 140.719 214.557 140.932 214.17C141.152 213.777 141.452 213.47 141.832 213.25C142.219 213.03 142.655 212.92 143.142 212.92C143.755 212.92 144.269 213.08 144.682 213.4C145.102 213.72 145.372 214.153 145.492 214.7H144.382C144.315 214.427 144.169 214.213 143.942 214.06C143.715 213.907 143.449 213.83 143.142 213.83C142.882 213.83 142.642 213.897 142.422 214.03C142.202 214.157 142.025 214.347 141.892 214.6C141.759 214.847 141.692 215.153 141.692 215.52C141.692 215.887 141.759 216.197 141.892 216.45C142.025 216.697 142.202 216.887 142.422 217.02C142.642 217.153 142.882 217.22 143.142 217.22C143.449 217.22 143.715 217.143 143.942 216.99C144.169 216.837 144.315 216.62 144.382 216.34H145.492C145.379 216.873 145.112 217.303 144.692 217.63C144.272 217.957 143.755 218.12 143.142 218.12ZM148.811 218.12C148.338 218.12 147.911 218.013 147.531 217.8C147.158 217.58 146.861 217.277 146.641 216.89C146.421 216.497 146.311 216.04 146.311 215.52C146.311 215 146.421 214.547 146.641 214.16C146.868 213.767 147.171 213.463 147.551 213.25C147.931 213.03 148.355 212.92 148.821 212.92C149.295 212.92 149.718 213.03 150.091 213.25C150.471 213.463 150.771 213.767 150.991 214.16C151.218 214.547 151.331 215 151.331 215.52C151.331 216.04 151.218 216.497 150.991 216.89C150.771 217.277 150.471 217.58 150.091 217.8C149.711 218.013 149.285 218.12 148.811 218.12ZM148.811 217.21C149.065 217.21 149.298 217.147 149.511 217.02C149.731 216.893 149.908 216.707 150.041 216.46C150.175 216.207 150.241 215.893 150.241 215.52C150.241 215.147 150.175 214.837 150.041 214.59C149.915 214.337 149.741 214.147 149.521 214.02C149.308 213.893 149.075 213.83 148.821 213.83C148.568 213.83 148.331 213.893 148.111 214.02C147.898 214.147 147.725 214.337 147.591 214.59C147.458 214.837 147.391 215.147 147.391 215.52C147.391 215.893 147.458 216.207 147.591 216.46C147.725 216.707 147.898 216.893 148.111 217.02C148.325 217.147 148.558 217.21 148.811 217.21ZM154.158 218.12C153.558 218.12 153.084 217.933 152.738 217.56C152.398 217.187 152.228 216.63 152.228 215.89V213.04H153.288V215.78C153.288 216.74 153.681 217.22 154.468 217.22C154.861 217.22 155.184 217.08 155.438 216.8C155.691 216.52 155.818 216.12 155.818 215.6V213.04H156.878V218H155.938L155.858 217.13C155.704 217.437 155.478 217.68 155.178 217.86C154.884 218.033 154.544 218.12 154.158 218.12ZM158.076 218V213.04H159.016L159.096 213.91C159.25 213.603 159.473 213.363 159.766 213.19C160.066 213.01 160.41 212.92 160.796 212.92C161.396 212.92 161.866 213.107 162.206 213.48C162.553 213.853 162.726 214.41 162.726 215.15V218H161.676V215.26C161.676 214.3 161.283 213.82 160.496 213.82C160.103 213.82 159.776 213.96 159.516 214.24C159.263 214.52 159.136 214.92 159.136 215.44V218H158.076ZM165.905 218C165.418 218 165.031 217.883 164.745 217.65C164.458 217.41 164.315 216.987 164.315 216.38V213.93H163.465V213.04H164.315L164.445 211.78H165.375V213.04H166.775V213.93H165.375V216.38C165.375 216.653 165.431 216.843 165.545 216.95C165.665 217.05 165.868 217.1 166.155 217.1H166.725V218H165.905ZM170.127 218V211H171.187L174.697 216.27V211H175.757V218H174.697L171.187 212.73V218H170.127ZM178.818 218.12C178.218 218.12 177.745 217.933 177.398 217.56C177.058 217.187 176.888 216.63 176.888 215.89V213.04H177.948V215.78C177.948 216.74 178.341 217.22 179.128 217.22C179.521 217.22 179.845 217.08 180.098 216.8C180.351 216.52 180.478 216.12 180.478 215.6V213.04H181.538V218H180.598L180.518 217.13C180.365 217.437 180.138 217.68 179.838 217.86C179.545 218.033 179.205 218.12 178.818 218.12ZM182.736 218V213.04H183.676L183.766 213.74C183.926 213.487 184.136 213.287 184.396 213.14C184.663 212.993 184.97 212.92 185.316 212.92C186.103 212.92 186.65 213.23 186.956 213.85C187.136 213.563 187.376 213.337 187.676 213.17C187.983 213.003 188.313 212.92 188.666 212.92C189.286 212.92 189.773 213.107 190.126 213.48C190.48 213.853 190.656 214.41 190.656 215.15V218H189.596V215.26C189.596 214.3 189.23 213.82 188.496 213.82C188.123 213.82 187.816 213.96 187.576 214.24C187.343 214.52 187.226 214.92 187.226 215.44V218H186.166V215.26C186.166 214.3 185.796 213.82 185.056 213.82C184.69 213.82 184.386 213.96 184.146 214.24C183.913 214.52 183.796 214.92 183.796 215.44V218H182.736ZM194.537 218.12C194.15 218.12 193.807 218.043 193.507 217.89C193.213 217.737 192.98 217.52 192.807 217.24L192.697 218H191.747V210.8H192.807V213.81C192.967 213.577 193.187 213.37 193.467 213.19C193.747 213.01 194.107 212.92 194.547 212.92C195.027 212.92 195.45 213.033 195.817 213.26C196.183 213.487 196.47 213.797 196.677 214.19C196.89 214.583 196.997 215.03 196.997 215.53C196.997 216.03 196.89 216.477 196.677 216.87C196.47 217.257 196.183 217.563 195.817 217.79C195.45 218.01 195.023 218.12 194.537 218.12ZM194.357 217.2C194.81 217.2 195.183 217.047 195.477 216.74C195.77 216.427 195.917 216.02 195.917 215.52C195.917 215.193 195.85 214.903 195.717 214.65C195.583 214.397 195.4 214.2 195.167 214.06C194.933 213.913 194.663 213.84 194.357 213.84C193.903 213.84 193.53 213.997 193.237 214.31C192.95 214.623 192.807 215.027 192.807 215.52C192.807 216.02 192.95 216.427 193.237 216.74C193.53 217.047 193.903 217.2 194.357 217.2ZM200.313 218.12C199.826 218.12 199.393 218.013 199.013 217.8C198.64 217.58 198.346 217.277 198.133 216.89C197.92 216.503 197.813 216.053 197.813 215.54C197.813 215.02 197.916 214.563 198.123 214.17C198.336 213.777 198.63 213.47 199.003 213.25C199.383 213.03 199.823 212.92 200.323 212.92C200.81 212.92 201.233 213.03 201.593 213.25C201.953 213.463 202.233 213.75 202.433 214.11C202.633 214.47 202.733 214.867 202.733 215.3C202.733 215.367 202.73 215.44 202.723 215.52C202.723 215.593 202.72 215.677 202.713 215.77H198.853C198.886 216.25 199.043 216.617 199.323 216.87C199.61 217.117 199.94 217.24 200.313 217.24C200.613 217.24 200.863 217.173 201.063 217.04C201.27 216.9 201.423 216.713 201.523 216.48H202.583C202.45 216.947 202.183 217.337 201.783 217.65C201.39 217.963 200.9 218.12 200.313 218.12ZM200.313 213.79C199.96 213.79 199.646 213.897 199.373 214.11C199.1 214.317 198.933 214.63 198.873 215.05H201.673C201.653 214.663 201.516 214.357 201.263 214.13C201.01 213.903 200.693 213.79 200.313 213.79ZM203.683 218V213.04H204.633L204.723 213.98C204.896 213.653 205.136 213.397 205.443 213.21C205.756 213.017 206.133 212.92 206.573 212.92V214.03H206.283C205.99 214.03 205.726 214.08 205.493 214.18C205.266 214.273 205.083 214.437 204.943 214.67C204.81 214.897 204.743 215.213 204.743 215.62V218H203.683Z" fill="#525252"/>
<path d="M144.57 249V248.24C145.023 247.88 145.457 247.517 145.87 247.15C146.283 246.783 146.65 246.423 146.97 246.07C147.297 245.71 147.553 245.36 147.74 245.02C147.927 244.673 148.02 244.34 148.02 244.02C148.02 243.807 147.983 243.607 147.91 243.42C147.837 243.227 147.717 243.073 147.55 242.96C147.383 242.84 147.16 242.78 146.88 242.78C146.46 242.78 146.143 242.913 145.93 243.18C145.723 243.447 145.623 243.767 145.63 244.14H144.6C144.607 243.647 144.71 243.233 144.91 242.9C145.117 242.567 145.39 242.313 145.73 242.14C146.077 241.967 146.467 241.88 146.9 241.88C147.56 241.88 148.087 242.067 148.48 242.44C148.88 242.807 149.08 243.32 149.08 243.98C149.08 244.373 148.983 244.763 148.79 245.15C148.603 245.537 148.357 245.91 148.05 246.27C147.75 246.623 147.427 246.957 147.08 247.27C146.733 247.583 146.403 247.867 146.09 248.12H149.29V249H144.57ZM150.143 249V248.24C150.596 247.88 151.029 247.517 151.443 247.15C151.856 246.783 152.223 246.423 152.543 246.07C152.869 245.71 153.126 245.36 153.313 245.02C153.499 244.673 153.593 244.34 153.593 244.02C153.593 243.807 153.556 243.607 153.483 243.42C153.409 243.227 153.289 243.073 153.123 242.96C152.956 242.84 152.733 242.78 152.453 242.78C152.033 242.78 151.716 242.913 151.503 243.18C151.296 243.447 151.196 243.767 151.203 244.14H150.173C150.179 243.647 150.283 243.233 150.483 242.9C150.689 242.567 150.963 242.313 151.303 242.14C151.649 241.967 152.039 241.88 152.473 241.88C153.133 241.88 153.659 242.067 154.053 242.44C154.453 242.807 154.653 243.32 154.653 243.98C154.653 244.373 154.556 244.763 154.363 245.15C154.176 245.537 153.929 245.91 153.623 246.27C153.323 246.623 152.999 246.957 152.653 247.27C152.306 247.583 151.976 247.867 151.663 248.12H154.863V249H150.143ZM158.095 249.12C157.642 249.12 157.229 249.04 156.855 248.88C156.489 248.713 156.195 248.463 155.975 248.13C155.755 247.797 155.639 247.38 155.625 246.88H156.675C156.689 247.253 156.815 247.57 157.055 247.83C157.302 248.083 157.649 248.21 158.095 248.21C158.522 248.21 158.849 248.093 159.075 247.86C159.302 247.62 159.415 247.323 159.415 246.97C159.415 246.543 159.262 246.227 158.955 246.02C158.655 245.813 158.285 245.71 157.845 245.71H157.325V244.83H157.855C158.249 244.83 158.565 244.737 158.805 244.55C159.052 244.363 159.175 244.1 159.175 243.76C159.175 243.473 159.079 243.24 158.885 243.06C158.699 242.88 158.432 242.79 158.085 242.79C157.725 242.79 157.442 242.897 157.235 243.11C157.029 243.317 156.915 243.577 156.895 243.89H155.845C155.859 243.483 155.959 243.13 156.145 242.83C156.339 242.53 156.602 242.297 156.935 242.13C157.269 241.963 157.652 241.88 158.085 241.88C158.552 241.88 158.942 241.963 159.255 242.13C159.575 242.29 159.815 242.51 159.975 242.79C160.142 243.063 160.225 243.363 160.225 243.69C160.225 244.063 160.122 244.39 159.915 244.67C159.709 244.95 159.432 245.137 159.085 245.23C159.485 245.317 159.815 245.513 160.075 245.82C160.335 246.12 160.465 246.51 160.465 246.99C160.465 247.377 160.375 247.733 160.195 248.06C160.015 248.38 159.749 248.637 159.395 248.83C159.042 249.023 158.609 249.12 158.095 249.12ZM161.483 249V248.24C161.937 247.88 162.37 247.517 162.783 247.15C163.197 246.783 163.563 246.423 163.883 246.07C164.21 245.71 164.467 245.36 164.653 245.02C164.84 244.673 164.933 244.34 164.933 244.02C164.933 243.807 164.897 243.607 164.823 243.42C164.75 243.227 164.63 243.073 164.463 242.96C164.297 242.84 164.073 242.78 163.793 242.78C163.373 242.78 163.057 242.913 162.843 243.18C162.637 243.447 162.537 243.767 162.543 244.14H161.513C161.52 243.647 161.623 243.233 161.823 242.9C162.03 242.567 162.303 242.313 162.643 242.14C162.99 241.967 163.38 241.88 163.813 241.88C164.473 241.88 165 242.067 165.393 242.44C165.793 242.807 165.993 243.32 165.993 243.98C165.993 244.373 165.897 244.763 165.703 245.15C165.517 245.537 165.27 245.91 164.963 246.27C164.663 246.623 164.34 246.957 163.993 247.27C163.647 247.583 163.317 247.867 163.003 248.12H166.203V249H161.483ZM167.916 249V243.2L166.786 243.46V242.68L168.336 242H169.016V249H167.916ZM172.528 249.12C172.075 249.12 171.661 249.04 171.288 248.88C170.921 248.713 170.628 248.463 170.408 248.13C170.188 247.797 170.071 247.38 170.058 246.88H171.108C171.121 247.253 171.248 247.57 171.488 247.83C171.735 248.083 172.081 248.21 172.528 248.21C172.955 248.21 173.281 248.093 173.508 247.86C173.735 247.62 173.848 247.323 173.848 246.97C173.848 246.543 173.695 246.227 173.388 246.02C173.088 245.813 172.718 245.71 172.278 245.71H171.758V244.83H172.288C172.681 244.83 172.998 244.737 173.238 244.55C173.485 244.363 173.608 244.1 173.608 243.76C173.608 243.473 173.511 243.24 173.318 243.06C173.131 242.88 172.865 242.79 172.518 242.79C172.158 242.79 171.875 242.897 171.668 243.11C171.461 243.317 171.348 243.577 171.328 243.89H170.278C170.291 243.483 170.391 243.13 170.578 242.83C170.771 242.53 171.035 242.297 171.368 242.13C171.701 241.963 172.085 241.88 172.518 241.88C172.985 241.88 173.375 241.963 173.688 242.13C174.008 242.29 174.248 242.51 174.408 242.79C174.575 243.063 174.658 243.363 174.658 243.69C174.658 244.063 174.555 244.39 174.348 244.67C174.141 244.95 173.865 245.137 173.518 245.23C173.918 245.317 174.248 245.513 174.508 245.82C174.768 246.12 174.898 246.51 174.898 246.99C174.898 247.377 174.808 247.733 174.628 248.06C174.448 248.38 174.181 248.637 173.828 248.83C173.475 249.023 173.041 249.12 172.528 249.12ZM179.246 249V247.6H175.736V246.76L179.076 242H180.296V246.68H181.276V247.6H180.296V249H179.246ZM176.886 246.68H179.306V243.17L176.886 246.68ZM181.997 249V248.24C182.45 247.88 182.883 247.517 183.297 247.15C183.71 246.783 184.077 246.423 184.397 246.07C184.723 245.71 184.98 245.36 185.167 245.02C185.353 244.673 185.447 244.34 185.447 244.02C185.447 243.807 185.41 243.607 185.337 243.42C185.263 243.227 185.143 243.073 184.977 242.96C184.81 242.84 184.587 242.78 184.307 242.78C183.887 242.78 183.57 242.913 183.357 243.18C183.15 243.447 183.05 243.767 183.057 244.14H182.027C182.033 243.647 182.137 243.233 182.337 242.9C182.543 242.567 182.817 242.313 183.157 242.14C183.503 241.967 183.893 241.88 184.327 241.88C184.987 241.88 185.513 242.067 185.907 242.44C186.307 242.807 186.507 243.32 186.507 243.98C186.507 244.373 186.41 244.763 186.217 245.15C186.03 245.537 185.783 245.91 185.477 246.27C185.177 246.623 184.853 246.957 184.507 247.27C184.16 247.583 183.83 247.867 183.517 248.12H186.717V249H181.997ZM188.429 249V243.2L187.299 243.46V242.68L188.849 242H189.529V249H188.429ZM190.661 249V248.24C191.115 247.88 191.548 247.517 191.961 247.15C192.375 246.783 192.741 246.423 193.061 246.07C193.388 245.71 193.645 245.36 193.831 245.02C194.018 244.673 194.111 244.34 194.111 244.02C194.111 243.807 194.075 243.607 194.001 243.42C193.928 243.227 193.808 243.073 193.641 242.96C193.475 242.84 193.251 242.78 192.971 242.78C192.551 242.78 192.235 242.913 192.021 243.18C191.815 243.447 191.715 243.767 191.721 244.14H190.691C190.698 243.647 190.801 243.233 191.001 242.9C191.208 242.567 191.481 242.313 191.821 242.14C192.168 241.967 192.558 241.88 192.991 241.88C193.651 241.88 194.178 242.067 194.571 242.44C194.971 242.807 195.171 243.32 195.171 243.98C195.171 244.373 195.075 244.763 194.881 245.15C194.695 245.537 194.448 245.91 194.141 246.27C193.841 246.623 193.518 246.957 193.171 247.27C192.825 247.583 192.495 247.867 192.181 248.12H195.381V249H190.661ZM198.614 249.12C198.161 249.12 197.747 249.04 197.374 248.88C197.007 248.713 196.714 248.463 196.494 248.13C196.274 247.797 196.157 247.38 196.144 246.88H197.194C197.207 247.253 197.334 247.57 197.574 247.83C197.821 248.083 198.167 248.21 198.614 248.21C199.041 248.21 199.367 248.093 199.594 247.86C199.821 247.62 199.934 247.323 199.934 246.97C199.934 246.543 199.781 246.227 199.474 246.02C199.174 245.813 198.804 245.71 198.364 245.71H197.844V244.83H198.374C198.767 244.83 199.084 244.737 199.324 244.55C199.571 244.363 199.694 244.1 199.694 243.76C199.694 243.473 199.597 243.24 199.404 243.06C199.217 242.88 198.951 242.79 198.604 242.79C198.244 242.79 197.961 242.897 197.754 243.11C197.547 243.317 197.434 243.577 197.414 243.89H196.364C196.377 243.483 196.477 243.13 196.664 242.83C196.857 242.53 197.121 242.297 197.454 242.13C197.787 241.963 198.171 241.88 198.604 241.88C199.071 241.88 199.461 241.963 199.774 242.13C200.094 242.29 200.334 242.51 200.494 242.79C200.661 243.063 200.744 243.363 200.744 243.69C200.744 244.063 200.641 244.39 200.434 244.67C200.227 244.95 199.951 245.137 199.604 245.23C200.004 245.317 200.334 245.513 200.594 245.82C200.854 246.12 200.984 246.51 200.984 246.99C200.984 247.377 200.894 247.733 200.714 248.06C200.534 248.38 200.267 248.637 199.914 248.83C199.561 249.023 199.127 249.12 198.614 249.12ZM202.735 249V243.2L201.605 243.46V242.68L203.155 242H203.835V249H202.735Z" fill="#1E1E1E"/>
<rect x="127.5" y="227.5" width="365" height="37" rx="4.5" stroke="#E7E7E7"/>
<path d="M128.26 287L130.84 280H132L134.56 287H133.44L132.84 285.29H129.98L129.38 287H128.26ZM130.28 284.45H132.54L131.41 281.26L130.28 284.45ZM137.442 287.12C136.956 287.12 136.519 287.01 136.132 286.79C135.752 286.57 135.452 286.267 135.232 285.88C135.019 285.487 134.912 285.033 134.912 284.52C134.912 284.007 135.019 283.557 135.232 283.17C135.452 282.777 135.752 282.47 136.132 282.25C136.519 282.03 136.956 281.92 137.442 281.92C138.056 281.92 138.569 282.08 138.982 282.4C139.402 282.72 139.672 283.153 139.792 283.7H138.682C138.616 283.427 138.469 283.213 138.242 283.06C138.016 282.907 137.749 282.83 137.442 282.83C137.182 282.83 136.942 282.897 136.722 283.03C136.502 283.157 136.326 283.347 136.192 283.6C136.059 283.847 135.992 284.153 135.992 284.52C135.992 284.887 136.059 285.197 136.192 285.45C136.326 285.697 136.502 285.887 136.722 286.02C136.942 286.153 137.182 286.22 137.442 286.22C137.749 286.22 138.016 286.143 138.242 285.99C138.469 285.837 138.616 285.62 138.682 285.34H139.792C139.679 285.873 139.412 286.303 138.992 286.63C138.572 286.957 138.056 287.12 137.442 287.12ZM143.142 287.12C142.655 287.12 142.219 287.01 141.832 286.79C141.452 286.57 141.152 286.267 140.932 285.88C140.719 285.487 140.612 285.033 140.612 284.52C140.612 284.007 140.719 283.557 140.932 283.17C141.152 282.777 141.452 282.47 141.832 282.25C142.219 282.03 142.655 281.92 143.142 281.92C143.755 281.92 144.269 282.08 144.682 282.4C145.102 282.72 145.372 283.153 145.492 283.7H144.382C144.315 283.427 144.169 283.213 143.942 283.06C143.715 282.907 143.449 282.83 143.142 282.83C142.882 282.83 142.642 282.897 142.422 283.03C142.202 283.157 142.025 283.347 141.892 283.6C141.759 283.847 141.692 284.153 141.692 284.52C141.692 284.887 141.759 285.197 141.892 285.45C142.025 285.697 142.202 285.887 142.422 286.02C142.642 286.153 142.882 286.22 143.142 286.22C143.449 286.22 143.715 286.143 143.942 285.99C144.169 285.837 144.315 285.62 144.382 285.34H145.492C145.379 285.873 145.112 286.303 144.692 286.63C144.272 286.957 143.755 287.12 143.142 287.12ZM148.811 287.12C148.338 287.12 147.911 287.013 147.531 286.8C147.158 286.58 146.861 286.277 146.641 285.89C146.421 285.497 146.311 285.04 146.311 284.52C146.311 284 146.421 283.547 146.641 283.16C146.868 282.767 147.171 282.463 147.551 282.25C147.931 282.03 148.355 281.92 148.821 281.92C149.295 281.92 149.718 282.03 150.091 282.25C150.471 282.463 150.771 282.767 150.991 283.16C151.218 283.547 151.331 284 151.331 284.52C151.331 285.04 151.218 285.497 150.991 285.89C150.771 286.277 150.471 286.58 150.091 286.8C149.711 287.013 149.285 287.12 148.811 287.12ZM148.811 286.21C149.065 286.21 149.298 286.147 149.511 286.02C149.731 285.893 149.908 285.707 150.041 285.46C150.175 285.207 150.241 284.893 150.241 284.52C150.241 284.147 150.175 283.837 150.041 283.59C149.915 283.337 149.741 283.147 149.521 283.02C149.308 282.893 149.075 282.83 148.821 282.83C148.568 282.83 148.331 282.893 148.111 283.02C147.898 283.147 147.725 283.337 147.591 283.59C147.458 283.837 147.391 284.147 147.391 284.52C147.391 284.893 147.458 285.207 147.591 285.46C147.725 285.707 147.898 285.893 148.111 286.02C148.325 286.147 148.558 286.21 148.811 286.21ZM154.158 287.12C153.558 287.12 153.084 286.933 152.738 286.56C152.398 286.187 152.228 285.63 152.228 284.89V282.04H153.288V284.78C153.288 285.74 153.681 286.22 154.468 286.22C154.861 286.22 155.184 286.08 155.438 285.8C155.691 285.52 155.818 285.12 155.818 284.6V282.04H156.878V287H155.938L155.858 286.13C155.704 286.437 155.478 286.68 155.178 286.86C154.884 287.033 154.544 287.12 154.158 287.12ZM158.076 287V282.04H159.016L159.096 282.91C159.25 282.603 159.473 282.363 159.766 282.19C160.066 282.01 160.41 281.92 160.796 281.92C161.396 281.92 161.866 282.107 162.206 282.48C162.553 282.853 162.726 283.41 162.726 284.15V287H161.676V284.26C161.676 283.3 161.283 282.82 160.496 282.82C160.103 282.82 159.776 282.96 159.516 283.24C159.263 283.52 159.136 283.92 159.136 284.44V287H158.076ZM165.905 287C165.418 287 165.031 286.883 164.745 286.65C164.458 286.41 164.315 285.987 164.315 285.38V282.93H163.465V282.04H164.315L164.445 280.78H165.375V282.04H166.775V282.93H165.375V285.38C165.375 285.653 165.431 285.843 165.545 285.95C165.665 286.05 165.868 286.1 166.155 286.1H166.725V287H165.905ZM170.127 287V280H171.187L174.697 285.27V280H175.757V287H174.697L171.187 281.73V287H170.127ZM178.668 287.12C178.248 287.12 177.901 287.05 177.628 286.91C177.355 286.77 177.151 286.587 177.018 286.36C176.885 286.127 176.818 285.873 176.818 285.6C176.818 285.12 177.005 284.74 177.378 284.46C177.751 284.18 178.285 284.04 178.978 284.04H180.278V283.95C180.278 283.563 180.171 283.273 179.958 283.08C179.751 282.887 179.481 282.79 179.148 282.79C178.855 282.79 178.598 282.863 178.378 283.01C178.165 283.15 178.035 283.36 177.988 283.64H176.928C176.961 283.28 177.081 282.973 177.288 282.72C177.501 282.46 177.768 282.263 178.088 282.13C178.415 281.99 178.771 281.92 179.158 281.92C179.851 281.92 180.388 282.103 180.768 282.47C181.148 282.83 181.338 283.323 181.338 283.95V287H180.418L180.328 286.15C180.188 286.423 179.985 286.653 179.718 286.84C179.451 287.027 179.101 287.12 178.668 287.12ZM178.878 286.26C179.165 286.26 179.405 286.193 179.598 286.06C179.798 285.92 179.951 285.737 180.058 285.51C180.171 285.283 180.241 285.033 180.268 284.76H179.088C178.668 284.76 178.368 284.833 178.188 284.98C178.015 285.127 177.928 285.31 177.928 285.53C177.928 285.757 178.011 285.937 178.178 286.07C178.351 286.197 178.585 286.26 178.878 286.26ZM182.424 287V282.04H183.364L183.454 282.74C183.614 282.487 183.824 282.287 184.084 282.14C184.351 281.993 184.657 281.92 185.004 281.92C185.791 281.92 186.337 282.23 186.644 282.85C186.824 282.563 187.064 282.337 187.364 282.17C187.671 282.003 188.001 281.92 188.354 281.92C188.974 281.92 189.461 282.107 189.814 282.48C190.167 282.853 190.344 283.41 190.344 284.15V287H189.284V284.26C189.284 283.3 188.917 282.82 188.184 282.82C187.811 282.82 187.504 282.96 187.264 283.24C187.031 283.52 186.914 283.92 186.914 284.44V287H185.854V284.26C185.854 283.3 185.484 282.82 184.744 282.82C184.377 282.82 184.074 282.96 183.834 283.24C183.601 283.52 183.484 283.92 183.484 284.44V287H182.424ZM193.754 287.12C193.267 287.12 192.834 287.013 192.454 286.8C192.081 286.58 191.787 286.277 191.574 285.89C191.361 285.503 191.254 285.053 191.254 284.54C191.254 284.02 191.357 283.563 191.564 283.17C191.777 282.777 192.071 282.47 192.444 282.25C192.824 282.03 193.264 281.92 193.764 281.92C194.251 281.92 194.674 282.03 195.034 282.25C195.394 282.463 195.674 282.75 195.874 283.11C196.074 283.47 196.174 283.867 196.174 284.3C196.174 284.367 196.171 284.44 196.164 284.52C196.164 284.593 196.161 284.677 196.154 284.77H192.294C192.327 285.25 192.484 285.617 192.764 285.87C193.051 286.117 193.381 286.24 193.754 286.24C194.054 286.24 194.304 286.173 194.504 286.04C194.711 285.9 194.864 285.713 194.964 285.48H196.024C195.891 285.947 195.624 286.337 195.224 286.65C194.831 286.963 194.341 287.12 193.754 287.12ZM193.754 282.79C193.401 282.79 193.087 282.897 192.814 283.11C192.541 283.317 192.374 283.63 192.314 284.05H195.114C195.094 283.663 194.957 283.357 194.704 283.13C194.451 282.903 194.134 282.79 193.754 282.79Z" fill="#525252"/>
<path d="M146.4 318.12C145.747 318.12 145.227 317.937 144.84 317.57C144.46 317.203 144.27 316.687 144.27 316.02H145.33C145.33 316.353 145.41 316.63 145.57 316.85C145.737 317.07 146.007 317.18 146.38 317.18C146.747 317.18 147.007 317.077 147.16 316.87C147.313 316.657 147.39 316.387 147.39 316.06V311H148.45V316.06C148.45 316.72 148.267 317.23 147.9 317.59C147.533 317.943 147.033 318.12 146.4 318.12ZM151.356 318.12C150.936 318.12 150.59 318.05 150.316 317.91C150.043 317.77 149.84 317.587 149.706 317.36C149.573 317.127 149.506 316.873 149.506 316.6C149.506 316.12 149.693 315.74 150.066 315.46C150.44 315.18 150.973 315.04 151.666 315.04H152.966V314.95C152.966 314.563 152.86 314.273 152.646 314.08C152.44 313.887 152.17 313.79 151.836 313.79C151.543 313.79 151.286 313.863 151.066 314.01C150.853 314.15 150.723 314.36 150.676 314.64H149.616C149.65 314.28 149.77 313.973 149.976 313.72C150.19 313.46 150.456 313.263 150.776 313.13C151.103 312.99 151.46 312.92 151.846 312.92C152.54 312.92 153.076 313.103 153.456 313.47C153.836 313.83 154.026 314.323 154.026 314.95V318H153.106L153.016 317.15C152.876 317.423 152.673 317.653 152.406 317.84C152.14 318.027 151.79 318.12 151.356 318.12ZM151.566 317.26C151.853 317.26 152.093 317.193 152.286 317.06C152.486 316.92 152.64 316.737 152.746 316.51C152.86 316.283 152.93 316.033 152.956 315.76H151.776C151.356 315.76 151.056 315.833 150.876 315.98C150.703 316.127 150.616 316.31 150.616 316.53C150.616 316.757 150.7 316.937 150.866 317.07C151.04 317.197 151.273 317.26 151.566 317.26ZM155.112 318V313.04H156.052L156.132 313.91C156.286 313.603 156.509 313.363 156.802 313.19C157.102 313.01 157.446 312.92 157.832 312.92C158.432 312.92 158.902 313.107 159.242 313.48C159.589 313.853 159.762 314.41 159.762 315.15V318H158.712V315.26C158.712 314.3 158.319 313.82 157.532 313.82C157.139 313.82 156.812 313.96 156.552 314.24C156.299 314.52 156.172 314.92 156.172 315.44V318H155.112ZM163.181 318.12C162.694 318.12 162.261 318.013 161.881 317.8C161.507 317.58 161.214 317.277 161.001 316.89C160.787 316.503 160.681 316.053 160.681 315.54C160.681 315.02 160.784 314.563 160.991 314.17C161.204 313.777 161.497 313.47 161.871 313.25C162.251 313.03 162.691 312.92 163.191 312.92C163.677 312.92 164.101 313.03 164.461 313.25C164.821 313.463 165.101 313.75 165.301 314.11C165.501 314.47 165.601 314.867 165.601 315.3C165.601 315.367 165.597 315.44 165.591 315.52C165.591 315.593 165.587 315.677 165.581 315.77H161.721C161.754 316.25 161.911 316.617 162.191 316.87C162.477 317.117 162.807 317.24 163.181 317.24C163.481 317.24 163.731 317.173 163.931 317.04C164.137 316.9 164.291 316.713 164.391 316.48H165.451C165.317 316.947 165.051 317.337 164.651 317.65C164.257 317.963 163.767 318.12 163.181 318.12ZM163.181 313.79C162.827 313.79 162.514 313.897 162.241 314.11C161.967 314.317 161.801 314.63 161.741 315.05H164.541C164.521 314.663 164.384 314.357 164.131 314.13C163.877 313.903 163.561 313.79 163.181 313.79ZM168.96 318V311H171.23C172.05 311 172.723 311.143 173.25 311.43C173.783 311.717 174.177 312.123 174.43 312.65C174.69 313.17 174.82 313.79 174.82 314.51C174.82 315.223 174.69 315.843 174.43 316.37C174.177 316.89 173.783 317.293 173.25 317.58C172.723 317.86 172.05 318 171.23 318H168.96ZM170.02 317.1H171.19C171.823 317.1 172.323 316.997 172.69 316.79C173.063 316.583 173.33 316.287 173.49 315.9C173.657 315.513 173.74 315.05 173.74 314.51C173.74 313.97 173.657 313.503 173.49 313.11C173.33 312.717 173.063 312.417 172.69 312.21C172.323 311.997 171.823 311.89 171.19 311.89H170.02V317.1ZM178.121 318.12C177.648 318.12 177.221 318.013 176.841 317.8C176.468 317.58 176.171 317.277 175.951 316.89C175.731 316.497 175.621 316.04 175.621 315.52C175.621 315 175.731 314.547 175.951 314.16C176.178 313.767 176.481 313.463 176.861 313.25C177.241 313.03 177.665 312.92 178.131 312.92C178.605 312.92 179.028 313.03 179.401 313.25C179.781 313.463 180.081 313.767 180.301 314.16C180.528 314.547 180.641 315 180.641 315.52C180.641 316.04 180.528 316.497 180.301 316.89C180.081 317.277 179.781 317.58 179.401 317.8C179.021 318.013 178.595 318.12 178.121 318.12ZM178.121 317.21C178.375 317.21 178.608 317.147 178.821 317.02C179.041 316.893 179.218 316.707 179.351 316.46C179.485 316.207 179.551 315.893 179.551 315.52C179.551 315.147 179.485 314.837 179.351 314.59C179.225 314.337 179.051 314.147 178.831 314.02C178.618 313.893 178.385 313.83 178.131 313.83C177.878 313.83 177.641 313.893 177.421 314.02C177.208 314.147 177.035 314.337 176.901 314.59C176.768 314.837 176.701 315.147 176.701 315.52C176.701 315.893 176.768 316.207 176.901 316.46C177.035 316.707 177.208 316.893 177.421 317.02C177.635 317.147 177.868 317.21 178.121 317.21ZM183.958 318.12C183.471 318.12 183.038 318.013 182.658 317.8C182.284 317.58 181.991 317.277 181.778 316.89C181.564 316.503 181.458 316.053 181.458 315.54C181.458 315.02 181.561 314.563 181.768 314.17C181.981 313.777 182.274 313.47 182.648 313.25C183.028 313.03 183.468 312.92 183.968 312.92C184.454 312.92 184.878 313.03 185.238 313.25C185.598 313.463 185.878 313.75 186.078 314.11C186.278 314.47 186.378 314.867 186.378 315.3C186.378 315.367 186.374 315.44 186.368 315.52C186.368 315.593 186.364 315.677 186.358 315.77H182.498C182.531 316.25 182.688 316.617 182.968 316.87C183.254 317.117 183.584 317.24 183.958 317.24C184.258 317.24 184.508 317.173 184.708 317.04C184.914 316.9 185.068 316.713 185.168 316.48H186.228C186.094 316.947 185.828 317.337 185.428 317.65C185.034 317.963 184.544 318.12 183.958 318.12ZM183.958 313.79C183.604 313.79 183.291 313.897 183.018 314.11C182.744 314.317 182.578 314.63 182.518 315.05H185.318C185.298 314.663 185.161 314.357 184.908 314.13C184.654 313.903 184.338 313.79 183.958 313.79Z" fill="#1E1E1E"/>
<rect x="127.5" y="296.5" width="365" height="37" rx="4.5" stroke="#E7E7E7"/>
<path d="M128.26 356L130.84 349H132L134.56 356H133.44L132.84 354.29H129.98L129.38 356H128.26ZM130.28 353.45H132.54L131.41 350.26L130.28 353.45ZM135.346 356V351.04H136.286L136.376 351.74C136.536 351.487 136.746 351.287 137.006 351.14C137.273 350.993 137.58 350.92 137.926 350.92C138.713 350.92 139.26 351.23 139.566 351.85C139.746 351.563 139.986 351.337 140.286 351.17C140.593 351.003 140.923 350.92 141.276 350.92C141.896 350.92 142.383 351.107 142.736 351.48C143.09 351.853 143.266 352.41 143.266 353.15V356H142.206V353.26C142.206 352.3 141.84 351.82 141.106 351.82C140.733 351.82 140.426 351.96 140.186 352.24C139.953 352.52 139.836 352.92 139.836 353.44V356H138.776V353.26C138.776 352.3 138.406 351.82 137.666 351.82C137.3 351.82 136.996 351.96 136.756 352.24C136.523 352.52 136.406 352.92 136.406 353.44V356H135.346ZM146.676 356.12C146.203 356.12 145.776 356.013 145.396 355.8C145.023 355.58 144.726 355.277 144.506 354.89C144.286 354.497 144.176 354.04 144.176 353.52C144.176 353 144.286 352.547 144.506 352.16C144.733 351.767 145.036 351.463 145.416 351.25C145.796 351.03 146.22 350.92 146.686 350.92C147.16 350.92 147.583 351.03 147.956 351.25C148.336 351.463 148.636 351.767 148.856 352.16C149.083 352.547 149.196 353 149.196 353.52C149.196 354.04 149.083 354.497 148.856 354.89C148.636 355.277 148.336 355.58 147.956 355.8C147.576 356.013 147.15 356.12 146.676 356.12ZM146.676 355.21C146.93 355.21 147.163 355.147 147.376 355.02C147.596 354.893 147.773 354.707 147.906 354.46C148.04 354.207 148.106 353.893 148.106 353.52C148.106 353.147 148.04 352.837 147.906 352.59C147.78 352.337 147.606 352.147 147.386 352.02C147.173 351.893 146.94 351.83 146.686 351.83C146.433 351.83 146.196 351.893 145.976 352.02C145.763 352.147 145.59 352.337 145.456 352.59C145.323 352.837 145.256 353.147 145.256 353.52C145.256 353.893 145.323 354.207 145.456 354.46C145.59 354.707 145.763 354.893 145.976 355.02C146.19 355.147 146.423 355.21 146.676 355.21ZM152.023 356.12C151.423 356.12 150.949 355.933 150.603 355.56C150.263 355.187 150.093 354.63 150.093 353.89V351.04H151.153V353.78C151.153 354.74 151.546 355.22 152.333 355.22C152.726 355.22 153.049 355.08 153.303 354.8C153.556 354.52 153.683 354.12 153.683 353.6V351.04H154.743V356H153.803L153.723 355.13C153.569 355.437 153.343 355.68 153.043 355.86C152.749 356.033 152.409 356.12 152.023 356.12ZM155.941 356V351.04H156.881L156.961 351.91C157.114 351.603 157.338 351.363 157.631 351.19C157.931 351.01 158.274 350.92 158.661 350.92C159.261 350.92 159.731 351.107 160.071 351.48C160.418 351.853 160.591 352.41 160.591 353.15V356H159.541V353.26C159.541 352.3 159.148 351.82 158.361 351.82C157.968 351.82 157.641 351.96 157.381 352.24C157.128 352.52 157.001 352.92 157.001 353.44V356H155.941ZM163.77 356C163.283 356 162.896 355.883 162.61 355.65C162.323 355.41 162.18 354.987 162.18 354.38V351.93H161.33V351.04H162.18L162.31 349.78H163.24V351.04H164.64V351.93H163.24V354.38C163.24 354.653 163.296 354.843 163.41 354.95C163.53 355.05 163.733 355.1 164.02 355.1H164.59V356H163.77Z" fill="#525252"/>
<path d="M147.15 387.12C146.657 387.12 146.23 387.033 145.87 386.86C145.51 386.68 145.223 386.437 145.01 386.13C144.803 385.817 144.677 385.463 144.63 385.07H145.67C145.737 385.403 145.903 385.68 146.17 385.9C146.437 386.113 146.767 386.22 147.16 386.22C147.453 386.22 147.707 386.15 147.92 386.01C148.133 385.863 148.3 385.67 148.42 385.43C148.54 385.19 148.6 384.92 148.6 384.62C148.6 384.147 148.467 383.77 148.2 383.49C147.933 383.203 147.597 383.06 147.19 383.06C146.843 383.06 146.547 383.143 146.3 383.31C146.053 383.47 145.873 383.673 145.76 383.92H144.75L145.35 380H149.13V380.93H146.15L145.79 382.8C145.943 382.627 146.153 382.483 146.42 382.37C146.693 382.25 147 382.19 147.34 382.19C147.813 382.19 148.22 382.3 148.56 382.52C148.9 382.733 149.16 383.023 149.34 383.39C149.527 383.757 149.62 384.163 149.62 384.61C149.62 385.077 149.52 385.5 149.32 385.88C149.12 386.26 148.833 386.563 148.46 386.79C148.093 387.01 147.657 387.12 147.15 387.12ZM150.092 388.18L150.672 385.82H151.722L150.802 388.18H150.092ZM155.413 387.12C154.78 387.12 154.233 386.97 153.773 386.67C153.32 386.363 152.97 385.94 152.723 385.4C152.483 384.853 152.363 384.22 152.363 383.5C152.363 382.78 152.483 382.15 152.723 381.61C152.97 381.063 153.32 380.64 153.773 380.34C154.233 380.033 154.78 379.88 155.413 379.88C156.046 379.88 156.59 380.033 157.043 380.34C157.496 380.64 157.843 381.063 158.083 381.61C158.33 382.15 158.453 382.78 158.453 383.5C158.453 384.22 158.33 384.853 158.083 385.4C157.843 385.94 157.496 386.363 157.043 386.67C156.59 386.97 156.046 387.12 155.413 387.12ZM155.413 386.17C155.793 386.17 156.13 386.063 156.423 385.85C156.723 385.637 156.956 385.33 157.123 384.93C157.29 384.53 157.373 384.053 157.373 383.5C157.373 382.947 157.29 382.47 157.123 382.07C156.956 381.67 156.723 381.363 156.423 381.15C156.13 380.937 155.793 380.83 155.413 380.83C155.026 380.83 154.686 380.937 154.393 381.15C154.1 381.363 153.87 381.67 153.703 382.07C153.536 382.47 153.453 382.947 153.453 383.5C153.453 384.053 153.536 384.53 153.703 384.93C153.87 385.33 154.1 385.637 154.393 385.85C154.686 386.063 155.026 386.17 155.413 386.17ZM162.285 387.12C161.651 387.12 161.105 386.97 160.645 386.67C160.191 386.363 159.841 385.94 159.595 385.4C159.355 384.853 159.235 384.22 159.235 383.5C159.235 382.78 159.355 382.15 159.595 381.61C159.841 381.063 160.191 380.64 160.645 380.34C161.105 380.033 161.651 379.88 162.285 379.88C162.918 379.88 163.461 380.033 163.915 380.34C164.368 380.64 164.715 381.063 164.955 381.61C165.201 382.15 165.325 382.78 165.325 383.5C165.325 384.22 165.201 384.853 164.955 385.4C164.715 385.94 164.368 386.363 163.915 386.67C163.461 386.97 162.918 387.12 162.285 387.12ZM162.285 386.17C162.665 386.17 163.001 386.063 163.295 385.85C163.595 385.637 163.828 385.33 163.995 384.93C164.161 384.53 164.245 384.053 164.245 383.5C164.245 382.947 164.161 382.47 163.995 382.07C163.828 381.67 163.595 381.363 163.295 381.15C163.001 380.937 162.665 380.83 162.285 380.83C161.898 380.83 161.558 380.937 161.265 381.15C160.971 381.363 160.741 381.67 160.575 382.07C160.408 382.47 160.325 382.947 160.325 383.5C160.325 384.053 160.408 384.53 160.575 384.93C160.741 385.33 160.971 385.637 161.265 385.85C161.558 386.063 161.898 386.17 162.285 386.17ZM169.156 387.12C168.523 387.12 167.976 386.97 167.516 386.67C167.063 386.363 166.713 385.94 166.466 385.4C166.226 384.853 166.106 384.22 166.106 383.5C166.106 382.78 166.226 382.15 166.466 381.61C166.713 381.063 167.063 380.64 167.516 380.34C167.976 380.033 168.523 379.88 169.156 379.88C169.789 379.88 170.333 380.033 170.786 380.34C171.239 380.64 171.586 381.063 171.826 381.61C172.073 382.15 172.196 382.78 172.196 383.5C172.196 384.22 172.073 384.853 171.826 385.4C171.586 385.94 171.239 386.363 170.786 386.67C170.333 386.97 169.789 387.12 169.156 387.12ZM169.156 386.17C169.536 386.17 169.873 386.063 170.166 385.85C170.466 385.637 170.699 385.33 170.866 384.93C171.033 384.53 171.116 384.053 171.116 383.5C171.116 382.947 171.033 382.47 170.866 382.07C170.699 381.67 170.466 381.363 170.166 381.15C169.873 380.937 169.536 380.83 169.156 380.83C168.769 380.83 168.429 380.937 168.136 381.15C167.843 381.363 167.613 381.67 167.446 382.07C167.279 382.47 167.196 382.947 167.196 383.5C167.196 384.053 167.279 384.53 167.446 384.93C167.613 385.33 167.843 385.637 168.136 385.85C168.429 386.063 168.769 386.17 169.156 386.17ZM173.207 387.06C173.007 387.06 172.841 386.997 172.707 386.87C172.581 386.737 172.517 386.58 172.517 386.4C172.517 386.213 172.581 386.057 172.707 385.93C172.841 385.797 173.007 385.73 173.207 385.73C173.407 385.73 173.571 385.797 173.697 385.93C173.824 386.057 173.887 386.213 173.887 386.4C173.887 386.58 173.824 386.737 173.697 386.87C173.571 386.997 173.407 387.06 173.207 387.06ZM177.245 387.12C176.611 387.12 176.065 386.97 175.605 386.67C175.151 386.363 174.801 385.94 174.555 385.4C174.315 384.853 174.195 384.22 174.195 383.5C174.195 382.78 174.315 382.15 174.555 381.61C174.801 381.063 175.151 380.64 175.605 380.34C176.065 380.033 176.611 379.88 177.245 379.88C177.878 379.88 178.421 380.033 178.875 380.34C179.328 380.64 179.675 381.063 179.915 381.61C180.161 382.15 180.285 382.78 180.285 383.5C180.285 384.22 180.161 384.853 179.915 385.4C179.675 385.94 179.328 386.363 178.875 386.67C178.421 386.97 177.878 387.12 177.245 387.12ZM177.245 386.17C177.625 386.17 177.961 386.063 178.255 385.85C178.555 385.637 178.788 385.33 178.955 384.93C179.121 384.53 179.205 384.053 179.205 383.5C179.205 382.947 179.121 382.47 178.955 382.07C178.788 381.67 178.555 381.363 178.255 381.15C177.961 380.937 177.625 380.83 177.245 380.83C176.858 380.83 176.518 380.937 176.225 381.15C175.931 381.363 175.701 381.67 175.535 382.07C175.368 382.47 175.285 382.947 175.285 383.5C175.285 384.053 175.368 384.53 175.535 384.93C175.701 385.33 175.931 385.637 176.225 385.85C176.518 386.063 176.858 386.17 177.245 386.17ZM184.116 387.12C183.483 387.12 182.936 386.97 182.476 386.67C182.023 386.363 181.673 385.94 181.426 385.4C181.186 384.853 181.066 384.22 181.066 383.5C181.066 382.78 181.186 382.15 181.426 381.61C181.673 381.063 182.023 380.64 182.476 380.34C182.936 380.033 183.483 379.88 184.116 379.88C184.75 379.88 185.293 380.033 185.746 380.34C186.2 380.64 186.546 381.063 186.786 381.61C187.033 382.15 187.156 382.78 187.156 383.5C187.156 384.22 187.033 384.853 186.786 385.4C186.546 385.94 186.2 386.363 185.746 386.67C185.293 386.97 184.75 387.12 184.116 387.12ZM184.116 386.17C184.496 386.17 184.833 386.063 185.126 385.85C185.426 385.637 185.66 385.33 185.826 384.93C185.993 384.53 186.076 384.053 186.076 383.5C186.076 382.947 185.993 382.47 185.826 382.07C185.66 381.67 185.426 381.363 185.126 381.15C184.833 380.937 184.496 380.83 184.116 380.83C183.73 380.83 183.39 380.937 183.096 381.15C182.803 381.363 182.573 381.67 182.406 382.07C182.24 382.47 182.156 382.947 182.156 383.5C182.156 384.053 182.24 384.53 182.406 384.93C182.573 385.33 182.803 385.637 183.096 385.85C183.39 386.063 183.73 386.17 184.116 386.17Z" fill="#1E1E1E"/>
<rect x="127.5" y="365.5" width="365" height="37" rx="4.5" stroke="#E7E7E7"/>
<rect x="128" y="415" width="364" height="45" rx="22.5" fill="#192CD1"/>
<path d="M283.494 442.5V432.7H286.924C287.689 432.7 288.324 432.831 288.828 433.092C289.332 433.344 289.705 433.694 289.948 434.142C290.2 434.581 290.326 435.08 290.326 435.64C290.326 436.172 290.205 436.662 289.962 437.11C289.729 437.549 289.36 437.899 288.856 438.16C288.352 438.421 287.708 438.552 286.924 438.552H284.978V442.5H283.494ZM284.978 437.334H286.854C287.554 437.334 288.053 437.185 288.352 436.886C288.66 436.578 288.814 436.163 288.814 435.64C288.814 435.099 288.66 434.679 288.352 434.38C288.053 434.072 287.554 433.918 286.854 433.918H284.978V437.334ZM291.527 442.5V435.556H292.857L292.983 436.872C293.225 436.415 293.561 436.055 293.991 435.794C294.429 435.523 294.957 435.388 295.573 435.388V436.942H295.167C294.756 436.942 294.387 437.012 294.061 437.152C293.743 437.283 293.487 437.511 293.291 437.838C293.104 438.155 293.011 438.599 293.011 439.168V442.5H291.527ZM299.692 442.668C299.029 442.668 298.432 442.519 297.9 442.22C297.377 441.912 296.962 441.487 296.654 440.946C296.346 440.395 296.192 439.756 296.192 439.028C296.192 438.3 296.346 437.665 296.654 437.124C296.971 436.573 297.396 436.149 297.928 435.85C298.46 435.542 299.052 435.388 299.706 435.388C300.368 435.388 300.961 435.542 301.484 435.85C302.016 436.149 302.436 436.573 302.744 437.124C303.061 437.665 303.22 438.3 303.22 439.028C303.22 439.756 303.061 440.395 302.744 440.946C302.436 441.487 302.016 441.912 301.484 442.22C300.952 442.519 300.354 442.668 299.692 442.668ZM299.692 441.394C300.046 441.394 300.373 441.305 300.672 441.128C300.98 440.951 301.227 440.689 301.414 440.344C301.6 439.989 301.694 439.551 301.694 439.028C301.694 438.505 301.6 438.071 301.414 437.726C301.236 437.371 300.994 437.105 300.686 436.928C300.387 436.751 300.06 436.662 299.706 436.662C299.351 436.662 299.02 436.751 298.712 436.928C298.413 437.105 298.17 437.371 297.984 437.726C297.797 438.071 297.704 438.505 297.704 439.028C297.704 439.551 297.797 439.989 297.984 440.344C298.17 440.689 298.413 440.951 298.712 441.128C299.01 441.305 299.337 441.394 299.692 441.394ZM307.905 442.668C307.223 442.668 306.612 442.514 306.071 442.206C305.539 441.898 305.119 441.473 304.811 440.932C304.512 440.381 304.363 439.747 304.363 439.028C304.363 438.309 304.512 437.679 304.811 437.138C305.119 436.587 305.539 436.158 306.071 435.85C306.612 435.542 307.223 435.388 307.905 435.388C308.763 435.388 309.482 435.612 310.061 436.06C310.649 436.508 311.027 437.115 311.195 437.88H309.641C309.547 437.497 309.342 437.199 309.025 436.984C308.707 436.769 308.334 436.662 307.905 436.662C307.541 436.662 307.205 436.755 306.897 436.942C306.589 437.119 306.341 437.385 306.155 437.74C305.968 438.085 305.875 438.515 305.875 439.028C305.875 439.541 305.968 439.975 306.155 440.33C306.341 440.675 306.589 440.941 306.897 441.128C307.205 441.315 307.541 441.408 307.905 441.408C308.334 441.408 308.707 441.301 309.025 441.086C309.342 440.871 309.547 440.568 309.641 440.176H311.195C311.036 440.923 310.663 441.525 310.075 441.982C309.487 442.439 308.763 442.668 307.905 442.668ZM315.842 442.668C315.161 442.668 314.554 442.519 314.022 442.22C313.499 441.912 313.089 441.487 312.79 440.946C312.491 440.405 312.342 439.775 312.342 439.056C312.342 438.328 312.487 437.689 312.776 437.138C313.075 436.587 313.485 436.158 314.008 435.85C314.54 435.542 315.156 435.388 315.856 435.388C316.537 435.388 317.13 435.542 317.634 435.85C318.138 436.149 318.53 436.55 318.81 437.054C319.09 437.558 319.23 438.113 319.23 438.72C319.23 438.813 319.225 438.916 319.216 439.028C319.216 439.131 319.211 439.247 319.202 439.378H313.798C313.845 440.05 314.064 440.563 314.456 440.918C314.857 441.263 315.319 441.436 315.842 441.436C316.262 441.436 316.612 441.343 316.892 441.156C317.181 440.96 317.396 440.699 317.536 440.372H319.02C318.833 441.025 318.46 441.571 317.9 442.01C317.349 442.449 316.663 442.668 315.842 442.668ZM315.842 436.606C315.347 436.606 314.909 436.755 314.526 437.054C314.143 437.343 313.91 437.782 313.826 438.37H317.746C317.718 437.829 317.527 437.399 317.172 437.082C316.817 436.765 316.374 436.606 315.842 436.606ZM323.808 442.668C323.127 442.668 322.52 442.519 321.988 442.22C321.465 441.912 321.055 441.487 320.756 440.946C320.457 440.405 320.308 439.775 320.308 439.056C320.308 438.328 320.453 437.689 320.742 437.138C321.041 436.587 321.451 436.158 321.974 435.85C322.506 435.542 323.122 435.388 323.822 435.388C324.503 435.388 325.096 435.542 325.6 435.85C326.104 436.149 326.496 436.55 326.776 437.054C327.056 437.558 327.196 438.113 327.196 438.72C327.196 438.813 327.191 438.916 327.182 439.028C327.182 439.131 327.177 439.247 327.168 439.378H321.764C321.811 440.05 322.03 440.563 322.422 440.918C322.823 441.263 323.285 441.436 323.808 441.436C324.228 441.436 324.578 441.343 324.858 441.156C325.147 440.96 325.362 440.699 325.502 440.372H326.986C326.799 441.025 326.426 441.571 325.866 442.01C325.315 442.449 324.629 442.668 323.808 442.668ZM323.808 436.606C323.313 436.606 322.875 436.755 322.492 437.054C322.109 437.343 321.876 437.782 321.792 438.37H325.712C325.684 437.829 325.493 437.399 325.138 437.082C324.783 436.765 324.34 436.606 323.808 436.606ZM331.69 442.668C331.018 442.668 330.425 442.509 329.912 442.192C329.398 441.875 328.997 441.441 328.708 440.89C328.418 440.339 328.274 439.714 328.274 439.014C328.274 438.314 328.418 437.693 328.708 437.152C328.997 436.601 329.398 436.172 329.912 435.864C330.434 435.547 331.032 435.388 331.704 435.388C332.254 435.388 332.735 435.495 333.146 435.71C333.566 435.925 333.892 436.228 334.126 436.62V432.42H335.61V442.5H334.28L334.126 441.422C333.902 441.749 333.594 442.038 333.202 442.29C332.81 442.542 332.306 442.668 331.69 442.668ZM331.956 441.38C332.59 441.38 333.108 441.161 333.51 440.722C333.92 440.283 334.126 439.719 334.126 439.028C334.126 438.328 333.92 437.763 333.51 437.334C333.108 436.895 332.59 436.676 331.956 436.676C331.321 436.676 330.798 436.895 330.388 437.334C329.977 437.763 329.772 438.328 329.772 439.028C329.772 439.485 329.865 439.891 330.052 440.246C330.238 440.601 330.495 440.881 330.822 441.086C331.158 441.282 331.536 441.38 331.956 441.38Z" fill="#FBFBFB"/>
</svg>
