<svg width="49" height="43" viewBox="0 0 49 43" fill="none" xmlns="http://www.w3.org/2000/svg">
<rect x="0.779785" y="0.268188" width="48" height="48" rx="12" fill="#EAECFF"/>
<path d="M15.0529 17.8934C15.8462 17.1931 16.8883 16.7682 18.0297 16.7682H31.5297C32.6711 16.7682 33.7132 17.1931 34.5065 17.8934C34.3221 16.4134 33.0596 15.2682 31.5297 15.2682H18.0297C16.4997 15.2682 15.2373 16.4134 15.0529 17.8934Z" fill="#192CD1"/>
<path d="M15.0529 20.8934C15.8462 20.1931 16.8883 19.7682 18.0297 19.7682H31.5297C32.6711 19.7682 33.7132 20.1931 34.5065 20.8934C34.3221 19.4134 33.0596 18.2682 31.5297 18.2682H18.0297C16.4997 18.2682 15.2373 19.4134 15.0529 20.8934Z" fill="#192CD1"/>
<path d="M18.0298 21.2682C16.3729 21.2682 15.0298 22.6113 15.0298 24.2682V30.2682C15.0298 31.925 16.3729 33.2682 18.0298 33.2682H31.5298C33.1866 33.2682 34.5298 31.925 34.5298 30.2682V24.2682C34.5298 22.6113 33.1866 21.2682 31.5298 21.2682H27.7798C27.3656 21.2682 27.0298 21.604 27.0298 22.0182C27.0298 23.2608 26.0224 24.2682 24.7798 24.2682C23.5371 24.2682 22.5298 23.2608 22.5298 22.0182C22.5298 21.604 22.194 21.2682 21.7798 21.2682H18.0298Z" fill="#192CD1"/>
</svg>
