<svg width="48" height="48" viewBox="0 0 48 48" fill="none" xmlns="http://www.w3.org/2000/svg">
<rect y="0.379883" width="48" height="47.3846" rx="8" fill="#EAECFF"/>
<path d="M14 27.1491C14 29.6981 16.0664 31.7645 18.6154 31.7645H30.1538C32.278 31.7645 34 30.0425 34 27.9183C34 26.2752 32.9696 24.8727 31.5196 24.3217C31.6315 24.0029 31.6923 23.66 31.6923 23.303C31.6923 21.6036 30.3147 20.226 28.6154 20.226C28.2838 20.226 27.9645 20.2785 27.6653 20.3755C27.0528 18.0749 24.9551 16.3799 22.4615 16.3799C19.4877 16.3799 17.0769 18.7907 17.0769 21.7645C17.0769 22.1063 17.1088 22.4406 17.1696 22.7647C15.3288 23.3714 14 25.1051 14 27.1491Z" stroke="#192CD1" stroke-width="1.5" stroke-linecap="round" stroke-linejoin="round"/>
</svg>
