<svg width="48" height="49" viewBox="0 0 48 49" fill="none" xmlns="http://www.w3.org/2000/svg">
<rect width="48" height="48.3796" rx="8" fill="#EAECFF"/>
<path d="M24 17.5463C22.2308 15.9628 19.8945 15 17.3333 15C16.1645 15 15.0426 15.2005 14 15.569V31.4024C15.0426 31.0338 16.1645 30.8333 17.3333 30.8333C19.8945 30.8333 22.2308 31.7962 24 33.3796M24 17.5463C25.7692 15.9628 28.1055 15 30.6667 15C31.8355 15 32.9574 15.2005 34 15.569V31.4024C32.9574 31.0338 31.8355 30.8333 30.6667 30.8333C28.1055 30.8333 25.7692 31.7962 24 33.3796M24 17.5463V33.3796" stroke="#192CD1" stroke-width="1.5" stroke-linecap="round" stroke-linejoin="round"/>
</svg>
