<svg width="32" height="32" viewBox="0 0 32 32" fill="none" xmlns="http://www.w3.org/2000/svg">
<path fill-rule="evenodd" clip-rule="evenodd" d="M15.8423 0.393188C7.31639 0.393188 0.404785 7.30479 0.404785 15.8307C0.404785 24.3566 7.31639 31.2682 15.8423 31.2682C24.3682 31.2682 31.2798 24.3566 31.2798 15.8307C31.2798 7.30479 24.3682 0.393188 15.8423 0.393188ZM13.1195 11.4285C12.6557 10.9648 11.9038 10.9648 11.4401 11.4285C10.9763 11.8922 10.9763 12.6441 11.4401 13.1079L14.1629 15.8307L11.4401 18.5535C10.9763 19.0172 10.9763 19.7691 11.4401 20.2329C11.9038 20.6966 12.6557 20.6966 13.1195 20.2329L15.8423 17.5101L18.5651 20.2329C19.0288 20.6966 19.7807 20.6966 20.2445 20.2329C20.7082 19.7691 20.7082 19.0172 20.2445 18.5535L17.5217 15.8307L20.2445 13.1079C20.7082 12.6441 20.7082 11.8922 20.2445 11.4285C19.7807 10.9648 19.0288 10.9648 18.5651 11.4285L15.8423 14.1513L13.1195 11.4285Z" fill="#192CD1"/>
</svg>
