<svg width="49" height="49" viewBox="0 0 49 49" fill="none" xmlns="http://www.w3.org/2000/svg">
<rect x="0.779785" y="0.268188" width="48" height="48" rx="12" fill="#EAECFF"/>
<path d="M34.3797 18.2682C34.3797 21.1401 30.0816 23.4682 24.7797 23.4682C19.4778 23.4682 15.1797 21.1401 15.1797 18.2682C15.1797 15.3963 19.4778 13.0682 24.7797 13.0682C30.0816 13.0682 34.3797 15.3963 34.3797 18.2682Z" fill="#192CD1"/>
<path d="M24.7797 25.0682C27.6439 25.0682 30.3162 24.4428 32.33 23.352C33.066 22.9533 33.7661 22.4595 34.3527 21.8754C34.3706 22.005 34.3797 22.136 34.3797 22.2682C34.3797 25.1401 30.0816 27.4682 24.7797 27.4682C19.4778 27.4682 15.1797 25.1401 15.1797 22.2682C15.1797 22.136 15.1888 22.005 15.2067 21.8754C15.7933 22.4595 16.4934 22.9533 17.2294 23.352C19.2431 24.4428 21.9155 25.0682 24.7797 25.0682Z" fill="#192CD1"/>
<path d="M24.7797 29.0682C27.6439 29.0682 30.3162 28.4428 32.33 27.352C33.066 26.9533 33.7661 26.4595 34.3527 25.8754C34.3706 26.005 34.3797 26.136 34.3797 26.2682C34.3797 29.1401 30.0816 31.4682 24.7797 31.4682C19.4778 31.4682 15.1797 29.1401 15.1797 26.2682C15.1797 26.136 15.1888 26.005 15.2067 25.8754C15.7933 26.4595 16.4934 26.9533 17.2294 27.352C19.2431 28.4428 21.9155 29.0682 24.7797 29.0682Z" fill="#192CD1"/>
<path d="M24.7797 33.0682C27.6439 33.0682 30.3162 32.4428 32.33 31.352C33.066 30.9533 33.7661 30.4595 34.3527 29.8754C34.3706 30.005 34.3797 30.136 34.3797 30.2682C34.3797 33.1401 30.0816 35.4682 24.7797 35.4682C19.4778 35.4682 15.1797 33.1401 15.1797 30.2682C15.1797 30.136 15.1888 30.005 15.2067 29.8754C15.7933 30.4595 16.4934 30.9533 17.2294 31.352C19.2431 32.4428 21.9155 33.0682 24.7797 33.0682Z" fill="#192CD1"/>
</svg>
