<svg width="48" height="49" viewBox="0 0 48 49" fill="none" xmlns="http://www.w3.org/2000/svg">
<rect y="0.988281" width="48" height="48" rx="8" fill="#EAECFF"/>
<path fill-rule="evenodd" clip-rule="evenodd" d="M14 17.0716C14 15.921 14.9327 14.9883 16.0833 14.9883H21.0833C22.2339 14.9883 23.1667 15.921 23.1667 17.0716V22.0716C23.1667 23.2222 22.2339 24.1549 21.0833 24.1549H16.0833C14.9327 24.1549 14 23.2222 14 22.0716V17.0716ZM16.0833 16.6549C15.8532 16.6549 15.6667 16.8415 15.6667 17.0716V22.0716C15.6667 22.3017 15.8532 22.4883 16.0833 22.4883H21.0833C21.3135 22.4883 21.5 22.3017 21.5 22.0716V17.0716C21.5 16.8415 21.3135 16.6549 21.0833 16.6549H16.0833ZM24.8333 17.0716C24.8333 15.921 25.7661 14.9883 26.9167 14.9883H31.9167C33.0673 14.9883 34 15.921 34 17.0716V22.0716C34 23.2222 33.0673 24.1549 31.9167 24.1549H26.9167C25.7661 24.1549 24.8333 23.2222 24.8333 22.0716V17.0716ZM26.9167 16.6549C26.6865 16.6549 26.5 16.8415 26.5 17.0716V22.0716C26.5 22.3017 26.6865 22.4883 26.9167 22.4883H31.9167C32.1468 22.4883 32.3333 22.3017 32.3333 22.0716V17.0716C32.3333 16.8415 32.1468 16.6549 31.9167 16.6549H26.9167ZM17.3333 19.1549C17.3333 18.6947 17.7064 18.3216 18.1667 18.3216H19C19.4602 18.3216 19.8333 18.6947 19.8333 19.1549V19.9883C19.8333 20.4485 19.4602 20.8216 19 20.8216H18.1667C17.7064 20.8216 17.3333 20.4485 17.3333 19.9883V19.1549ZM28.1667 19.1549C28.1667 18.6947 28.5398 18.3216 29 18.3216H29.8333C30.2936 18.3216 30.6667 18.6947 30.6667 19.1549V19.9883C30.6667 20.4485 30.2936 20.8216 29.8333 20.8216H29C28.5398 20.8216 28.1667 20.4485 28.1667 19.9883V19.1549ZM14 27.9049C14 26.7544 14.9327 25.8216 16.0833 25.8216H21.0833C22.2339 25.8216 23.1667 26.7544 23.1667 27.9049V32.9049C23.1667 34.0555 22.2339 34.9883 21.0833 34.9883H16.0833C14.9327 34.9883 14 34.0555 14 32.9049V27.9049ZM16.0833 27.4883C15.8532 27.4883 15.6667 27.6748 15.6667 27.9049V32.9049C15.6667 33.1351 15.8532 33.3216 16.0833 33.3216H21.0833C21.3135 33.3216 21.5 33.1351 21.5 32.9049V27.9049C21.5 27.6748 21.3135 27.4883 21.0833 27.4883H16.0833ZM24.8333 26.6549C24.8333 26.1947 25.2064 25.8216 25.6667 25.8216H26.5C26.9602 25.8216 27.3333 26.1947 27.3333 26.6549V27.4883C27.3333 27.9485 26.9602 28.3216 26.5 28.3216H25.6667C25.2064 28.3216 24.8333 27.9485 24.8333 27.4883V26.6549ZM31.5 26.6549C31.5 26.1947 31.8731 25.8216 32.3333 25.8216H33.1667C33.6269 25.8216 34 26.1947 34 26.6549V27.4883C34 27.9485 33.6269 28.3216 33.1667 28.3216H32.3333C31.8731 28.3216 31.5 27.9485 31.5 27.4883V26.6549ZM17.3333 29.9883C17.3333 29.528 17.7064 29.1549 18.1667 29.1549H19C19.4602 29.1549 19.8333 29.528 19.8333 29.9883V30.8216C19.8333 31.2819 19.4602 31.6549 19 31.6549H18.1667C17.7064 31.6549 17.3333 31.2819 17.3333 30.8216V29.9883ZM28.1667 29.9883C28.1667 29.528 28.5398 29.1549 29 29.1549H29.8333C30.2936 29.1549 30.6667 29.528 30.6667 29.9883V30.8216C30.6667 31.2819 30.2936 31.6549 29.8333 31.6549H29C28.5398 31.6549 28.1667 31.2819 28.1667 30.8216V29.9883ZM24.8333 33.3216C24.8333 32.8614 25.2064 32.4883 25.6667 32.4883H26.5C26.9602 32.4883 27.3333 32.8614 27.3333 33.3216V34.1549C27.3333 34.6152 26.9602 34.9883 26.5 34.9883H25.6667C25.2064 34.9883 24.8333 34.6152 24.8333 34.1549V33.3216ZM31.5 33.3216C31.5 32.8614 31.8731 32.4883 32.3333 32.4883H33.1667C33.6269 32.4883 34 32.8614 34 33.3216V34.1549C34 34.6152 33.6269 34.9883 33.1667 34.9883H32.3333C31.8731 34.9883 31.5 34.6152 31.5 34.1549V33.3216Z" fill="#192CD1"/>
</svg>
