<svg width="49" height="49" viewBox="0 0 49 49" fill="none" xmlns="http://www.w3.org/2000/svg">
<rect x="0.779785" y="0.268188" width="48" height="48" rx="12" fill="#EAECFF"/>
<path d="M16.1138 14.6979C15.856 14.6212 15.5779 14.6956 15.3896 14.8915C15.2012 15.0875 15.1331 15.3734 15.212 15.6362L17.5805 23.5203H25.8731C26.2765 23.5203 26.6035 23.8552 26.6035 24.2683C26.6035 24.6815 26.2765 25.0164 25.8731 25.0164H17.5806L15.2121 32.9002C15.1331 33.163 15.2013 33.449 15.3897 33.6449C15.578 33.8409 15.8561 33.9152 16.1139 33.8385C22.6369 31.8976 28.6946 28.8377 34.0757 24.8755C34.2665 24.7349 34.3797 24.5089 34.3797 24.2681C34.3797 24.0273 34.2665 23.8013 34.0757 23.6607C28.6946 19.6986 22.6369 16.6387 16.1138 14.6979Z" fill="#192CD1"/>
</svg>
