<svg width="48" height="49" viewBox="0 0 48 49" fill="none" xmlns="http://www.w3.org/2000/svg">
<rect y="0.994629" width="48" height="47.9934" rx="8" fill="#EAECFF"/>
<path d="M26.7998 19.0873C26.7998 18.7085 26.9982 18.366 27.2277 18.0646C27.4633 17.7552 27.5997 17.3882 27.5997 16.9946C27.5997 15.89 26.5252 14.9946 25.1998 14.9946C23.8743 14.9946 22.7998 15.89 22.7998 16.9946C22.7998 17.3882 22.9363 17.7552 23.1719 18.0646C23.4014 18.366 23.5998 18.7085 23.5998 19.0873V19.0873C23.5998 19.4726 23.2843 19.7838 22.8991 19.7727C22.3649 19.7574 21.8327 19.7338 21.3027 19.7022C19.8464 19.6152 18.6205 20.8411 18.7074 22.2975C18.7546 23.0894 18.7839 23.8863 18.7947 24.6875C18.8 25.0779 18.483 25.3944 18.0927 25.3944V25.3944C17.7138 25.3944 17.3714 25.196 17.07 24.9665C16.7606 24.7309 16.3936 24.5944 16 24.5944C14.8954 24.5944 14 25.6689 14 26.9944C14 28.3199 14.8954 29.3944 16 29.3944C16.3936 29.3944 16.7606 29.2579 17.07 29.0223C17.3714 28.7928 17.7138 28.5944 18.0927 28.5944V28.5944C18.4225 28.5944 18.6842 28.8725 18.6601 29.2014C18.5971 30.0575 18.5132 30.9077 18.4087 31.7516C18.2166 33.3022 19.2791 34.7651 20.8379 34.8722C21.5214 34.9192 22.2085 34.9527 22.8991 34.9726C23.2843 34.9837 23.5999 34.6725 23.5999 34.287V34.287C23.5999 33.9082 23.4015 33.5658 23.172 33.2644C22.9364 32.955 22.8 32.5879 22.8 32.1943C22.8 31.0898 23.8745 30.1944 25.1999 30.1944C26.5254 30.1944 27.5999 31.0898 27.5999 32.1943C27.5999 32.5879 27.4634 32.955 27.2278 33.2644C26.9983 33.5658 26.7999 33.9082 26.7999 34.287V34.287C26.7999 34.6421 27.0964 34.9256 27.4509 34.9048C28.6466 34.8345 29.8313 34.7232 31.0036 34.5723C32.3493 34.399 33.4048 33.3435 33.5781 31.9978C33.6971 31.0734 33.7915 30.1413 33.8605 29.2022C33.8848 28.8729 33.6227 28.5944 33.2925 28.5944V28.5944C32.9137 28.5944 32.5712 28.7929 32.2699 29.0224C31.9604 29.258 31.5934 29.3944 31.1998 29.3944C30.0952 29.3944 29.1998 28.3199 29.1998 26.9944C29.1998 25.669 30.0952 24.5945 31.1998 24.5945C31.5934 24.5945 31.9604 24.7309 32.2698 24.9665C32.5712 25.196 32.9137 25.3945 33.2925 25.3945V25.3945C33.6832 25.3945 34.0005 25.0777 33.9952 24.687C33.9842 23.8747 33.9543 23.067 33.9059 22.2643C33.7977 20.4702 32.1137 19.2491 30.3281 19.4549C29.3767 19.5646 28.4173 19.6482 27.4507 19.705C27.0963 19.7258 26.7998 19.4423 26.7998 19.0873V19.0873Z" stroke="#192CD1" stroke-width="1.5" stroke-linecap="round" stroke-linejoin="round"/>
</svg>
