<svg width="57" height="57" viewBox="0 0 57 57" fill="none" xmlns="http://www.w3.org/2000/svg">
<rect y="0.8125" width="56.1766" height="56.1766" rx="8" fill="#E8EBFF"/>
<path d="M29.2205 18.6617L25.5474 23.039M25.3157 21.0928L25.4345 21.6022C25.5929 22.2813 26.2858 22.8627 26.9821 22.9008C27.6784 22.9389 28.1145 22.4192 27.9561 21.7401C27.8769 21.4005 27.664 21.0853 27.3839 20.8503C27.1195 20.6284 26.9223 20.3265 26.855 19.9969C26.7205 19.3378 27.1566 18.8181 27.829 18.8362C28.5014 18.8542 29.1556 19.4031 29.2902 20.0622L29.3406 20.3094M38.3809 27.7468L36.1922 25.9103M37.4627 28.8412L35.274 27.0046M34.5318 30.1116L34.3557 28.099L34.9029 28.5581C35.5073 29.0653 36.4083 28.9864 36.9155 28.382C37.4226 27.7776 37.3438 26.8766 36.7394 26.3694M22.1575 28.7458C21.751 28.0576 20.974 27.6257 20.1246 27.7C18.9457 27.8032 18.0736 28.8425 18.1767 30.0215C18.251 30.8709 18.8113 31.561 19.5596 31.8419M18.8554 27.6806L20.7705 29.2875M17.9372 28.7749L19.8523 30.3819M29.0757 34.3915L28.7926 36.9513M28.7926 36.9513L31.2644 36.228M28.7926 36.9513L27.1856 38.8664M29.887 37.8696L27.6983 36.033M28.9687 38.9639L26.78 37.1274M30.667 23.6052C29.1456 25.4183 26.4423 25.6548 24.6292 24.1334C22.816 22.612 22.5795 19.9087 24.1009 18.0955C25.6223 16.2824 28.3256 16.0459 30.1388 17.5673C31.9519 19.0887 32.1884 21.792 30.667 23.6052ZM39.4218 30.9513C37.9004 32.7645 35.1971 33.001 33.3839 31.4795C31.5708 29.9581 31.3343 27.2549 32.8557 25.4417C34.3771 23.6285 37.0804 23.392 38.8936 24.9134C40.7067 26.4349 40.9432 29.1381 39.4218 30.9513ZM23.3209 32.3599C21.7994 34.1731 19.0962 34.4096 17.283 32.8882C15.4698 31.3668 15.2333 28.6635 16.7548 26.8503C18.2762 25.0372 20.9794 24.8007 22.7926 26.3221C24.6058 27.8435 24.8423 30.5468 23.3209 32.3599ZM32.0757 39.7061C30.5542 41.5193 27.851 41.7558 26.0378 40.2343C24.2246 38.7129 23.9881 36.0097 25.5096 34.1965C27.031 32.3833 29.7342 32.1468 31.5474 33.6682C33.3606 35.1897 33.5971 37.8929 32.0757 39.7061Z" stroke="#192CD1" stroke-width="0.9" stroke-linecap="round" stroke-linejoin="round"/>
</svg>
