<svg width="48" height="49" viewBox="0 0 48 49" fill="none" xmlns="http://www.w3.org/2000/svg">
<rect y="0.321289" width="48" height="48.4617" rx="8" fill="#EAECFF"/>
<path d="M25.5386 33.7829V26.0905C25.5386 25.6657 25.883 25.3213 26.3079 25.3213H29.3848C29.8097 25.3213 30.1541 25.6657 30.1541 26.0905V33.7829M25.5386 33.7829H14.1137M25.5386 33.7829H30.1541M30.1541 33.7829H33.8866M32.4618 33.7829V21.8328M15.5385 33.7829V21.8331M15.5385 21.8331C16.7152 22.5132 18.246 22.3499 19.2527 21.3432V21.3432C19.3251 21.2708 19.4444 21.2708 19.5168 21.3432C20.0736 21.9 20.8428 22.2443 21.6924 22.2443V22.2443C23.078 22.2443 24.9222 22.2443 26.3079 22.2443V22.2443C27.1575 22.2443 27.9268 21.8999 28.4836 21.3431C28.5559 21.2708 28.675 21.2708 28.7473 21.3431V21.3431C29.7541 22.3499 31.285 22.5131 32.4618 21.8328M15.5385 21.8331C15.3107 21.7014 15.0961 21.5381 14.9012 21.3432C13.6996 20.1416 13.6996 18.1933 14.9012 16.9917L16.121 15.7719C16.4095 15.4834 16.8009 15.3213 17.2089 15.3213H30.7912C31.1992 15.3213 31.5905 15.4834 31.8791 15.7719L33.0988 16.9916C34.3004 18.1932 34.3004 20.1415 33.0988 21.3431C32.904 21.5379 32.6895 21.7012 32.4618 21.8328M18.6155 30.706H22.4617C22.8865 30.706 23.2309 30.3616 23.2309 29.9367V26.0905C23.2309 25.6657 22.8865 25.3213 22.4617 25.3213H18.6155C18.1906 25.3213 17.8462 25.6657 17.8462 26.0905V29.9367C17.8462 30.3616 18.1906 30.706 18.6155 30.706Z" stroke="#192CD1" stroke-width="1.5" stroke-linecap="round" stroke-linejoin="round"/>
</svg>
