<svg width="48" height="50" viewBox="0 0 48 50" fill="none" xmlns="http://www.w3.org/2000/svg">
<rect y="0.988281" width="48" height="48.3333" rx="8" fill="#EAECFF"/>
<path d="M17.3333 19.4639V18.4883C17.3333 17.1076 18.4526 15.9883 19.8333 15.9883H28.1667C29.5474 15.9883 30.6667 17.1076 30.6667 18.4883V19.4639M17.3333 19.4639C17.594 19.3717 17.8745 19.3216 18.1667 19.3216H29.8333C30.1255 19.3216 30.406 19.3717 30.6667 19.4639M17.3333 19.4639C16.3623 19.8071 15.6667 20.7331 15.6667 21.8216V22.7972M30.6667 19.4639C31.6377 19.8071 32.3333 20.7331 32.3333 21.8216V22.7972M32.3333 22.7972C32.0727 22.7051 31.7922 22.6549 31.5 22.6549H16.5C16.2078 22.6549 15.9273 22.7051 15.6667 22.7972M32.3333 22.7972C33.3043 23.1404 34 24.0664 34 25.1549V31.8216C34 33.2023 32.8807 34.3216 31.5 34.3216H16.5C15.1193 34.3216 14 33.2023 14 31.8216V25.1549C14 24.0664 14.6957 23.1404 15.6667 22.7972" stroke="#192CD1" stroke-width="1.5" stroke-linecap="round" stroke-linejoin="round"/>
</svg>
